<svg width="363" height="207" viewBox="0 0 363 207" fill="none" xmlns="http://www.w3.org/2000/svg">
<g filter="url(#filter0_f_9364_376)">
<path d="M146.986 176.902C162.632 174.006 174.415 164.444 178.321 153.007C181.66 153.05 185.067 152.772 188.486 152.139C210.392 148.084 224.993 130.99 222.675 113.022C229.304 114.276 236.49 114.347 243.757 113.002C256.554 110.633 267.049 104.344 273.461 96.2206C281.375 101.622 292.243 104.027 303.283 101.984C322.279 98.4676 334.591 83.1134 330.783 67.6892C326.975 52.2652 308.488 42.6117 289.493 46.1278C281.535 47.6008 274.751 51.1527 269.833 55.9155C264.043 50.8482 256.272 47.2932 247.577 45.7656C237.56 33.0216 218.426 26.1905 198.876 29.8092C173.584 34.4907 157.179 54.8852 162.235 75.362C163.004 78.4792 164.228 81.4184 165.837 84.1454C149.893 88.9717 138.839 100.998 137.157 114.561C135.372 114.701 133.572 114.934 131.768 115.268C127.556 116.048 123.624 117.313 120.049 118.966C111.421 103.178 90.0475 94.125 68.1532 98.1776C42.861 102.859 26.4564 123.254 31.5121 143.731C36.5679 164.208 61.1695 177.013 86.4617 172.332C93.7347 170.986 100.271 168.338 105.776 164.764C114.506 174.759 130.538 179.947 146.986 176.902Z" fill="url(#paint0_linear_9364_376)"/>
</g>
<defs>
<filter id="filter0_f_9364_376" x="5.57767" y="3.82376" width="350.915" height="198.966" filterUnits="userSpaceOnUse" color-interpolation-filters="sRGB">
<feFlood flood-opacity="0" result="BackgroundImageFix"/>
<feBlend mode="normal" in="SourceGraphic" in2="BackgroundImageFix" result="shape"/>
<feGaussianBlur stdDeviation="3.336" result="effect1_foregroundBlur_9364_376"/>
</filter>
<linearGradient id="paint0_linear_9364_376" x1="182.47" y1="223.783" x2="152.279" y2="59.7884" gradientUnits="userSpaceOnUse">
<stop stop-color="white" stop-opacity="0"/>
<stop offset="0.683808" stop-color="white" stop-opacity="0.5"/>
</linearGradient>
</defs>
</svg>
