<svg width="379" height="217" viewBox="0 0 379 217" fill="none" xmlns="http://www.w3.org/2000/svg">
<g filter="url(#filter0_f_9364_390)">
<path d="M222.714 184.984C206.27 181.589 194.137 171.171 190.496 158.972C185.17 159.517 179.612 159.273 174.048 158.124C151.547 153.479 136.847 135.707 139.271 117.224C134.081 117.542 128.681 117.186 123.259 116.067C109.938 113.317 99.1351 106.516 92.6563 97.8811C84.2224 103.361 72.7857 105.645 61.2947 103.273C41.5169 99.1908 29.0688 82.8624 33.4904 66.8033C37.9121 50.7443 57.5292 41.0356 77.3068 45.1181C82.1193 46.1114 86.4962 47.8322 90.3033 50.0953C100.509 35.2518 122.033 27.3112 143.714 31.7866C170.047 37.2223 186.636 58.9125 180.766 80.2321C180.476 81.2829 180.136 82.3128 179.751 83.3213C179.749 83.8483 179.729 84.3763 179.696 84.905C184.338 84.6256 189.129 84.9417 193.925 85.9316C213.505 89.9733 227.179 103.958 228.802 119.699C232.594 119.651 236.483 120.007 240.383 120.812C244.773 121.718 248.854 123.127 252.55 124.935C262.025 108.596 284.648 99.5758 307.444 104.281C333.777 109.717 350.366 131.407 344.496 152.727C338.626 174.046 312.52 186.923 286.187 181.487C278.611 179.924 271.843 177.012 266.182 173.153C256.765 183.429 239.841 188.519 222.714 184.984Z" fill="url(#paint0_linear_9364_390)"/>
</g>
<defs>
<filter id="filter0_f_9364_390" x="6.40952" y="4.35483" width="365.454" height="207.935" filterUnits="userSpaceOnUse" color-interpolation-filters="sRGB">
<feFlood flood-opacity="0" result="BackgroundImageFix"/>
<feBlend mode="normal" in="SourceGraphic" in2="BackgroundImageFix" result="shape"/>
<feGaussianBlur stdDeviation="3.49175" result="effect1_foregroundBlur_9364_390"/>
</filter>
<linearGradient id="paint0_linear_9364_390" x1="184.267" y1="233.287" x2="219.428" y2="62.1084" gradientUnits="userSpaceOnUse">
<stop stop-color="white" stop-opacity="0"/>
<stop offset="0.683808" stop-color="white" stop-opacity="0.5"/>
</linearGradient>
</defs>
</svg>
