<svg width="468" height="243" viewBox="0 0 468 243" fill="none" xmlns="http://www.w3.org/2000/svg">
<g filter="url(#filter0_f_9364_383)">
<path d="M189.06 207.4C209.572 203.603 225.02 191.067 230.14 176.073C234.515 176.129 238.979 175.765 243.459 174.936C271.731 169.703 290.722 147.901 288.406 124.75C301.276 142.188 326.917 151.658 353.123 146.807C377.763 142.246 395.969 126.309 400.975 107.406C421.79 100.643 434.489 82.4764 429.985 64.2332C424.993 44.0134 400.759 31.3583 375.857 35.9675C365.481 37.8881 356.628 42.5045 350.19 48.6975C350.115 48.6901 350.041 48.6826 349.966 48.6754C336.752 37.1988 315.747 31.6932 294.203 35.681C265.023 41.0822 244.965 62.0254 246.351 84.1486C238.317 82.5638 229.698 82.4326 221.017 84.0394C196.261 88.6217 178.62 105.906 176.169 125.677C173.831 125.861 171.474 126.166 169.111 126.603C163.59 127.625 158.437 129.283 153.753 131.448C142.443 110.749 114.42 98.8807 85.716 104.194C52.5601 110.331 31.055 137.067 37.6825 163.911C44.3102 190.754 76.5609 207.541 109.717 201.404C119.251 199.639 127.82 196.17 135.036 191.486C146.48 204.59 167.497 211.391 189.06 207.4Z" fill="url(#paint0_linear_9364_383)"/>
</g>
<defs>
<filter id="filter0_f_9364_383" x="6.65397" y="4.56022" width="454.067" height="233.807" filterUnits="userSpaceOnUse" color-interpolation-filters="sRGB">
<feFlood flood-opacity="0" result="BackgroundImageFix"/>
<feBlend mode="normal" in="SourceGraphic" in2="BackgroundImageFix" result="shape"/>
<feGaussianBlur stdDeviation="3.97739" result="effect1_foregroundBlur_9364_383"/>
</filter>
<linearGradient id="paint0_linear_9364_383" x1="235.569" y1="268.859" x2="195.991" y2="53.8726" gradientUnits="userSpaceOnUse">
<stop stop-color="white" stop-opacity="0"/>
<stop offset="1" stop-color="#C3E3FE"/>
</linearGradient>
</defs>
</svg>
