<svg width="367" height="217" viewBox="0 0 367 217" fill="none" xmlns="http://www.w3.org/2000/svg">
<g opacity="0.84" filter="url(#filter0_dfgn_9524_832)">
<path d="M105.935 21.1729C99.5623 21.1729 94.1314 25.1019 92.0479 30.6113C89.3341 27.5322 85.3118 25.5821 80.8223 25.582C72.6499 25.582 66.0244 32.0437 66.0244 40.0146C66.0244 40.0916 66.0271 40.1684 66.0283 40.2451C63.3257 37.4014 59.4629 35.6212 55.1738 35.6211C48.0333 35.6211 42.0746 40.5546 40.6836 47.1172C39.2028 46.6321 37.6171 46.3691 35.9688 46.3691C27.7966 46.3693 21.1721 52.8311 21.1719 60.8018C21.1719 68.7726 27.7965 75.2342 35.9688 75.2344C39.4 75.2344 42.5584 74.0953 45.0684 72.1836C45.0684 72.1871 45.0674 72.1908 45.0674 72.1943C45.0675 80.1652 51.6929 86.627 59.8652 86.627C66.0279 86.6268 71.3097 82.9518 73.5352 77.7266C75.7607 82.9516 81.0416 86.6268 87.2041 86.627C92.8607 86.627 97.7754 83.5306 100.266 78.9814C102.756 83.5304 107.67 86.627 113.326 86.627C120.022 86.6269 125.678 82.2891 127.504 76.3379C130.593 80.9274 135.892 83.9561 141.911 83.9561C151.444 83.9558 159.172 76.363 159.172 66.9971C159.172 57.6312 151.444 50.0383 141.911 50.0381C140.163 50.0381 138.475 50.2947 136.885 50.7695C135.979 43.6453 129.75 38.1309 122.2 38.1309C121.621 38.1309 121.05 38.1644 120.488 38.2275C120.648 37.3773 120.732 36.5008 120.732 35.6055C120.732 27.6346 114.107 21.1729 105.935 21.1729Z" fill="white"/>
<path d="M105.935 21.1729C99.5623 21.1729 94.1314 25.1019 92.0479 30.6113C89.3341 27.5322 85.3118 25.5821 80.8223 25.582C72.6499 25.582 66.0244 32.0437 66.0244 40.0146C66.0244 40.0916 66.0271 40.1684 66.0283 40.2451C63.3257 37.4014 59.4629 35.6212 55.1738 35.6211C48.0333 35.6211 42.0746 40.5546 40.6836 47.1172C39.2028 46.6321 37.6171 46.3691 35.9688 46.3691C27.7966 46.3693 21.1721 52.8311 21.1719 60.8018C21.1719 68.7726 27.7965 75.2342 35.9688 75.2344C39.4 75.2344 42.5584 74.0953 45.0684 72.1836C45.0684 72.1871 45.0674 72.1908 45.0674 72.1943C45.0675 80.1652 51.6929 86.627 59.8652 86.627C66.0279 86.6268 71.3097 82.9518 73.5352 77.7266C75.7607 82.9516 81.0416 86.6268 87.2041 86.627C92.8607 86.627 97.7754 83.5306 100.266 78.9814C102.756 83.5304 107.67 86.627 113.326 86.627C120.022 86.6269 125.678 82.2891 127.504 76.3379C130.593 80.9274 135.892 83.9561 141.911 83.9561C151.444 83.9558 159.172 76.363 159.172 66.9971C159.172 57.6312 151.444 50.0383 141.911 50.0381C140.163 50.0381 138.475 50.2947 136.885 50.7695C135.979 43.6453 129.75 38.1309 122.2 38.1309C121.621 38.1309 121.05 38.1644 120.488 38.2275C120.648 37.3773 120.732 36.5008 120.732 35.6055C120.732 27.6346 114.107 21.1729 105.935 21.1729Z" fill="url(#paint0_linear_9524_832)" fill-opacity="0.2"/>
</g>
<g opacity="0.84" filter="url(#filter1_dfgn_9524_832)">
<path d="M291.935 130.173C285.562 130.173 280.131 134.102 278.048 139.611C275.334 136.532 271.312 134.582 266.822 134.582C258.65 134.582 252.024 141.044 252.024 149.015C252.024 149.092 252.027 149.168 252.028 149.245C249.326 146.401 245.463 144.621 241.174 144.621C234.033 144.621 228.075 149.555 226.684 156.117C225.203 155.632 223.617 155.369 221.969 155.369C213.797 155.369 207.172 161.831 207.172 169.802C207.172 177.773 213.796 184.234 221.969 184.234C225.4 184.234 228.558 183.095 231.068 181.184C231.068 181.187 231.067 181.191 231.067 181.194C231.067 189.165 237.693 195.627 245.865 195.627C252.028 195.627 257.31 191.952 259.535 186.727C261.761 191.952 267.042 195.627 273.204 195.627C278.861 195.627 283.775 192.531 286.266 187.981C288.756 192.53 293.67 195.627 299.326 195.627C306.022 195.627 311.678 191.289 313.504 185.338C316.593 189.927 321.892 192.956 327.911 192.956C337.444 192.956 345.172 185.363 345.172 175.997C345.172 166.631 337.444 159.038 327.911 159.038C326.163 159.038 324.475 159.295 322.885 159.77C321.979 152.645 315.75 147.131 308.2 147.131C307.621 147.131 307.05 147.164 306.488 147.228C306.648 146.377 306.732 145.501 306.732 144.605C306.732 136.635 300.107 130.173 291.935 130.173Z" fill="white"/>
<path d="M291.935 130.173C285.562 130.173 280.131 134.102 278.048 139.611C275.334 136.532 271.312 134.582 266.822 134.582C258.65 134.582 252.024 141.044 252.024 149.015C252.024 149.092 252.027 149.168 252.028 149.245C249.326 146.401 245.463 144.621 241.174 144.621C234.033 144.621 228.075 149.555 226.684 156.117C225.203 155.632 223.617 155.369 221.969 155.369C213.797 155.369 207.172 161.831 207.172 169.802C207.172 177.773 213.796 184.234 221.969 184.234C225.4 184.234 228.558 183.095 231.068 181.184C231.068 181.187 231.067 181.191 231.067 181.194C231.067 189.165 237.693 195.627 245.865 195.627C252.028 195.627 257.31 191.952 259.535 186.727C261.761 191.952 267.042 195.627 273.204 195.627C278.861 195.627 283.775 192.531 286.266 187.981C288.756 192.53 293.67 195.627 299.326 195.627C306.022 195.627 311.678 191.289 313.504 185.338C316.593 189.927 321.892 192.956 327.911 192.956C337.444 192.956 345.172 185.363 345.172 175.997C345.172 166.631 337.444 159.038 327.911 159.038C326.163 159.038 324.475 159.295 322.885 159.77C321.979 152.645 315.75 147.131 308.2 147.131C307.621 147.131 307.05 147.164 306.488 147.228C306.648 146.377 306.732 145.501 306.732 144.605C306.732 136.635 300.107 130.173 291.935 130.173Z" fill="url(#paint1_linear_9524_832)" fill-opacity="0.2"/>
</g>
<defs>
<filter id="filter0_dfgn_9524_832" x="-0.00094986" y="2.67029e-05" width="180.346" height="107.8" filterUnits="userSpaceOnUse" color-interpolation-filters="sRGB">
<feFlood flood-opacity="0" result="BackgroundImageFix"/>
<feColorMatrix in="SourceAlpha" type="matrix" values="0 0 0 0 0 0 0 0 0 0 0 0 0 0 0 0 0 0 127 0" result="hardAlpha"/>
<feOffset dy="0.165478"/>
<feGaussianBlur stdDeviation="0.703279"/>
<feComposite in2="hardAlpha" operator="out"/>
<feColorMatrix type="matrix" values="0 0 0 0 0 0 0 0 0 0 0 0 0 0 0 0 0 0 0.25 0"/>
<feBlend mode="normal" in2="BackgroundImageFix" result="effect1_dropShadow_9524_832"/>
<feBlend mode="normal" in="SourceGraphic" in2="effect1_dropShadow_9524_832" result="shape"/>
<feGaussianBlur stdDeviation="10.5864" result="effect2_foregroundBlur_9524_832"/>
<feTurbulence type="fractalNoise" baseFrequency="0.79253977537155151 0.79253977537155151" numOctaves="3" seed="4610" />
<feDisplacementMap in="effect2_foregroundBlur_9524_832" scale="4.4678936004638672" xChannelSelector="R" yChannelSelector="G" result="displacedImage" width="100%" height="100%" />
<feMerge result="effect3_texture_9524_832">
<feMergeNode in="displacedImage"/>
</feMerge>
<feTurbulence type="fractalNoise" baseFrequency="48.344924926757812 48.344924926757812" stitchTiles="stitch" numOctaves="3" result="noise" seed="1707" />
<feColorMatrix in="noise" type="luminanceToAlpha" result="alphaNoise" />
<feComponentTransfer in="alphaNoise" result="coloredNoise1">
<feFuncA type="discrete" tableValues="1 1 1 1 1 1 1 1 1 1 1 1 1 1 1 1 1 1 1 1 1 1 1 1 1 1 1 1 1 1 1 1 1 1 1 1 1 1 1 1 1 1 1 1 1 1 1 1 1 1 1 0 0 0 0 0 0 0 0 0 0 0 0 0 0 0 0 0 0 0 0 0 0 0 0 0 0 0 0 0 0 0 0 0 0 0 0 0 0 0 0 0 0 0 0 0 0 0 0 0 "/>
</feComponentTransfer>
<feComposite operator="in" in2="effect3_texture_9524_832" in="coloredNoise1" result="noise1Clipped" />
<feFlood flood-color="rgba(255, 255, 255, 0.25)" result="color1Flood" />
<feComposite operator="in" in2="noise1Clipped" in="color1Flood" result="color1" />
<feMerge result="effect4_noise_9524_832">
<feMergeNode in="effect3_texture_9524_832" />
<feMergeNode in="color1" />
</feMerge>
</filter>
<filter id="filter1_dfgn_9524_832" x="185.999" y="109" width="180.346" height="107.8" filterUnits="userSpaceOnUse" color-interpolation-filters="sRGB">
<feFlood flood-opacity="0" result="BackgroundImageFix"/>
<feColorMatrix in="SourceAlpha" type="matrix" values="0 0 0 0 0 0 0 0 0 0 0 0 0 0 0 0 0 0 127 0" result="hardAlpha"/>
<feOffset dy="0.165478"/>
<feGaussianBlur stdDeviation="0.703279"/>
<feComposite in2="hardAlpha" operator="out"/>
<feColorMatrix type="matrix" values="0 0 0 0 0 0 0 0 0 0 0 0 0 0 0 0 0 0 0.25 0"/>
<feBlend mode="normal" in2="BackgroundImageFix" result="effect1_dropShadow_9524_832"/>
<feBlend mode="normal" in="SourceGraphic" in2="effect1_dropShadow_9524_832" result="shape"/>
<feGaussianBlur stdDeviation="10.5864" result="effect2_foregroundBlur_9524_832"/>
<feTurbulence type="fractalNoise" baseFrequency="0.79253977537155151 0.79253977537155151" numOctaves="3" seed="4610" />
<feDisplacementMap in="effect2_foregroundBlur_9524_832" scale="4.4678936004638672" xChannelSelector="R" yChannelSelector="G" result="displacedImage" width="100%" height="100%" />
<feMerge result="effect3_texture_9524_832">
<feMergeNode in="displacedImage"/>
</feMerge>
<feTurbulence type="fractalNoise" baseFrequency="48.344924926757812 48.344924926757812" stitchTiles="stitch" numOctaves="3" result="noise" seed="1707" />
<feColorMatrix in="noise" type="luminanceToAlpha" result="alphaNoise" />
<feComponentTransfer in="alphaNoise" result="coloredNoise1">
<feFuncA type="discrete" tableValues="1 1 1 1 1 1 1 1 1 1 1 1 1 1 1 1 1 1 1 1 1 1 1 1 1 1 1 1 1 1 1 1 1 1 1 1 1 1 1 1 1 1 1 1 1 1 1 1 1 1 1 0 0 0 0 0 0 0 0 0 0 0 0 0 0 0 0 0 0 0 0 0 0 0 0 0 0 0 0 0 0 0 0 0 0 0 0 0 0 0 0 0 0 0 0 0 0 0 0 0 "/>
</feComponentTransfer>
<feComposite operator="in" in2="effect3_texture_9524_832" in="coloredNoise1" result="noise1Clipped" />
<feFlood flood-color="rgba(255, 255, 255, 0.25)" result="color1Flood" />
<feComposite operator="in" in2="noise1Clipped" in="color1Flood" result="color1" />
<feMerge result="effect4_noise_9524_832">
<feMergeNode in="effect3_texture_9524_832" />
<feMergeNode in="color1" />
</feMerge>
</filter>
<linearGradient id="paint0_linear_9524_832" x1="90.1719" y1="21.1729" x2="90.1719" y2="86.627" gradientUnits="userSpaceOnUse">
<stop stop-color="#FFE64A" stop-opacity="0"/>
<stop offset="1" stop-color="#FFE64A"/>
</linearGradient>
<linearGradient id="paint1_linear_9524_832" x1="276.172" y1="130.173" x2="276.172" y2="195.627" gradientUnits="userSpaceOnUse">
<stop stop-color="#FFE64A" stop-opacity="0"/>
<stop offset="1" stop-color="#FFE64A"/>
</linearGradient>
</defs>
</svg>
