<svg width="448" height="240" viewBox="0 0 448 240" fill="none" xmlns="http://www.w3.org/2000/svg">
<g filter="url(#filter0_f_9364_397)">
<path d="M263.228 202.517C243.971 198.542 229.717 186.417 225.271 172.171C221.139 172.141 216.935 171.712 212.727 170.843C186.186 165.365 168.826 144.431 171.605 122.633C159.018 138.838 134.586 147.281 109.986 142.203C86.8566 137.428 70.0883 122.044 65.8479 104.114C46.3839 97.3353 34.868 79.9539 39.5826 62.8297C44.8085 43.8495 67.9942 32.3745 91.3694 37.1996C101.11 39.2101 109.344 43.7358 115.26 49.7022C115.332 49.6965 115.404 49.6917 115.477 49.6862C128.236 39.112 148.194 34.3199 168.417 38.4943C195.808 44.1485 214.196 64.291 212.323 85.136C219.941 83.796 228.073 83.8378 236.219 85.5193C259.459 90.3163 275.661 106.963 277.467 125.664C279.671 125.882 281.889 126.214 284.111 126.673C289.295 127.743 294.116 129.407 298.482 131.541C309.679 112.226 336.422 101.565 363.368 107.127C394.491 113.552 414.097 139.186 407.159 164.384C400.221 189.582 369.367 204.8 338.244 198.376C329.292 196.528 321.294 193.089 314.606 188.531C303.476 200.678 283.472 206.695 263.228 202.517Z" fill="url(#paint0_linear_9364_397)"/>
</g>
<defs>
<filter id="filter0_f_9364_397" x="7.57563" y="5.14594" width="431.931" height="229.644" filterUnits="userSpaceOnUse" color-interpolation-filters="sRGB">
<feFlood flood-opacity="0" result="BackgroundImageFix"/>
<feBlend mode="normal" in="SourceGraphic" in2="BackgroundImageFix" result="shape"/>
<feGaussianBlur stdDeviation="4.1269" result="effect1_foregroundBlur_9364_397"/>
</filter>
<linearGradient id="paint0_linear_9364_397" x1="217.782" y1="259.611" x2="259.342" y2="57.2763" gradientUnits="userSpaceOnUse">
<stop stop-color="white" stop-opacity="0"/>
<stop offset="1" stop-color="#C3E3FE"/>
</linearGradient>
</defs>
</svg>
