<svg width="397" height="613" viewBox="0 0 397 613" fill="none" xmlns="http://www.w3.org/2000/svg">
<g filter="url(#filter0_d_9803_424)">
<path d="M345.346 588.154C355.894 588.531 376.687 582.73 375.481 556.512V473.338C375.481 473.338 368.089 472.885 363.106 467.902C357.651 462.447 357.67 454.716 357.67 454.716H197.873V588.154H345.346Z" fill="url(#paint0_linear_9803_424)"/>
<path d="M50.935 588.154C40.3877 588.531 19.5946 582.73 20.8 556.512V473.338C20.8 473.338 28.1926 472.885 33.1755 467.902C38.6303 462.447 38.6115 454.716 38.6115 454.716H198.408V588.154H50.935Z" fill="url(#paint1_linear_9803_424)"/>
<path d="M375.589 48.0114C376.719 37.7153 372.199 17.123 345.077 17.123H197.98V455.12H357.777C357.777 455.12 357.546 448.153 363.213 442.486C367.29 438.409 375.589 437.503 375.589 437.503V48.0114Z" fill="white"/>
<path d="M20.9035 48.0114C19.7734 37.7153 24.2937 17.123 51.4152 17.123H198.512V455.12H38.715C38.715 455.12 38.946 448.153 33.279 442.486C29.2021 438.409 20.9035 437.503 20.9035 437.503V48.0114Z" fill="white"/>
</g>
<defs>
<filter id="filter0_d_9803_424" x="0.000869751" y="-0.000169039" width="396.49" height="612.542" filterUnits="userSpaceOnUse" color-interpolation-filters="sRGB">
<feFlood flood-opacity="0" result="BackgroundImageFix"/>
<feColorMatrix in="SourceAlpha" type="matrix" values="0 0 0 0 0 0 0 0 0 0 0 0 0 0 0 0 0 0 127 0" result="hardAlpha"/>
<feOffset dy="3.62396"/>
<feGaussianBlur stdDeviation="10.3736"/>
<feComposite in2="hardAlpha" operator="out"/>
<feColorMatrix type="matrix" values="0 0 0 0 0 0 0 0 0 0 0 0 0 0 0 0 0 0 0.25 0"/>
<feBlend mode="normal" in2="BackgroundImageFix" result="effect1_dropShadow_9803_424"/>
<feBlend mode="normal" in="SourceGraphic" in2="effect1_dropShadow_9803_424" result="shape"/>
</filter>
<linearGradient id="paint0_linear_9803_424" x1="286.702" y1="454.716" x2="286.702" y2="588.171" gradientUnits="userSpaceOnUse">
<stop stop-color="#FFEF88"/>
<stop offset="1" stop-color="white"/>
</linearGradient>
<linearGradient id="paint1_linear_9803_424" x1="109.579" y1="454.716" x2="109.579" y2="588.171" gradientUnits="userSpaceOnUse">
<stop stop-color="#FFEF88"/>
<stop offset="1" stop-color="white"/>
</linearGradient>
</defs>
</svg>
