<svg width="390" height="92" viewBox="0 0 390 92" fill="none" xmlns="http://www.w3.org/2000/svg">
<g filter="url(#filter0_dd_8997_2549)">
<rect x="19" y="12" width="351" height="52" rx="18" fill="white" shape-rendering="crispEdges"/>
<path d="M86.6812 48.0781H86.5757C85.5649 48.0781 84.7388 47.9155 84.0972 47.5903C83.4644 47.2563 82.9722 46.8037 82.6206 46.2324C82.2778 45.6611 82.0405 45.0063 81.9087 44.2681C81.7856 43.521 81.7241 42.73 81.7241 41.895C81.7241 41.5347 81.7329 41.1699 81.7505 40.8008L84.9673 40.8799C84.9761 41.4248 85.0244 41.8994 85.1123 42.3037C85.2002 42.708 85.354 43.0244 85.5737 43.2529C85.8022 43.4727 86.123 43.5825 86.5361 43.5825C86.9756 43.5474 87.3096 43.3408 87.5381 42.9629C87.793 42.541 87.9248 42.0576 87.9336 41.5127C87.9336 40.8447 87.8062 40.335 87.5513 39.9834C87.3052 39.6318 86.98 39.3638 86.5757 39.1792C86.1714 38.9858 85.7275 38.8232 85.2441 38.6914C84.6641 38.5332 84.0972 38.3179 83.5435 38.0454C82.9985 37.7642 82.5371 37.3247 82.1592 36.7271C81.79 36.1206 81.5747 35.2505 81.5132 34.1167L81.5 33.7871C81.5 32.873 81.645 32.082 81.9351 31.4141C82.2251 30.7461 82.6118 30.1924 83.0952 29.7529C83.5786 29.3135 84.1235 28.9883 84.73 28.7773C85.3364 28.5664 85.9692 28.4609 86.6284 28.4609C87.7798 28.4697 88.7114 28.6016 89.4233 28.8564C90.1353 29.1025 90.6758 29.4541 91.0449 29.9111C91.4229 30.3682 91.6777 30.9131 91.8096 31.5459C91.9414 32.1787 92.0073 32.8818 92.0073 33.6553C92.0073 34.1123 91.9941 34.5913 91.9678 35.0923L87.9468 35.0396V34.6045C87.9468 34.1826 87.9204 33.7388 87.8677 33.2729C87.8237 32.8071 87.7095 32.416 87.5249 32.0996C87.3403 31.7744 87.0459 31.6118 86.6416 31.6118C85.9736 31.6294 85.5034 31.8008 85.231 32.126C84.9585 32.4424 84.8223 32.8291 84.8223 33.2861C84.8223 33.6465 84.8838 34.0244 85.0068 34.4199C85.2266 35.0527 85.5957 35.5361 86.1143 35.8701C86.6416 36.2041 87.2305 36.4897 87.8809 36.7271C88.3643 36.9116 88.8389 37.1226 89.3047 37.3599C89.7705 37.5972 90.1968 37.9048 90.5835 38.2827C90.9702 38.6606 91.2778 39.1528 91.5063 39.7593C91.7437 40.3657 91.8623 41.1304 91.8623 42.0532L91.8491 42.5146C91.6997 46.1533 89.9771 48.0078 86.6812 48.0781ZM97.5972 48.1177L93.8267 48.1045L93.7607 28.9224C95.6592 28.5884 97.2061 28.4214 98.4014 28.4214C99.5088 28.4214 100.498 28.584 101.368 28.9092C102.238 29.2256 102.923 29.7925 103.424 30.6099C103.925 31.4272 104.185 32.561 104.202 34.0112V34.4331C104.202 35.4438 104.132 36.3711 103.991 37.2148C103.859 38.0498 103.565 38.7793 103.108 39.4033C102.66 40.0186 101.974 40.502 101.051 40.8535C100.128 41.1963 98.8979 41.3809 97.3599 41.4072L97.5972 48.1177ZM98.4409 36.6611C98.8716 36.6611 99.2275 36.5952 99.5088 36.4634C99.79 36.3315 99.9966 36.0767 100.128 35.6987C100.269 35.312 100.339 34.7319 100.339 33.9585C100.331 33.2642 100.256 32.7412 100.115 32.3896C99.9834 32.0293 99.7944 31.7876 99.5483 31.6646C99.3022 31.5327 99.0078 31.4668 98.665 31.4668C98.3662 31.4668 98.041 31.4932 97.6895 31.5459L96.938 31.6118L97.1094 36.5952C97.7949 36.6392 98.2388 36.6611 98.4409 36.6611ZM113.8 48.5791L105.85 48.4209L105.573 29.1992L114.564 29.1069L114.525 32.1392L109.251 32.2842L109.186 37.4653L111.954 37.5312L111.915 40.814L109.146 40.7612L109.093 43.688L113.76 43.5957L113.8 48.5791ZM118.625 48.7505L115.725 48.5659L115.514 29.4497L118.955 29.3311L121.868 35.8701L121.763 28.4609L125.836 28.3423L125.454 47.7881L122.026 47.6035L118.836 36.0811L118.625 48.7505ZM132.072 48.79C130.965 48.79 129.69 48.623 128.249 48.2891L127.827 29.1201L128.658 29.0542C129.589 28.9487 130.569 28.896 131.598 28.896C133.487 28.896 134.986 29.2124 136.093 29.8452C137.5 30.6538 138.277 32.0776 138.427 34.1167C138.541 35.7163 138.598 37.1797 138.598 38.5068C138.598 40.8359 138.392 42.7607 137.979 44.2812C137.574 45.793 136.897 46.9224 135.948 47.6694C134.999 48.4165 133.707 48.79 132.072 48.79ZM132.006 43.5562C133.096 43.5562 133.843 43.1606 134.248 42.3696C134.652 41.5786 134.854 40.1855 134.854 38.1904C134.854 37.4434 134.828 36.5952 134.775 35.646C134.731 34.6968 134.56 33.9761 134.261 33.4839C133.971 32.9917 133.615 32.6665 133.193 32.5083C132.771 32.3413 132.358 32.2578 131.954 32.2578C131.593 32.2578 131.268 32.2798 130.978 32.3237L130.662 32.3633L130.78 43.4507C131.237 43.521 131.646 43.5562 132.006 43.5562ZM143.885 48.6187L139.824 48.2891L141.037 29.3047L144.465 29.2783L143.885 48.6187ZM149.633 48.7505L146.732 48.5659L146.521 29.4497L149.962 29.3311L152.876 35.8701L152.771 28.4609L156.844 28.3423L156.462 47.7881L153.034 47.6035L149.844 36.0811L149.633 48.7505ZM164.24 48.7373C162.869 48.7373 161.823 48.5264 161.103 48.1045C160.382 47.6738 159.859 47.1113 159.534 46.417C159.217 45.7139 159.02 44.936 158.94 44.0835C158.861 43.231 158.822 42.3652 158.822 41.4863C158.822 41.1699 158.817 40.8623 158.809 40.5635C158.782 39.5264 158.769 38.5508 158.769 37.6367C158.769 36.6875 158.778 35.8438 158.795 35.1055V34.4858C158.813 32.4731 159.367 31.0098 160.457 30.0957C161.379 29.3311 162.592 28.9487 164.095 28.9487C165.15 28.9487 166.112 29.0938 166.982 29.3838C168.925 30.0518 169.918 31.7041 169.962 34.3408V35.3691H166.125L166.112 33.8398C166.077 33.2334 165.857 32.7852 165.453 32.4951C165.049 32.2051 164.605 32.0601 164.122 32.0601C163.673 32.0601 163.265 32.1831 162.896 32.4292C162.535 32.6665 162.342 33.0181 162.315 33.4839C162.263 35.6987 162.223 37.9224 162.197 40.1548C162.197 41.3677 162.293 42.229 162.487 42.7388C162.689 43.2485 162.931 43.5781 163.212 43.7275C163.502 43.877 163.792 43.9517 164.082 43.9517C164.583 43.9517 165 43.7275 165.334 43.2793C165.677 42.8311 165.849 42.3125 165.849 41.7236V41.605L163.911 41.5391L163.95 39.3638L169.975 39.5615L169.988 40.7744C169.988 41.7676 169.931 42.7344 169.817 43.6748C169.711 44.6152 169.47 45.4634 169.092 46.2192C168.714 46.9751 168.138 47.5771 167.365 48.0254C166.591 48.4736 165.55 48.7109 164.24 48.7373ZM184.978 48.5659L176.712 48.5527L176.501 29.3179L179.546 29.2783L179.81 43.7407L184.938 43.5825L184.978 48.5659ZM194.51 48.5791L186.56 48.4209L186.283 29.1992L195.274 29.1069L195.235 32.1392L189.961 32.2842L189.896 37.4653L192.664 37.5312L192.625 40.814L189.856 40.7612L189.803 43.688L194.47 43.5957L194.51 48.5791ZM205.399 48.5923L205.004 46.2588L200.218 46.1401L199.889 48.4209L195.512 48.3945L199.124 29.1729L204.925 29.0938L209.064 48.4341L205.399 48.5923ZM200.851 41.5918L204.134 41.2754L202.789 33.5234L201.985 33.4839L200.851 41.5918ZM213.758 48.79C212.65 48.79 211.376 48.623 209.935 48.2891L209.513 29.1201L210.343 29.0542C211.275 28.9487 212.255 28.896 213.283 28.896C215.173 28.896 216.671 29.2124 217.779 29.8452C219.185 30.6538 219.963 32.0776 220.112 34.1167C220.227 35.7163 220.284 37.1797 220.284 38.5068C220.284 40.8359 220.077 42.7607 219.664 44.2812C219.26 45.793 218.583 46.9224 217.634 47.6694C216.685 48.4165 215.393 48.79 213.758 48.79ZM213.692 43.5562C214.782 43.5562 215.529 43.1606 215.933 42.3696C216.337 41.5786 216.54 40.1855 216.54 38.1904C216.54 37.4434 216.513 36.5952 216.46 35.646C216.417 34.6968 216.245 33.9761 215.946 33.4839C215.656 32.9917 215.3 32.6665 214.878 32.5083C214.457 32.3413 214.043 32.2578 213.639 32.2578C213.279 32.2578 212.954 32.2798 212.664 32.3237L212.347 32.3633L212.466 43.4507C212.923 43.521 213.332 43.5562 213.692 43.5562ZM230.316 48.5791L222.367 48.4209L222.09 29.1992L231.081 29.1069L231.042 32.1392L225.768 32.2842L225.702 37.4653L228.471 37.5312L228.431 40.814L225.663 40.7612L225.61 43.688L230.277 43.5957L230.316 48.5791ZM242.959 48.8164L237.805 48.7769L236.737 42.3169C236.201 42.3696 235.766 42.396 235.432 42.396L235.643 48.1177L232.228 48.1045L232.162 28.9224C234.061 28.5884 235.581 28.4214 236.724 28.4214C237.796 28.4214 238.745 28.584 239.571 28.9092C240.397 29.2256 241.043 29.7925 241.509 30.6099C241.984 31.4272 242.23 32.561 242.248 34.0112V34.499C242.248 35.29 242.208 36.0635 242.129 36.8193C242.059 37.5664 241.905 38.2695 241.667 38.9287C241.43 39.5791 241.074 40.1548 240.6 40.6558L242.959 48.8164ZM235.656 37.5972C236.289 37.5972 236.807 37.4873 237.211 37.2676C237.616 37.0479 237.91 36.6743 238.095 36.147C238.288 35.6196 238.385 34.8901 238.385 33.9585C238.376 33.2642 238.301 32.7412 238.161 32.3896C238.029 32.0293 237.84 31.7876 237.594 31.6646C237.348 31.5327 237.053 31.4668 236.71 31.4668C236.412 31.4668 236.086 31.4932 235.735 31.5459L234.983 31.6118L235.181 37.584L235.656 37.5972ZM248.497 48.6714C247.6 48.6714 246.774 48.6187 246.018 48.5132C245.271 48.4077 244.687 48.2935 244.265 48.1704L243.975 29.3047L244.489 29.2651C245.754 29.1597 246.748 29.1069 247.468 29.1069C249.349 29.1069 250.852 29.3838 251.977 29.9375C253.418 30.6494 254.214 31.8887 254.363 33.6553C254.407 34.2002 254.429 34.6924 254.429 35.1318C254.429 35.7119 254.368 36.2261 254.245 36.6743C254.122 37.1226 253.897 37.5312 253.572 37.9004C253.247 38.2695 252.786 38.6167 252.188 38.9419C252.997 39.1001 253.629 39.4209 254.086 39.9043C254.904 40.7656 255.312 41.9873 255.312 43.5693V43.7671C255.312 46.4653 253.673 48.0605 250.395 48.5527C249.753 48.6318 249.121 48.6714 248.497 48.6714ZM248.404 37.1357C248.765 37.1357 249.112 37.0742 249.446 36.9512C249.78 36.8193 250.052 36.5732 250.263 36.2129C250.474 35.8438 250.58 35.3032 250.58 34.5913V34.3408C250.553 33.7432 250.426 33.2861 250.197 32.9697C249.978 32.6445 249.701 32.4248 249.367 32.3105C249.033 32.1875 248.694 32.126 248.352 32.126C247.895 32.126 247.495 32.1787 247.152 32.2842L247.323 37.0435H247.376C247.701 37.105 248.044 37.1357 248.404 37.1357ZM248.562 44.3604C250.004 44.3604 250.725 43.7539 250.725 42.541C250.707 41.7148 250.509 41.1348 250.131 40.8008C249.762 40.458 249.27 40.2866 248.655 40.2866C248.312 40.2866 247.938 40.3306 247.534 40.4185L247.64 44.2812C247.851 44.334 248.158 44.3604 248.562 44.3604ZM261.931 48.4868H261.812C260.335 48.4868 259.224 48.2495 258.477 47.7749C257.729 47.2915 257.22 46.6235 256.947 45.771C256.675 44.9097 256.534 43.9077 256.525 42.7651C256.49 40.8491 256.473 37.9663 256.473 34.1167C256.499 32.0864 257.057 30.6406 258.147 29.7793C259.061 29.0498 260.3 28.6851 261.865 28.6851C262.875 28.6851 263.864 28.8345 264.831 29.1333C265.807 29.4233 266.624 29.9595 267.283 30.7417C267.951 31.5239 268.298 32.6357 268.325 34.0771L268.338 35.5669C268.355 36.3491 268.364 37.2017 268.364 38.1245C268.364 40.7173 268.241 42.6421 267.995 43.8989C267.67 45.4194 266.98 46.562 265.925 47.3267C264.879 48.0825 263.548 48.4692 261.931 48.4868ZM261.944 43.2397C262.269 43.2397 262.577 43.1431 262.867 42.9497C263.166 42.7563 263.407 42.4751 263.592 42.106C263.776 41.728 263.869 41.2534 263.869 40.6821C263.851 39.7505 263.842 38.8496 263.842 37.9795V37.1226C263.842 35.9888 263.829 34.811 263.803 33.5894C263.776 33.0269 263.592 32.5962 263.249 32.2974C262.854 31.9722 262.401 31.8096 261.891 31.8096C261.425 31.8096 260.999 31.981 260.612 32.3237C260.234 32.6665 260.028 33.0796 259.993 33.563C259.958 35.4438 259.931 37.2764 259.914 39.0605L259.9 40.6162C259.9 41.8115 260.239 42.5981 260.916 42.9761C261.232 43.1519 261.575 43.2397 261.944 43.2397ZM278.489 48.5923L278.094 46.2588L273.308 46.1401L272.979 48.4209L268.602 48.3945L272.214 29.1729L278.015 29.0938L282.154 48.4341L278.489 48.5923ZM273.941 41.5918L277.224 41.2754L275.879 33.5234L275.075 33.4839L273.941 41.5918ZM293.69 48.8164L288.535 48.7769L287.467 42.3169C286.931 42.3696 286.496 42.396 286.162 42.396L286.373 48.1177L282.958 48.1045L282.893 28.9224C284.791 28.5884 286.312 28.4214 287.454 28.4214C288.526 28.4214 289.476 28.584 290.302 28.9092C291.128 29.2256 291.774 29.7925 292.24 30.6099C292.714 31.4272 292.96 32.561 292.978 34.0112V34.499C292.978 35.29 292.938 36.0635 292.859 36.8193C292.789 37.5664 292.635 38.2695 292.398 38.9287C292.161 39.5791 291.805 40.1548 291.33 40.6558L293.69 48.8164ZM286.386 37.5972C287.019 37.5972 287.538 37.4873 287.942 37.2676C288.346 37.0479 288.641 36.6743 288.825 36.147C289.019 35.6196 289.115 34.8901 289.115 33.9585C289.106 33.2642 289.032 32.7412 288.891 32.3896C288.759 32.0293 288.57 31.7876 288.324 31.6646C288.078 31.5327 287.784 31.4668 287.441 31.4668C287.142 31.4668 286.817 31.4932 286.465 31.5459L285.714 31.6118L285.912 37.584L286.386 37.5972ZM298.924 48.79C297.816 48.79 296.542 48.623 295.101 48.2891L294.679 29.1201L295.509 29.0542C296.441 28.9487 297.421 28.896 298.449 28.896C300.339 28.896 301.837 29.2124 302.945 29.8452C304.351 30.6538 305.129 32.0776 305.278 34.1167C305.393 35.7163 305.45 37.1797 305.45 38.5068C305.45 40.8359 305.243 42.7607 304.83 44.2812C304.426 45.793 303.749 46.9224 302.8 47.6694C301.851 48.4165 300.559 48.79 298.924 48.79ZM298.858 43.5562C299.948 43.5562 300.695 43.1606 301.099 42.3696C301.503 41.5786 301.706 40.1855 301.706 38.1904C301.706 37.4434 301.679 36.5952 301.626 35.646C301.583 34.6968 301.411 33.9761 301.112 33.4839C300.822 32.9917 300.466 32.6665 300.044 32.5083C299.623 32.3413 299.209 32.2578 298.805 32.2578C298.445 32.2578 298.12 32.2798 297.83 32.3237L297.513 32.3633L297.632 43.4507C298.089 43.521 298.498 43.5562 298.858 43.5562Z" fill="black"/>
</g>
<defs>
<filter id="filter0_dd_8997_2549" x="-1" y="0" width="391" height="92" filterUnits="userSpaceOnUse" color-interpolation-filters="sRGB">
<feFlood flood-opacity="0" result="BackgroundImageFix"/>
<feColorMatrix in="SourceAlpha" type="matrix" values="0 0 0 0 0 0 0 0 0 0 0 0 0 0 0 0 0 0 127 0" result="hardAlpha"/>
<feOffset dy="8"/>
<feGaussianBlur stdDeviation="10"/>
<feComposite in2="hardAlpha" operator="out"/>
<feColorMatrix type="matrix" values="0 0 0 0 0 0 0 0 0 0 0 0 0 0 0 0 0 0 0.1 0"/>
<feBlend mode="normal" in2="BackgroundImageFix" result="effect1_dropShadow_8997_2549"/>
<feColorMatrix in="SourceAlpha" type="matrix" values="0 0 0 0 0 0 0 0 0 0 0 0 0 0 0 0 0 0 127 0" result="hardAlpha"/>
<feOffset dy="4"/>
<feComposite in2="hardAlpha" operator="out"/>
<feColorMatrix type="matrix" values="0 0 0 0 0.551664 0 0 0 0 0.551664 0 0 0 0 0.551664 0 0 0 1 0"/>
<feBlend mode="normal" in2="effect1_dropShadow_8997_2549" result="effect2_dropShadow_8997_2549"/>
<feBlend mode="normal" in="SourceGraphic" in2="effect2_dropShadow_8997_2549" result="shape"/>
</filter>
</defs>
</svg>
