<svg width="390" height="92" viewBox="0 0 390 92" fill="none" xmlns="http://www.w3.org/2000/svg">
<g filter="url(#filter0_dd_8997_2550)">
<rect x="20" y="12" width="351" height="52" rx="18" fill="#FFE64A" shape-rendering="crispEdges"/>
<path d="M95.6812 48.0781H95.5757C94.5649 48.0781 93.7388 47.9155 93.0972 47.5903C92.4644 47.2563 91.9722 46.8037 91.6206 46.2324C91.2778 45.6611 91.0405 45.0063 90.9087 44.2681C90.7856 43.521 90.7241 42.73 90.7241 41.895C90.7241 41.5347 90.7329 41.1699 90.7505 40.8008L93.9673 40.8799C93.9761 41.4248 94.0244 41.8994 94.1123 42.3037C94.2002 42.708 94.354 43.0244 94.5737 43.2529C94.8022 43.4727 95.123 43.5825 95.5361 43.5825C95.9756 43.5474 96.3096 43.3408 96.5381 42.9629C96.793 42.541 96.9248 42.0576 96.9336 41.5127C96.9336 40.8447 96.8062 40.335 96.5513 39.9834C96.3052 39.6318 95.98 39.3638 95.5757 39.1792C95.1714 38.9858 94.7275 38.8232 94.2441 38.6914C93.6641 38.5332 93.0972 38.3179 92.5435 38.0454C91.9985 37.7642 91.5371 37.3247 91.1592 36.7271C90.79 36.1206 90.5747 35.2505 90.5132 34.1167L90.5 33.7871C90.5 32.873 90.645 32.082 90.9351 31.4141C91.2251 30.7461 91.6118 30.1924 92.0952 29.7529C92.5786 29.3135 93.1235 28.9883 93.73 28.7773C94.3364 28.5664 94.9692 28.4609 95.6284 28.4609C96.7798 28.4697 97.7114 28.6016 98.4233 28.8564C99.1353 29.1025 99.6758 29.4541 100.045 29.9111C100.423 30.3682 100.678 30.9131 100.81 31.5459C100.941 32.1787 101.007 32.8818 101.007 33.6553C101.007 34.1123 100.994 34.5913 100.968 35.0923L96.9468 35.0396V34.6045C96.9468 34.1826 96.9204 33.7388 96.8677 33.2729C96.8237 32.8071 96.7095 32.416 96.5249 32.0996C96.3403 31.7744 96.0459 31.6118 95.6416 31.6118C94.9736 31.6294 94.5034 31.8008 94.231 32.126C93.9585 32.4424 93.8223 32.8291 93.8223 33.2861C93.8223 33.6465 93.8838 34.0244 94.0068 34.4199C94.2266 35.0527 94.5957 35.5361 95.1143 35.8701C95.6416 36.2041 96.2305 36.4897 96.8809 36.7271C97.3643 36.9116 97.8389 37.1226 98.3047 37.3599C98.7705 37.5972 99.1968 37.9048 99.5835 38.2827C99.9702 38.6606 100.278 39.1528 100.506 39.7593C100.744 40.3657 100.862 41.1304 100.862 42.0532L100.849 42.5146C100.7 46.1533 98.9771 48.0078 95.6812 48.0781ZM107.467 49.0669C106.377 49.0669 105.507 48.7944 104.857 48.2495C103.723 47.3179 103.051 45.6743 102.84 43.3188C102.752 42.2642 102.708 41.2007 102.708 40.1284L102.813 28.7114L105.569 28.751C105.542 31.4756 105.529 34.71 105.529 38.4541C105.529 39.21 105.547 39.8779 105.582 40.458C105.617 41.0381 105.696 41.561 105.819 42.0269C105.951 42.4839 106.145 42.8486 106.399 43.1211C106.663 43.3936 107.023 43.5298 107.48 43.5298C107.92 43.5298 108.263 43.4023 108.509 43.1475C108.755 42.8838 108.935 42.5366 109.049 42.106C109.164 41.6753 109.238 41.1919 109.273 40.6558C109.309 40.1108 109.331 39.5527 109.339 38.9814L109.353 38.23C109.379 37.3247 109.392 36.3755 109.392 35.3823C109.392 33.5806 109.375 31.9546 109.339 30.5044L109.313 29.3047L113.453 29.2651V34.8154C113.453 37.8477 113.448 39.7549 113.439 40.5371C113.439 41.1611 113.404 41.8467 113.334 42.5938C113.176 44.3779 112.719 45.8281 111.963 46.9443C111.005 48.3594 109.506 49.0669 107.467 49.0669ZM120.229 48.6714C119.333 48.6714 118.506 48.6187 117.75 48.5132C117.003 48.4077 116.419 48.2935 115.997 48.1704L115.707 29.3047L116.221 29.2651C117.487 29.1597 118.48 29.1069 119.201 29.1069C121.082 29.1069 122.584 29.3838 123.709 29.9375C125.151 30.6494 125.946 31.8887 126.096 33.6553C126.14 34.2002 126.162 34.6924 126.162 35.1318C126.162 35.7119 126.1 36.2261 125.977 36.6743C125.854 37.1226 125.63 37.5312 125.305 37.9004C124.979 38.2695 124.518 38.6167 123.92 38.9419C124.729 39.1001 125.362 39.4209 125.819 39.9043C126.636 40.7656 127.045 41.9873 127.045 43.5693V43.7671C127.045 46.4653 125.406 48.0605 122.127 48.5527C121.486 48.6318 120.853 48.6714 120.229 48.6714ZM120.137 37.1357C120.497 37.1357 120.844 37.0742 121.178 36.9512C121.512 36.8193 121.785 36.5732 121.996 36.2129C122.207 35.8438 122.312 35.3032 122.312 34.5913V34.3408C122.286 33.7432 122.158 33.2861 121.93 32.9697C121.71 32.6445 121.433 32.4248 121.099 32.3105C120.765 32.1875 120.427 32.126 120.084 32.126C119.627 32.126 119.227 32.1787 118.884 32.2842L119.056 37.0435H119.108C119.434 37.105 119.776 37.1357 120.137 37.1357ZM120.295 44.3604C121.736 44.3604 122.457 43.7539 122.457 42.541C122.439 41.7148 122.242 41.1348 121.864 40.8008C121.495 40.458 121.002 40.2866 120.387 40.2866C120.044 40.2866 119.671 40.3306 119.267 40.4185L119.372 44.2812C119.583 44.334 119.891 44.3604 120.295 44.3604ZM144.961 49.5151L139.701 49.436L139.53 33.8003L137.13 46.2324L133.848 46.417L131.514 35.4351V48.3945L128.311 48.4077V29.5815L133.584 29.4761L135.746 39.1133L137.526 29.1069L144.302 29.2651L144.961 49.5151ZM150.354 48.6187L146.293 48.2891L147.506 29.3047L150.934 29.2783L150.354 48.6187ZM159.055 48.0781L155.97 47.9727L156.128 34.2881L152.568 34.5122L152.173 28.9224L162.496 28.8169L162.456 33.9189L158.804 34.1299L159.055 48.0781ZM178.145 48.1572L172.621 48.144L172.911 41.9214L169.021 28.7905L172.449 28.7114L175.099 38.2959L177.354 28.8301L182.021 28.8433L178.435 41.4336L178.145 48.1572ZM187.531 48.4868H187.413C185.936 48.4868 184.824 48.2495 184.077 47.7749C183.33 47.2915 182.82 46.6235 182.548 45.771C182.275 44.9097 182.135 43.9077 182.126 42.7651C182.091 40.8491 182.073 37.9663 182.073 34.1167C182.1 32.0864 182.658 30.6406 183.748 29.7793C184.662 29.0498 185.901 28.6851 187.465 28.6851C188.476 28.6851 189.465 28.8345 190.432 29.1333C191.407 29.4233 192.225 29.9595 192.884 30.7417C193.552 31.5239 193.899 32.6357 193.925 34.0771L193.938 35.5669C193.956 36.3491 193.965 37.2017 193.965 38.1245C193.965 40.7173 193.842 42.6421 193.596 43.8989C193.271 45.4194 192.581 46.562 191.526 47.3267C190.48 48.0825 189.148 48.4692 187.531 48.4868ZM187.544 43.2397C187.87 43.2397 188.177 43.1431 188.467 42.9497C188.766 42.7563 189.008 42.4751 189.192 42.106C189.377 41.728 189.469 41.2534 189.469 40.6821C189.452 39.7505 189.443 38.8496 189.443 37.9795V37.1226C189.443 35.9888 189.43 34.811 189.403 33.5894C189.377 33.0269 189.192 32.5962 188.85 32.2974C188.454 31.9722 188.001 31.8096 187.492 31.8096C187.026 31.8096 186.6 31.981 186.213 32.3237C185.835 32.6665 185.628 33.0796 185.593 33.563C185.558 35.4438 185.532 37.2764 185.514 39.0605L185.501 40.6162C185.501 41.8115 185.839 42.5981 186.516 42.9761C186.833 43.1519 187.175 43.2397 187.544 43.2397ZM200.754 49.0669C199.665 49.0669 198.794 48.7944 198.144 48.2495C197.01 47.3179 196.338 45.6743 196.127 43.3188C196.039 42.2642 195.995 41.2007 195.995 40.1284L196.101 28.7114L198.856 28.751C198.83 31.4756 198.816 34.71 198.816 38.4541C198.816 39.21 198.834 39.8779 198.869 40.458C198.904 41.0381 198.983 41.561 199.106 42.0269C199.238 42.4839 199.432 42.8486 199.687 43.1211C199.95 43.3936 200.311 43.5298 200.768 43.5298C201.207 43.5298 201.55 43.4023 201.796 43.1475C202.042 42.8838 202.222 42.5366 202.336 42.106C202.451 41.6753 202.525 41.1919 202.561 40.6558C202.596 40.1108 202.618 39.5527 202.626 38.9814L202.64 38.23C202.666 37.3247 202.679 36.3755 202.679 35.3823C202.679 33.5806 202.662 31.9546 202.626 30.5044L202.6 29.3047L206.74 29.2651V34.8154C206.74 37.8477 206.735 39.7549 206.727 40.5371C206.727 41.1611 206.691 41.8467 206.621 42.5938C206.463 44.3779 206.006 45.8281 205.25 46.9443C204.292 48.3594 202.793 49.0669 200.754 49.0669ZM220.002 48.8164L214.848 48.7769L213.78 42.3169C213.244 42.3696 212.809 42.396 212.475 42.396L212.686 48.1177L209.271 48.1045L209.205 28.9224C211.104 28.5884 212.624 28.4214 213.767 28.4214C214.839 28.4214 215.788 28.584 216.614 28.9092C217.44 29.2256 218.086 29.7925 218.552 30.6099C219.027 31.4272 219.273 32.561 219.291 34.0112V34.499C219.291 35.29 219.251 36.0635 219.172 36.8193C219.102 37.5664 218.948 38.2695 218.71 38.9287C218.473 39.5791 218.117 40.1548 217.643 40.6558L220.002 48.8164ZM212.699 37.5972C213.332 37.5972 213.85 37.4873 214.254 37.2676C214.659 37.0479 214.953 36.6743 215.138 36.147C215.331 35.6196 215.428 34.8901 215.428 33.9585C215.419 33.2642 215.344 32.7412 215.204 32.3896C215.072 32.0293 214.883 31.7876 214.637 31.6646C214.391 31.5327 214.096 31.4668 213.753 31.4668C213.455 31.4668 213.129 31.4932 212.778 31.5459L212.026 31.6118L212.224 37.584L212.699 37.5972ZM237.326 48.8164L232.171 48.7769L231.103 42.3169C230.567 42.3696 230.132 42.396 229.798 42.396L230.009 48.1177L226.594 48.1045L226.528 28.9224C228.427 28.5884 229.947 28.4214 231.09 28.4214C232.162 28.4214 233.111 28.584 233.938 28.9092C234.764 29.2256 235.41 29.7925 235.875 30.6099C236.35 31.4272 236.596 32.561 236.614 34.0112V34.499C236.614 35.29 236.574 36.0635 236.495 36.8193C236.425 37.5664 236.271 38.2695 236.034 38.9287C235.796 39.5791 235.44 40.1548 234.966 40.6558L237.326 48.8164ZM230.022 37.5972C230.655 37.5972 231.173 37.4873 231.578 37.2676C231.982 37.0479 232.276 36.6743 232.461 36.147C232.654 35.6196 232.751 34.8901 232.751 33.9585C232.742 33.2642 232.667 32.7412 232.527 32.3896C232.395 32.0293 232.206 31.7876 231.96 31.6646C231.714 31.5327 231.419 31.4668 231.077 31.4668C230.778 31.4668 230.453 31.4932 230.101 31.5459L229.35 31.6118L229.547 37.584L230.022 37.5972ZM246.594 48.5791L238.644 48.4209L238.367 29.1992L247.358 29.1069L247.319 32.1392L242.045 32.2842L241.979 37.4653L244.748 37.5312L244.708 40.814L241.94 40.7612L241.887 43.688L246.554 43.5957L246.594 48.5791ZM253.476 48.7373H253.37C252.069 48.7373 251.059 48.5264 250.338 48.1045C249.617 47.6738 249.094 47.1113 248.769 46.417C248.453 45.7139 248.255 44.936 248.176 44.0835C248.097 43.231 248.057 42.3652 248.057 41.4863L248.044 40.5635C248.018 39.5264 248.004 38.5508 248.004 37.6367L248.031 34.4858C248.057 32.4644 248.606 31.001 249.679 30.0957C250.602 29.3311 251.819 28.9487 253.331 28.9487H253.462C254.429 28.9487 255.343 29.0981 256.205 29.397C257.075 29.687 257.782 30.2231 258.327 31.0054C258.881 31.7788 259.171 32.8906 259.197 34.3408V35.3691H255.361L255.348 33.8398C255.312 33.2334 255.093 32.7852 254.688 32.4951C254.284 32.2051 253.84 32.0601 253.357 32.0601C252.909 32.0601 252.5 32.1831 252.131 32.4292C251.771 32.6665 251.577 33.0181 251.551 33.4839L251.511 35.3032C251.458 37.0786 251.432 38.6958 251.432 40.1548C251.441 40.7524 251.454 41.1963 251.472 41.4863C251.489 41.873 251.546 42.2378 251.643 42.5806C251.854 43.354 252.307 43.7407 253.001 43.7407H253.093C253.357 43.7407 253.607 43.6528 253.845 43.4771C254.082 43.3013 254.275 42.9673 254.425 42.4751C254.583 41.9741 254.662 41.2271 254.662 40.2339V40.0098L259.21 39.9175C259.219 40.2778 259.224 40.6426 259.224 41.0117C259.224 41.9785 259.158 42.9189 259.026 43.833C258.894 44.7471 258.63 45.5732 258.235 46.3115C257.839 47.041 257.255 47.6255 256.481 48.0649C255.717 48.4956 254.715 48.7197 253.476 48.7373ZM269.085 48.5791L261.135 48.4209L260.858 29.1992L269.85 29.1069L269.81 32.1392L264.537 32.2842L264.471 37.4653L267.239 37.5312L267.2 40.814L264.431 40.7612L264.378 43.688L269.045 43.5957L269.085 48.5791ZM274.701 48.6187L270.641 48.2891L271.854 29.3047L275.281 29.2783L274.701 48.6187ZM281.333 48.1177L277.562 48.1045L277.496 28.9224C279.395 28.5884 280.941 28.4214 282.137 28.4214C283.244 28.4214 284.233 28.584 285.103 28.9092C285.973 29.2256 286.659 29.7925 287.16 30.6099C287.661 31.4272 287.92 32.561 287.938 34.0112V34.4331C287.938 35.4438 287.867 36.3711 287.727 37.2148C287.595 38.0498 287.3 38.7793 286.843 39.4033C286.395 40.0186 285.709 40.502 284.787 40.8535C283.864 41.1963 282.633 41.3809 281.095 41.4072L281.333 48.1177ZM282.176 36.6611C282.607 36.6611 282.963 36.5952 283.244 36.4634C283.525 36.3315 283.732 36.0767 283.864 35.6987C284.004 35.312 284.075 34.7319 284.075 33.9585C284.066 33.2642 283.991 32.7412 283.851 32.3896C283.719 32.0293 283.53 31.7876 283.284 31.6646C283.038 31.5327 282.743 31.4668 282.4 31.4668C282.102 31.4668 281.776 31.4932 281.425 31.5459L280.673 31.6118L280.845 36.5952C281.53 36.6392 281.974 36.6611 282.176 36.6611ZM295.637 48.0781L292.552 47.9727L292.71 34.2881L289.15 34.5122L288.755 28.9224L299.078 28.8169L299.038 33.9189L295.386 34.1299L295.637 48.0781Z" fill="black"/>
</g>
<defs>
<filter id="filter0_dd_8997_2550" x="0" y="0" width="391" height="92" filterUnits="userSpaceOnUse" color-interpolation-filters="sRGB">
<feFlood flood-opacity="0" result="BackgroundImageFix"/>
<feColorMatrix in="SourceAlpha" type="matrix" values="0 0 0 0 0 0 0 0 0 0 0 0 0 0 0 0 0 0 127 0" result="hardAlpha"/>
<feOffset dy="8"/>
<feGaussianBlur stdDeviation="10"/>
<feComposite in2="hardAlpha" operator="out"/>
<feColorMatrix type="matrix" values="0 0 0 0 0 0 0 0 0 0 0 0 0 0 0 0 0 0 0.1 0"/>
<feBlend mode="normal" in2="BackgroundImageFix" result="effect1_dropShadow_8997_2550"/>
<feColorMatrix in="SourceAlpha" type="matrix" values="0 0 0 0 0 0 0 0 0 0 0 0 0 0 0 0 0 0 127 0" result="hardAlpha"/>
<feOffset dy="4"/>
<feComposite in2="hardAlpha" operator="out"/>
<feColorMatrix type="matrix" values="0 0 0 0 0.551664 0 0 0 0 0.551664 0 0 0 0 0.551664 0 0 0 1 0"/>
<feBlend mode="normal" in2="effect1_dropShadow_8997_2550" result="effect2_dropShadow_8997_2550"/>
<feBlend mode="normal" in="SourceGraphic" in2="effect2_dropShadow_8997_2550" result="shape"/>
</filter>
</defs>
</svg>
