<svg width="686" height="261" viewBox="0 0 686 261" fill="none" xmlns="http://www.w3.org/2000/svg">
<path d="M191.283 42.4184C164.17 38.832 153.569 72.4419 147.038 87.5832C150.01 93.2175 157.468 105.531 162.78 112.313C166.964 117.656 174.208 123.346 176.11 124.595C178.013 125.843 181.087 126.573 182.913 126.47C184.739 126.366 184.637 125.693 184.809 125.382C184.981 125.071 184.863 124.098 183.867 123.25C182.871 122.402 183.148 121.708 183.265 121.551C183.383 121.394 183.924 120.911 185.141 121.218C186.359 121.526 187.343 123.279 188.692 124.785C190.04 126.291 191.313 126.445 191.888 126.563C192.463 126.681 193.966 126.445 193.603 124.507C193.24 122.568 190.18 122.063 188.406 119.752C186.987 117.903 186.401 114.842 186.285 113.542C187.254 112.809 187.295 111.299 187.274 110.924C187.252 110.548 187.136 108.506 185.092 106.978C183.607 105.869 178.638 102.864 177.326 102.094C178.197 102.539 180.509 103.561 181.706 104.08C182.635 104.505 184.567 104.852 184.857 102.846C185.22 100.339 180.962 98.7717 181.269 98.6036C181.514 98.4691 182.222 98.7002 182.545 98.8326C181.692 93.8319 176.628 91.406 173.944 89.7496C170.624 87.7008 165.185 86.7799 165.185 86.7799C165.185 86.7799 168.828 86.4225 171.376 85.6751C173.414 85.0771 174.714 84.0287 175.11 83.5792C175.648 83.0462 176.625 82.0011 176.409 80.8678C176.253 80.0477 172.703 79.7467 170.905 79.5975C176.206 79.5228 178.549 79.6913 179.568 78.6538C180.643 77.5593 181.649 75.7734 181.475 74.4008C181.361 73.5029 179.278 73.5457 178.141 73.5348C180.21 73.2667 181.776 73.0272 182.984 72.0543C184.327 70.973 184.434 68.6561 184.097 68.2984C183.691 67.8661 182.33 68.3233 181.188 68.2373C188.806 66.6748 187.833 62.8865 186.321 61.8419C190.496 59.721 189.502 53.153 188.808 54.466C188.114 55.779 186.957 56.3546 186.77 56.3904C191.913 49.9491 191.922 44.3919 191.283 42.4184Z" fill="url(#paint0_linear_9097_427)"/>
<path d="M181.234 98.6066C181.479 98.4721 182.187 98.7033 182.51 98.8357C181.653 93.7522 176.382 91.0367 174.111 89.9598C172.45 93.2946 162.379 102.533 156.868 103.976C157.689 105.127 161.991 111.353 162.745 112.316C166.929 117.659 174.173 123.349 176.076 124.598C177.978 125.846 181.052 126.576 182.878 126.473C184.704 126.369 184.602 125.696 184.774 125.385C184.946 125.074 184.828 124.101 183.832 123.253C182.837 122.405 183.113 121.711 183.23 121.554C183.348 121.397 183.889 120.914 185.107 121.222C186.324 121.529 187.308 123.282 188.657 124.788C190.006 126.294 191.278 126.448 191.853 126.566C192.428 126.684 193.931 126.448 193.568 124.51C193.206 122.571 190.145 122.066 188.371 119.755C186.953 117.906 186.366 114.845 186.25 113.545C187.219 112.812 187.26 111.302 187.239 110.927C187.217 110.551 187.102 108.509 185.057 106.981C183.573 105.872 178.603 102.867 177.292 102.097C178.162 102.542 180.474 103.564 181.671 104.083C182.6 104.508 184.532 104.855 184.822 102.849C185.185 100.342 180.927 98.7747 181.234 98.6066Z" fill="url(#paint1_linear_9097_427)"/>
<g filter="url(#filter0_d_9097_427)">
<path d="M174.956 101.443C173.527 99.4139 167.902 95.0856 165.268 93.1752C167.299 94.5169 171.862 97.368 173.871 98.0378C176.382 98.875 180.169 98.8109 177.253 96.4141C168.855 89.1132 161.062 87.8119 158.216 88.0739C160.974 96.7347 167.584 100.7 170.699 102.137C173.611 103.479 176.742 103.979 174.956 101.443Z" fill="url(#paint2_linear_9097_427)"/>
<path d="M178.245 52.8069C180.201 50.9123 182.888 47.3586 177.989 48.2997C165.662 51.6152 158.488 66.8386 155.257 78.4528C154.17 82.3617 153.529 85.8619 153.289 88.3615C153.202 91.9617 156.334 98.0268 158.971 102.476C159.156 102.795 159.336 103.096 159.511 103.376C160.098 104.344 160.646 105.212 161.108 105.929C164.816 112.275 173.475 120.149 175.974 121.892C178.524 123.669 180.644 124.038 178.022 121.248C175.4 118.458 169.309 109.534 167.894 107.504C166.175 105.039 164.16 100.707 162.942 99.2689C161.723 97.8308 160.857 97.0509 159.008 94.5181C157.159 91.9854 155.133 86.2975 159.469 85.9008C162.938 85.5834 164.692 85.5532 166.541 84.7459C171.105 82.7537 170.671 80.7435 169.886 80.2606C169.257 79.8742 165.678 80.3234 163.967 80.5963C165.833 80.0885 169.94 78.7653 171.436 77.5349C173.307 75.9969 176.005 73.4323 173.762 72.8813C171.52 72.3302 167.246 74.4568 166.652 74.4904C166.526 74.4976 167.231 73.9571 167.832 73.6607C169.191 73.1131 170.952 72.5358 172.313 71.833C174.794 70.5528 179.277 65.409 178.616 63.7886C176.792 60.2297 165.228 68.3162 164.024 69.3642C162.132 70.5266 156.279 79.8175 156.934 79.1113C159.166 77.4774 165.156 74.7395 167.832 73.6607C167.231 73.9571 166.526 74.4976 166.652 74.4904C165.167 75.0268 161.071 76.9925 156.425 82.3807C152.051 87.4519 156.017 97.3642 158.971 102.476C156.334 98.0268 153.202 91.9617 153.289 88.3615C153.529 85.8619 154.17 82.3617 155.257 78.4528C157.961 72.6322 162.223 67.1713 164.068 65.2077C162.516 67.1797 161.686 69.8137 164.875 67.658C167.309 66.0127 177.535 61.4377 179.679 60.2616C181.458 59.2861 184.27 54.3166 182.73 53.9089C177.855 52.6179 168.125 61.0074 164.068 65.2077C165.217 63.1831 173.903 56.0676 178.245 52.8069Z" fill="url(#paint3_linear_9097_427)"/>
</g>
<g filter="url(#filter1_d_9097_427)">
<path d="M174.193 105.25C171.346 103.629 168.035 102.051 166.387 101.412C165.613 101.102 165.673 102.208 167.156 104.545C168.649 106.896 174.039 113.162 175.227 114.321C176.414 115.479 177.721 116.483 178.776 116.141C179.621 115.867 179.071 114.724 178.69 114.186C178.415 113.67 178.138 113.107 178.438 112.765C178.828 112.324 180.76 115.311 181.387 113.78C182.014 112.25 180.086 109.918 178.236 108.18C177.236 107.24 175.882 106.212 174.193 105.25Z" fill="url(#paint4_linear_9097_427)"/>
</g>
<path d="M105.101 46.8484C131.635 40.2185 145.969 72.4139 154.171 86.7193C151.855 92.6537 145.838 105.731 141.327 113.071C137.774 118.853 131.22 125.326 129.471 126.781C127.722 128.237 124.75 129.31 122.924 129.413C121.098 129.517 121.123 128.837 120.917 128.548C120.711 128.258 120.719 127.278 121.612 126.323C122.505 125.368 122.152 124.71 122.018 124.566C121.883 124.423 121.291 124.005 120.116 124.448C118.941 124.892 118.162 126.745 116.992 128.394C115.822 130.042 114.576 130.339 114.017 130.522C113.459 130.704 111.939 130.64 112.081 128.672C112.222 126.705 115.206 125.857 116.706 123.36C117.907 121.363 118.143 118.255 118.111 116.95C117.066 116.331 116.854 114.836 116.833 114.461C116.812 114.085 116.696 112.043 118.555 110.293C119.904 109.024 124.502 105.476 125.718 104.563C124.903 105.103 122.722 106.38 121.591 107.031C120.716 107.558 118.836 108.122 118.321 106.162C117.676 103.711 121.73 101.673 121.406 101.54C121.148 101.434 120.47 101.744 120.164 101.912C120.446 96.8472 125.203 93.8642 127.682 91.9149C130.749 89.5037 136.05 87.9735 136.05 87.9735C136.05 87.9735 132.389 88.0305 129.774 87.576C127.681 87.2124 126.27 86.3177 125.826 85.9159C125.231 85.4472 124.142 84.5192 124.229 83.3688C124.291 82.5363 127.784 81.8357 129.554 81.4841C124.278 82.0095 121.969 82.4419 120.839 81.5263C119.648 80.5604 118.446 78.8997 118.464 77.5162C118.476 76.6112 120.55 76.4182 121.679 76.2787C119.592 76.2464 118.01 76.1854 116.699 75.3554C115.243 74.4329 114.875 72.143 115.168 71.7496C115.523 71.2742 116.927 71.5744 118.052 71.3599C110.306 70.6689 110.844 66.7949 112.229 65.586C107.84 63.9509 108.085 57.3126 108.923 58.5387C109.761 59.7649 110.976 60.2059 111.166 60.2202C105.328 54.4019 104.69 48.8814 105.101 46.8484Z" fill="url(#paint5_linear_9097_427)"/>
<path d="M121.442 101.541C121.184 101.435 120.506 101.744 120.2 101.913C120.476 96.7648 125.406 93.4707 127.542 92.1437C129.569 95.2693 140.62 103.309 146.259 104.119C145.573 105.356 142.003 112.029 141.363 113.071C137.81 118.853 131.256 125.326 129.507 126.782C127.758 128.237 124.786 129.31 122.96 129.414C121.134 129.517 121.159 128.838 120.953 128.548C120.747 128.258 120.755 127.278 121.648 126.323C122.541 125.368 122.188 124.71 122.054 124.567C121.919 124.424 121.327 124.005 120.152 124.448C118.977 124.892 118.198 126.745 117.028 128.394C115.858 130.043 114.611 130.34 114.053 130.522C113.495 130.704 111.975 130.64 112.116 128.672C112.258 126.705 115.242 125.857 116.742 123.361C117.943 121.363 118.179 118.255 118.147 116.951C117.102 116.332 116.89 114.836 116.869 114.461C116.848 114.085 116.732 112.043 118.591 110.294C119.94 109.024 124.538 105.477 125.754 104.563C124.939 105.103 122.758 106.38 121.627 107.032C120.752 107.559 118.872 108.122 118.357 106.162C117.712 103.712 121.766 101.673 121.442 101.541Z" fill="url(#paint6_linear_9097_427)"/>
<g filter="url(#filter2_d_9097_427)">
<path d="M127.996 103.649C129.186 101.471 134.286 96.5346 136.686 94.3385C134.82 95.9013 130.609 99.2501 128.689 100.143C126.288 101.259 122.519 101.623 125.145 98.9121C132.664 90.7082 140.259 88.5339 143.117 88.4723C141.356 97.3895 135.237 102.077 132.304 103.857C129.562 105.519 126.508 106.371 127.996 103.649Z" fill="url(#paint7_linear_9097_427)"/>
<path d="M119.222 55.6983C117.064 54.0372 113.992 50.8101 118.966 51.1911C131.589 53.0913 140.438 67.4056 144.962 78.5799C146.485 82.3408 147.517 85.746 148.038 88.2024C148.532 91.7697 146.106 98.15 143.989 102.869C143.842 103.207 143.696 103.526 143.555 103.824C143.08 104.853 142.634 105.777 142.256 106.542C139.289 113.267 131.577 122.069 129.291 124.083C126.959 126.137 124.894 126.744 127.183 123.675C129.472 120.606 134.515 111.051 135.692 108.874C137.122 106.23 138.633 101.698 139.681 100.131C140.729 98.5648 141.501 97.692 143.052 94.9664C144.603 92.2407 145.973 86.3601 141.62 86.4564C138.137 86.5334 136.391 86.7018 134.462 86.1088C129.703 84.6455 129.906 82.5992 130.632 82.0305C131.213 81.5755 134.82 81.6171 136.551 81.6947C134.639 81.4012 130.409 80.551 128.783 79.4977C126.75 78.1812 123.78 75.9381 125.945 75.137C128.111 74.3359 132.599 75.9653 133.192 75.9317C133.318 75.9245 132.557 75.4672 131.926 75.2408C130.514 74.8503 128.699 74.4758 127.267 73.9316C124.657 72.9401 119.621 68.3364 120.095 66.6516C121.504 62.9093 133.908 69.636 135.223 70.5411C137.235 71.4821 144.101 80.0515 143.37 79.4238C140.968 78.0528 134.707 76.0099 131.926 75.2408C132.557 75.4672 133.318 75.9245 133.192 75.9317C134.729 76.2967 139.02 77.7865 144.246 82.6146C149.165 87.1587 146.346 97.4559 143.989 102.869C146.106 98.15 148.532 91.7697 148.038 88.2024C147.517 85.746 146.485 82.3408 144.962 78.5799C141.617 73.1024 136.765 68.1585 134.71 66.4162C136.475 68.2001 137.597 70.7234 134.185 68.942C131.581 67.5825 120.903 64.1935 118.64 63.2675C116.762 62.4993 113.406 57.8798 114.89 57.3005C119.587 55.4665 130.203 62.7018 134.71 66.4162C133.34 64.5345 123.904 58.4471 119.222 55.6983Z" fill="url(#paint8_linear_9097_427)"/>
</g>
<g filter="url(#filter3_d_9097_427)">
<path d="M129.173 107.347C131.818 105.414 134.929 103.472 136.495 102.651C137.228 102.256 137.294 103.361 136.084 105.85C134.867 108.356 130.22 115.191 129.171 116.476C128.123 117.762 126.938 118.907 125.85 118.686C124.98 118.51 125.398 117.312 125.715 116.735C125.93 116.19 126.142 115.599 125.804 115.294C125.367 114.9 123.785 118.086 122.989 116.636C122.193 115.187 123.846 112.652 125.487 110.716C126.375 109.669 127.604 108.494 129.173 107.347Z" fill="url(#paint9_linear_9097_427)"/>
</g>
<g filter="url(#filter4_d_9097_427)">
<g filter="url(#filter5_d_9097_427)">
<path d="M105.186 135.559C103.377 126.748 103.065 122.076 104.314 114.37C98.2857 115.671 93.4502 116.918 85.1698 124.443C81.8616 126.513 79.1415 128.892 73.2455 130.129C73.3749 126.403 72.8076 124.469 71.2902 121.145C69.0404 115.964 66.977 113.508 62.4884 109.569C58.1519 105.388 56.3002 102.93 54.3599 98.2963C52.5328 91.4218 56.4762 88.7027 61.6215 88.4911C66.7668 88.2795 73.4753 90.6793 81.9472 94.2876C90.7597 97.3867 95.4329 98.3122 103.788 98.3637L102.976 78.6103C91.3415 80.5841 86.3294 81.6179 73.0275 79.842C59.7255 78.066 54.7222 76.2811 53.5305 65.2786C52.3389 54.2761 58.2726 47.9969 67.5987 47.4556C76.9249 46.9144 81.278 52.3095 86.9365 61.3623C92.5949 70.415 98.0634 68.4214 102.549 68.2369C100.098 55.0252 99.3845 48.3022 101.374 39.6552L36.5957 42.3193C40.1257 44.6061 45.3576 136.472 40.5398 138.217L105.186 135.559Z" fill="white"/>
</g>
<g filter="url(#filter6_d_9097_427)">
<path d="M683.864 153.438C682.421 144.258 682.301 139.417 683.864 131.508C677.794 132.595 672.916 133.678 664.342 141.102C660.955 143.1 658.143 145.442 652.207 146.47C652.489 142.625 652.002 140.603 650.624 137.105C648.591 131.656 646.632 129.03 642.314 124.769C638.157 120.265 636.41 117.647 634.663 112.777C633.122 105.596 637.17 102.954 642.314 102.954C647.458 102.954 654.056 105.719 662.364 109.807C671.032 113.384 675.659 114.538 683.996 114.947V94.502C672.303 96.047 667.258 96.9022 654.054 94.502C640.85 92.1017 635.929 90.0448 635.191 78.6259C634.453 67.207 640.634 60.9711 649.965 60.8081C659.295 60.6452 663.419 66.4047 668.695 75.9989C673.971 85.5931 679.511 83.7656 683.996 83.7656C682.093 70.0105 681.656 63.0336 683.996 54.1836H619.23C622.66 56.6964 624.111 151.839 619.23 153.438H683.864Z" fill="white"/>
</g>
<g filter="url(#filter7_d_9097_427)">
<path d="M233.193 131.058H193.383C195.131 129.448 196.396 127.217 197.178 124.365C198.006 121.513 198.512 118.57 198.696 115.534C198.88 112.452 198.972 109.968 198.972 108.083V58.1311C198.972 54.4054 198.88 51.0937 198.696 48.1959C198.512 45.2982 198.006 42.7684 197.178 40.6066C196.396 38.3988 195.131 36.559 193.383 35.0871H244.094C251.131 35.1791 256.674 36.398 260.721 38.7438C264.815 41.0896 267.713 44.1253 269.415 47.851C271.116 51.5766 271.967 55.4863 271.967 59.5799C271.967 65.0074 270.978 69.3541 269.001 72.6198C267.023 75.8855 264.401 78.4153 261.135 80.2091C257.916 81.957 254.328 83.2448 250.372 84.0728C246.463 84.9007 242.53 85.5676 238.574 86.0736C234.895 86.5795 231.445 87.1775 228.225 87.8674C225.052 88.5114 222.338 89.5233 220.084 90.9032C217.186 92.743 215.737 94.9968 215.737 97.6646C215.829 99.7804 216.473 101.827 217.669 103.805C218.865 105.737 220.268 107.692 221.878 109.67C223.396 111.509 224.776 113.418 226.017 115.396C227.305 117.328 228.202 119.421 228.708 121.674C229.398 125.768 230.893 128.896 233.193 131.058ZM209.735 88.7643C211.345 86.1886 213.622 84.0958 216.565 82.4859C219.555 80.876 222.775 79.4042 226.224 78.0703C228.708 77.1044 231.123 76.0695 233.469 74.9656C235.815 73.8617 237.93 72.5738 239.816 71.1019C241.748 69.584 243.289 67.7672 244.439 65.6514C245.589 63.4896 246.164 60.8908 246.164 57.8551C246.164 54.3134 245.083 51.4156 242.921 49.1618C240.805 46.908 237.677 45.7351 233.538 45.6432C231.1 45.6432 228.915 46.2641 226.983 47.506C225.098 48.7019 223.396 50.2198 221.878 52.0596C220.36 53.8994 218.934 55.7623 217.6 57.6481L215.737 60.2009C213.852 62.7766 212.472 65.4214 211.598 68.1352C210.77 70.8489 210.241 73.8617 210.011 77.1734C209.827 80.4851 209.735 84.3487 209.735 88.7643Z" fill="white"/>
</g>
<g filter="url(#filter8_d_9097_427)">
<path d="M386.585 57.043C379.143 57.043 374.319 59.9373 374.319 65.588C374.319 77.4408 407.81 85.4345 407.81 106.797C407.81 124.438 391.547 135.464 365.085 135.464C352.13 135.464 348.822 133.81 336.969 133.81C340.139 122.233 340.69 116.996 337.52 105.419C341.793 112.448 350.476 115.618 357.505 115.618C365.223 115.618 369.633 112.172 369.633 108.037C369.633 95.4956 338.761 89.4314 338.761 66.6906C338.761 48.7737 352.267 37.1966 378.316 37.1966C391.271 37.1966 394.579 38.9882 406.432 38.9882C403.262 50.4275 402.848 55.6648 405.88 67.2419C401.47 60.3508 394.303 57.043 386.585 57.043Z" fill="white"/>
</g>
<g filter="url(#filter9_d_9097_427)">
<path d="M478.987 151.31C469.255 151.31 461.525 149.695 455.795 146.467C450.065 143.192 445.95 138.486 443.449 132.347C440.993 126.208 439.765 118.818 439.765 110.178C439.765 106.586 439.788 103.812 439.833 101.856C439.879 99.9011 439.902 96.968 439.902 93.0572C439.902 72.9122 437.901 59.2018 433.899 51.9259L475.03 51.9941C474.576 56.8144 473.484 61.2026 471.756 65.1589C470.074 69.0696 468.209 72.7758 466.163 76.2773C464.799 78.5965 463.548 80.9157 462.411 83.2348C461.274 85.554 460.342 87.9414 459.615 90.397C458.887 92.8071 458.523 95.3537 458.523 98.0367C458.705 103.539 460.774 107.677 464.73 110.451C468.687 113.18 473.416 114.544 478.918 114.544C484.648 114.544 489.446 113.18 493.311 110.451C497.222 107.677 499.268 103.539 499.45 98.0367C499.45 95.3537 499.086 92.8071 498.359 90.397C497.631 87.9414 496.676 85.554 495.494 83.2348C494.357 80.9157 493.129 78.5737 491.81 76.2091C489.764 72.7076 487.877 69.0014 486.149 65.0907C484.466 61.1344 483.375 56.7689 482.875 51.9941L524.074 51.9259C520.072 59.2018 518.072 72.9122 518.072 93.0572L518.14 100.833C518.185 102.743 518.208 105.858 518.208 110.178C518.208 118.818 516.958 126.208 514.456 132.347C512.001 138.486 507.908 143.192 502.178 146.467C496.449 149.695 488.718 151.31 478.987 151.31Z" fill="white"/>
</g>
<g filter="url(#filter10_d_9097_427)">
<path d="M572.607 81.4241C575.295 81.602 577.564 80.9471 579.415 79.4594C581.313 77.9748 582.793 76.0127 583.854 73.5729C584.965 71.089 585.61 68.5033 585.788 65.8156C585.963 63.175 585.704 60.6478 585.011 58.234C584.319 55.8202 583.172 53.8263 581.571 52.2522C579.973 50.6309 577.878 49.7345 575.285 49.5628C570.711 49.26 566.716 49.8717 563.3 51.3979C559.934 52.88 557.291 54.8836 555.372 57.4087C553.452 59.9338 552.4 62.5873 552.216 65.3693C551.954 69.3302 553.45 72.8391 556.705 75.8961C559.963 78.9059 565.264 80.7486 572.607 81.4241ZM609.849 135.89L575.97 133.647C576.897 131.814 577.433 129.79 577.58 127.573C577.836 123.707 577.186 119.567 575.631 115.155C574.076 110.742 572.126 106.587 569.779 102.691C567.435 98.7468 565.092 95.5133 562.749 92.9903C560.409 90.4201 558.555 89.0897 557.188 88.9992C556.197 88.9336 555.144 89.1007 554.029 89.5005C552.963 89.8562 552.017 90.5513 551.191 91.5859C550.415 92.5764 549.965 94.0148 549.84 95.9009C549.75 97.2683 550.087 98.9719 550.851 101.012C551.667 103.007 552.655 105.251 553.816 107.743C555.027 110.192 556.182 112.778 557.28 115.503C558.426 118.231 559.353 121.039 560.061 123.927C560.77 126.816 561.028 129.722 560.834 132.645L524.692 130.253C526.583 128.863 528.027 127.088 529.022 124.928C530.018 122.768 530.708 120.208 531.093 117.25C531.479 114.292 531.798 110.903 532.05 107.084L535.44 55.8763C535.571 53.8959 535.645 51.3434 535.663 48.2188C535.683 45.0471 535.366 41.9714 534.711 38.9918C534.055 36.0121 532.887 33.6378 531.204 31.8689L582.2 35.2444C589.273 35.7126 594.898 37.2927 599.077 39.9846C603.259 42.6294 606.212 45.9506 607.937 49.9482C609.665 53.8986 610.383 58.0665 610.093 62.4517C609.472 71.8351 606.271 79.0586 600.489 84.1222C594.708 89.1858 587.119 91.8566 577.723 92.1345C579.654 93.7304 584.408 95.6079 591.985 97.767C595.924 99.0697 598.718 101.93 600.367 106.349C602.02 110.721 603.248 115.42 604.052 120.446C604.72 123.947 605.459 127.098 606.268 129.899C607.124 132.702 608.318 134.699 609.849 135.89Z" fill="white"/>
</g>
<g filter="url(#filter11_d_9097_427)">
<path d="M412.699 223.137L382.376 218.711C377.354 217.978 373.764 216.365 371.603 213.871C369.443 211.377 368.62 208.28 369.133 204.582C369.524 201.902 370.245 199.696 371.295 197.963C372.375 196.207 373.751 194.787 375.424 193.703C377.123 192.622 379.111 191.743 381.389 191.066C385.791 189.848 390.237 188.97 394.727 188.429C396.844 188.127 398.774 187.824 400.519 187.521C402.268 187.191 403.68 186.8 404.756 186.346C405.836 185.866 406.433 185.235 406.547 184.455C406.699 183.414 406.316 182.574 405.4 181.936C404.483 181.297 403.206 180.858 401.567 180.619C398.437 180.215 394.816 180.444 390.705 181.306C386.594 182.167 382.441 183.673 378.248 185.825L375.622 166.948C377.804 166.017 380.235 165.203 382.914 164.505C385.623 163.784 388.471 163.296 391.458 163.041C394.448 162.76 397.439 162.838 400.431 163.275C406.077 164.099 410.487 165.925 413.661 168.753C417.251 172.014 418.645 176.389 417.844 181.879C417.532 184.012 416.794 185.791 415.63 187.215C414.491 188.643 413.058 189.816 411.33 190.733C409.602 191.65 407.701 192.382 405.629 192.93C403.586 193.455 401.48 193.865 399.311 194.16C397.142 194.455 395.046 194.707 393.023 194.916C391.003 195.1 389.166 195.31 387.51 195.546C385.881 195.787 384.556 196.125 383.536 196.561C382.52 196.97 381.955 197.565 381.841 198.346C381.715 199.205 382.096 199.964 382.983 200.625C383.869 201.286 385.087 201.862 386.636 202.354C388.189 202.82 389.928 203.193 391.854 203.474C395.288 203.975 398.81 204.144 402.421 203.98C406.059 203.82 408.802 203.317 410.653 202.472L412.699 223.137Z" fill="white"/>
</g>
<g filter="url(#filter12_d_9097_427)">
<path d="M560.26 202.053C562.951 201.751 565.242 200.832 567.134 199.297C569.048 197.733 569.916 195.797 569.736 193.489C569.435 191.274 568.53 189.695 567.022 188.753C565.54 187.808 563.689 187.46 561.468 187.709C557.107 188.225 553.194 190.371 549.729 194.146C548.891 195.166 548.523 196.133 548.625 197.048C548.749 198.145 549.465 199.11 550.776 199.942C552.202 200.867 553.742 201.501 555.394 201.845C557.044 202.162 558.666 202.232 560.26 202.053ZM560.96 217.849C557.433 218.244 554.217 217.759 551.312 216.391C548.433 215.021 545.922 213.041 543.779 210.45C541.634 207.833 539.894 204.827 538.561 201.431C537.253 198.033 536.396 194.518 535.988 190.886C535.596 187.384 535.646 183.939 536.138 180.55C536.654 177.132 537.654 174.017 539.138 171.205C540.645 168.364 542.67 166.02 545.215 164.173C547.756 162.301 550.869 161.158 554.553 160.744C557.114 160.457 559.512 160.373 561.748 160.493C564.007 160.583 566.188 161.039 568.291 161.862C570.417 162.655 572.559 163.936 574.715 165.705L572.538 178.847C570.095 177.349 567.382 176.277 564.399 175.633C561.44 174.96 558.693 174.765 556.158 175.05C553.571 175.34 551.448 176.107 549.789 177.352C548.156 178.593 546.925 180.121 546.096 181.933C545.291 183.717 544.869 185.616 544.831 187.631C544.831 188.108 544.852 188.529 544.893 188.894C544.981 189.678 545.182 190.053 545.495 190.017C545.861 189.976 546.387 189.6 547.075 188.888C551.147 184.859 555.861 182.544 561.218 181.943C563.752 181.659 566.039 181.878 568.078 182.602C570.117 183.326 571.879 184.411 573.365 185.859C574.847 187.28 576.026 188.947 576.902 190.859C577.804 192.769 578.373 194.769 578.607 196.859C578.865 199.158 578.715 201.477 578.157 203.815C577.597 206.127 576.594 208.276 575.151 210.264C573.73 212.222 571.84 213.89 569.481 215.266C567.145 216.612 564.305 217.473 560.96 217.849Z" fill="white"/>
</g>
<g filter="url(#filter13_d_9097_427)">
<path d="M535.437 223.82L506.362 233.501C501.547 235.104 497.614 235.278 494.563 234.021C491.512 232.765 489.385 230.37 488.18 226.836C487.325 224.266 486.976 221.971 487.135 219.951C487.31 217.897 487.901 216.01 488.907 214.289C489.939 212.56 491.32 210.881 493.05 209.252C496.435 206.185 500.011 203.401 503.778 200.899C505.533 199.678 507.121 198.539 508.543 197.484C509.957 196.403 511.042 195.418 511.799 194.529C512.548 193.614 512.798 192.783 512.548 192.035C512.216 191.037 511.497 190.459 510.391 190.3C509.286 190.142 507.947 190.325 506.375 190.848C503.398 191.895 500.267 193.727 496.982 196.345C493.697 198.963 490.666 202.176 487.887 205.983L477.054 190.302C478.585 188.49 480.39 186.67 482.469 184.842C484.565 182.98 486.889 181.264 489.442 179.693C491.987 178.097 494.694 176.822 497.562 175.867C502.976 174.064 507.736 173.712 511.843 174.811C516.515 176.11 519.728 179.391 521.48 184.654C522.162 186.7 522.302 188.62 521.903 190.416C521.528 192.204 520.775 193.896 519.644 195.492C518.512 197.088 517.144 198.596 515.539 200.018C513.951 201.406 512.254 202.719 510.449 203.957C508.645 205.195 506.886 206.363 505.173 207.46C503.451 208.532 501.904 209.546 500.532 210.502C499.185 211.449 498.154 212.347 497.438 213.195C496.715 214.017 496.478 214.803 496.727 215.551C497.001 216.375 497.683 216.882 498.772 217.074C499.861 217.265 501.208 217.232 502.813 216.975C504.409 216.693 506.13 216.244 507.976 215.63C511.269 214.533 514.492 213.1 517.643 211.33C520.82 209.552 523.045 207.869 524.317 206.281L535.437 223.82Z" fill="white"/>
</g>
<g filter="url(#filter14_d_9097_427)">
<path d="M448.523 230.559C444.737 230.589 441.087 229.607 437.574 227.611C434.06 225.614 431.169 222.535 428.901 218.373C426.525 214.001 425.283 208.411 425.175 201.602C425.129 195.844 425.929 190.841 427.578 186.595C429.252 182.348 431.789 179.054 435.188 176.712C438.614 174.344 442.916 173.139 448.096 173.097C453.249 173.055 457.544 174.178 460.98 176.463C464.443 178.723 467.033 181.975 468.751 186.221C470.494 190.44 471.389 195.481 471.437 201.344C471.411 207.918 470.312 213.37 468.138 217.699C465.991 222.003 463.164 225.22 459.658 227.352C456.152 229.458 452.44 230.527 448.523 230.559ZM448.373 207.25C451.16 207.228 453.482 206.657 455.34 205.537C457.224 204.418 458.632 203 459.565 201.283C460.497 199.54 460.956 197.735 460.941 195.868C460.926 194.028 460.438 192.27 459.478 190.595C458.544 188.92 457.14 187.551 455.264 186.488C453.389 185.426 451.031 184.906 448.192 184.929C445.352 184.952 442.99 185.51 441.106 186.603C439.248 187.696 437.866 189.088 436.959 190.778C436.053 192.468 435.607 194.234 435.622 196.074C435.637 197.941 436.125 199.738 437.085 201.466C438.046 203.167 439.464 204.562 441.339 205.651C443.241 206.74 445.586 207.273 448.373 207.25Z" fill="white"/>
</g>
<g filter="url(#filter15_nf_9097_427)">
<path fill-rule="evenodd" clip-rule="evenodd" d="M304.317 31.2276C303.728 32.9237 303.622 33.7545 303.628 36.6618C303.636 39.964 303.684 40.2346 304.905 43.8119C306.152 47.4671 306.174 47.5947 306.185 51.3393C306.197 55.5219 306.177 55.5694 304.252 56.0053C303.563 56.1614 303.356 56.0439 302.748 55.1472C301.778 53.7201 299 50.9183 297.615 49.9714C296.986 49.5409 295.12 48.5024 293.468 47.6636C291.004 46.4123 290.05 45.7242 288.152 43.8311C286.723 42.4056 285.413 40.7588 284.725 39.5218C283.462 37.2509 283.25 37.4623 283.724 40.5194C284.316 44.3359 285.76 47.1142 289.153 50.9621C291.481 53.6019 293.284 56.5184 294.064 58.9059C294.774 61.0787 294.633 61.8455 293.401 62.5051C292.759 62.8485 292.561 62.8071 291.433 62.0946C288.402 60.1792 284.172 58.8273 281.21 58.8273C277.282 58.8273 272.548 57.1951 269.229 54.6965C268.088 53.8379 267.155 53.2988 267.155 53.4984C267.155 54.1934 269.323 57.4396 270.737 58.863C272.497 60.6343 274.232 61.7943 277.738 63.5438C281.226 65.2842 283.937 67.2925 285.455 69.2605L286.66 70.8216L286.131 71.9032C285.627 72.9351 285.551 72.9781 284.459 72.8416C283.83 72.763 281.577 72.7066 279.454 72.7166C275.893 72.7332 275.376 72.8067 272.802 73.6605C268.089 75.2232 263.719 75.3342 259.393 74.0005L257.574 73.4397L259.004 74.7221C260.678 76.2231 263.727 77.7996 266.154 78.419C267.098 78.6599 269.415 78.9905 271.303 79.1538C275.808 79.5436 278.041 80.073 280.621 81.3623L282.743 82.4229V83.8277V85.2329L281 85.5881C277.421 86.3183 274.158 87.9262 271.589 90.2257C267.757 93.6546 264.468 95.0063 258.003 95.8091C257.488 95.8732 257.888 96.0931 259.433 96.5965C261.225 97.1802 262.119 97.2918 264.867 97.2749C267.777 97.2572 268.553 97.1367 271.589 96.2304C276.73 94.696 277.925 94.4932 281.021 94.6285C283.519 94.7377 283.876 94.8215 284.353 95.4113C285.289 96.5668 285.039 97.4728 283.519 98.433C280.613 100.269 278.31 102.973 276.206 107.019C274.158 110.959 271.68 113.456 267.671 115.617L265.868 116.588L267.356 116.594C269.471 116.604 271.566 116.106 273.888 115.042C275.958 114.093 276.926 113.435 280.684 110.42C283.224 108.382 286.427 106.717 288.744 106.231L290.38 105.888L291.215 106.822L292.05 107.757L291.225 108.961C289.13 112.019 288.123 115.04 287.74 119.411C287.303 124.388 285.932 127.888 283.079 131.296C282.024 132.557 281.979 132.672 282.613 132.48C283.804 132.119 286.161 130.682 287.508 129.496C289.291 127.927 290.876 125.771 292.469 122.75C294.28 119.315 295.277 117.898 297.167 116.073C299.436 113.882 300.081 113.594 301.367 114.205L302.389 114.69L302.147 116.289C302.014 117.168 301.92 119.239 301.939 120.891C301.97 123.601 302.082 124.201 303.083 127.04C304.154 130.076 304.193 130.316 304.193 133.904C304.193 136.943 304.079 137.982 303.565 139.594L302.937 141.566L303.959 140.595C306.748 137.944 308.147 134.333 308.764 128.193C309.213 123.719 309.897 121.257 311.388 118.746C312.083 117.575 312.4 117.3 313.136 117.227C314.607 117.082 315.043 117.514 315.445 119.509C316 122.265 317.764 125.566 320.08 128.184C323.603 132.164 325.282 135.701 325.717 140.058L325.931 142.198L326.607 140.482C327.09 139.258 327.326 137.96 327.433 135.951C327.602 132.765 327.36 131.358 325.877 126.897C324.808 123.68 324.375 119.954 324.768 117.338C324.947 116.145 325.088 115.933 325.942 115.576C327.241 115.034 327.717 115.065 327.921 115.707C328.157 116.451 330.719 119.333 332.322 120.659C333.054 121.264 335.132 122.527 336.941 123.466C341.669 125.921 344.115 128.139 346.25 131.906C347.453 134.028 347.486 134.035 347.334 132.136C347.024 128.25 345.748 125.156 343.209 122.129C342.439 121.212 341.222 119.754 340.505 118.889C337.857 115.695 335.963 111.284 336.62 109.841C336.792 109.464 337.25 109.011 337.637 108.835C338.242 108.559 338.536 108.638 339.715 109.389C342.655 111.261 346.869 112.593 349.871 112.599C351.654 112.602 354.531 113.113 356.338 113.748C358.185 114.398 361.438 116.28 362.839 117.51C364.129 118.642 364.117 118.055 362.808 115.869C360.876 112.645 358.155 110.344 353.53 108.021C349.243 105.869 347.092 104.24 345.141 101.671C344.344 100.62 344.372 99.5066 345.216 98.743C345.633 98.3649 345.965 98.3451 347.402 98.6134C350.335 99.1603 354.982 98.7936 358.065 97.772C362.863 96.1821 366.75 96.0454 371.099 97.3132C373.106 97.8978 373.249 97.8337 372.12 96.8576C369.249 94.3754 366.099 93.068 361.823 92.5835C355.578 91.8762 354.416 91.6898 352.798 91.1375C351.863 90.8186 350.455 90.2074 349.668 89.7792C348.295 89.0322 348.235 88.9472 348.152 87.6516C348.07 86.3758 348.108 86.2937 348.867 86.1389C353.45 85.2043 356.242 83.8915 359.572 81.1055C363.463 77.8496 367.598 76.1459 372.835 75.6413C373.603 75.5673 373.529 75.5049 372.12 75.0444C367.672 73.5904 364.096 73.7397 358.315 75.6208C355.269 76.6118 354.898 76.667 351.146 76.6844C347.321 76.7021 347.17 76.6801 346.641 76.0275C345.736 74.912 345.932 74.0935 347.309 73.2335C347.977 72.8156 349.49 71.4948 350.669 70.2982C352.355 68.5887 353.18 67.4292 354.522 64.8866C356.633 60.886 358.863 58.5052 362.542 56.3247L365.074 54.8232L363.807 54.8281C359.941 54.8432 355.953 56.5653 351.527 60.1295C345.633 64.8766 340.27 66.7051 339.423 64.2563C339.222 63.6757 339.412 63.156 340.467 61.4014C342.219 58.4872 342.924 56.2118 343.248 52.431C343.559 48.8002 344.318 45.9458 345.578 43.6689C346.445 42.1028 348.117 39.8585 348.947 39.1494C349.319 38.8317 349.277 38.8051 348.667 38.9673C347.493 39.2799 345.414 40.4902 343.853 41.7704C342.056 43.2448 340.24 45.6495 338.641 48.6743C336.89 51.986 335.481 53.9603 333.727 55.5597C331.415 57.6667 330.872 57.8955 329.607 57.2926C328.607 56.8152 328.581 56.7635 328.759 55.5971C329.478 50.898 329.266 48.4581 327.746 43.9098C326.252 39.4377 326.308 35.2543 327.928 30.3696C328.273 29.3285 325.359 32.736 324.456 34.4286C323.197 36.791 322.713 38.7187 322.232 43.2857C321.772 47.6533 321.04 50.3146 319.662 52.6255C318.851 53.9843 318.68 54.1153 317.61 54.194C316.191 54.2978 315.983 54.0627 315.507 51.8201C315.045 49.643 313.567 46.4475 312.313 44.9145C311.78 44.2624 310.539 42.7414 309.555 41.5347C306.987 38.3821 306.018 36.1172 305.385 31.7842L305.012 29.2256L304.317 31.2276Z" fill="url(#paint10_radial_9097_427)"/>
</g>
<g filter="url(#filter16_f_9097_427)">
<circle cx="314.84" cy="87.2583" r="22.8267" fill="url(#paint11_radial_9097_427)"/>
</g>
<g filter="url(#filter17_d_9097_427)">
<path d="M125.325 186.144C124.251 185.936 123.361 185.597 122.653 185.128C121.962 184.661 121.369 184.114 120.876 183.486C120.385 182.842 119.912 182.152 119.456 181.415C118.864 180.435 118.147 179.457 117.305 178.479C116.479 177.504 115.324 176.64 113.84 175.887C114.845 174.218 116.007 172.988 117.324 172.195C118.658 171.406 119.99 171.14 121.321 171.398C122.578 171.691 123.677 172.245 124.617 173.059C125.557 173.873 126.452 174.787 127.304 175.8C127.917 176.501 128.542 177.179 129.18 177.835C129.837 178.478 130.55 179.048 131.319 179.546C132.09 180.028 132.965 180.364 133.943 180.553C134.969 180.752 135.721 180.69 136.199 180.367C136.678 180.044 136.965 179.634 137.061 179.137C137.282 177.998 137.035 176.994 136.322 176.124C135.625 175.258 134.642 174.452 133.373 173.707C132.106 172.946 130.697 172.191 129.146 171.441C127.598 170.676 126.061 169.854 124.534 168.976C123.024 168.102 121.671 167.1 120.476 165.97C119.281 164.841 118.394 163.538 117.815 162.062C117.239 160.57 117.145 158.822 117.533 156.818C117.9 154.926 118.762 153.48 120.12 152.479C121.478 151.478 123.215 150.883 125.331 150.694C127.465 150.492 129.847 150.646 132.476 151.155C133.534 151.36 134.529 151.636 135.46 151.982C136.41 152.316 137.308 152.656 138.156 153.003C139.476 153.575 140.692 153.993 141.805 154.259C143.151 154.52 144.386 154.326 145.509 153.679C145.472 154.819 145.366 155.838 145.192 156.736C144.9 158.243 144.443 159.444 143.821 160.338C143.202 161.216 142.486 161.817 141.675 162.142C140.879 162.471 140.057 162.552 139.207 162.388C138.374 162.226 137.369 161.916 136.195 161.455C135.036 160.998 133.805 160.485 132.501 159.916C131.03 159.266 129.568 158.658 128.114 158.094C126.676 157.533 125.372 157.139 124.201 156.912C123.223 156.723 122.402 156.713 121.737 156.884C121.072 157.054 120.668 157.508 120.525 158.246C120.404 158.871 120.609 159.401 121.14 159.837C121.687 160.275 122.457 160.682 123.448 161.057C124.44 161.432 125.565 161.808 126.822 162.185C128.205 162.602 129.633 163.087 131.107 163.638C132.583 164.174 134.001 164.839 135.36 165.635C136.723 166.414 137.901 167.374 138.894 168.514C139.887 169.655 140.594 171.031 141.013 172.642C141.436 174.238 141.435 176.133 141.01 178.33C140.743 179.708 140.039 180.936 138.899 182.012C137.759 183.089 136.397 183.981 134.813 184.689C133.245 185.4 131.621 185.883 129.942 186.14C128.262 186.397 126.723 186.398 125.325 186.144ZM165.199 186.171C166.097 186.144 166.817 185.902 167.359 185.445C167.9 184.972 168.282 184.34 168.503 183.549C168.741 182.758 168.846 181.873 168.817 180.893C168.774 179.457 168.492 177.93 167.971 176.312C167.465 174.677 166.799 173.144 165.972 171.715C165.146 170.286 164.229 169.12 163.223 168.219C162.216 167.317 161.198 166.882 160.17 166.912C159.093 166.944 158.346 167.383 157.93 168.228C157.53 169.073 157.351 170.173 157.391 171.528C157.433 172.964 157.7 174.532 158.191 176.233C158.682 177.918 159.309 179.516 160.073 181.029C160.836 182.542 161.665 183.784 162.56 184.754C163.471 185.723 164.351 186.196 165.199 186.171ZM163.123 190.52C161.017 190.582 159.202 190.252 157.678 189.529C156.17 188.806 154.923 187.806 153.938 186.528C152.953 185.25 152.207 183.778 151.7 182.11C151.21 180.442 150.938 178.702 150.884 176.89C150.831 175.079 150.999 173.326 151.39 171.632C151.798 169.937 152.455 168.423 153.363 167.089C154.271 165.755 155.457 164.683 156.919 163.872C158.398 163.06 160.19 162.624 162.296 162.561C164.401 162.499 166.216 162.829 167.74 163.552C169.265 164.275 170.519 165.275 171.505 166.553C172.49 167.83 173.228 169.303 173.718 170.971C174.209 172.639 174.481 174.379 174.534 176.191C174.588 178.003 174.419 179.756 174.028 181.45C173.637 183.144 172.988 184.658 172.079 185.992C171.171 187.325 169.978 188.398 168.499 189.209C167.02 190.021 165.228 190.458 163.123 190.52ZM197.151 186.238L183.245 188.894C183.747 188.216 184.048 187.352 184.147 186.303C184.245 185.253 184.226 184.193 184.088 183.122C183.947 182.036 183.813 181.163 183.688 180.506L180.361 163.088C180.113 161.789 179.86 160.64 179.603 159.642C179.346 158.643 179.001 157.795 178.568 157.096C178.132 156.382 177.561 155.826 176.853 155.429L189.123 153.086L189.449 154.794C189.651 155.852 189.74 157.016 189.717 158.283C189.709 159.548 189.387 160.865 188.751 162.233C188.252 163.276 187.943 164.316 187.825 165.352C187.723 166.386 187.755 167.51 187.921 168.725C188.083 169.925 188.361 171.551 188.753 173.604C188.924 174.502 189.276 175.341 189.807 176.12C190.351 176.881 190.972 177.651 191.67 178.432C192.266 179.117 192.855 179.852 193.438 180.638C194.02 181.425 194.52 182.302 194.938 183.269C195.483 184.645 196.221 185.634 197.151 186.238ZM214.124 184.574C213.298 184.677 212.577 184.636 211.961 184.45C211.348 184.28 210.789 184.029 210.287 183.697C209.783 183.349 209.282 182.967 208.786 182.552C208.138 181.975 207.395 181.434 206.559 180.93C205.722 180.426 204.675 180.08 203.417 179.892C203.761 178.434 204.323 177.269 205.103 176.398C205.88 175.511 206.771 175.004 207.776 174.878C208.703 174.795 209.633 174.925 210.565 175.269C211.496 175.614 212.446 176.038 213.415 176.542C214.437 177.088 215.485 177.566 216.556 177.975C217.642 178.366 218.762 178.505 219.916 178.393C220.662 178.3 221.161 178.081 221.414 177.737C221.683 177.39 221.794 177.031 221.748 176.658C221.648 175.864 221.279 175.277 220.639 174.896C219.998 174.516 219.176 174.257 218.171 174.119C217.181 173.964 216.08 173.846 214.869 173.768C213.492 173.677 212.074 173.525 210.616 173.313C209.174 173.099 207.807 172.694 206.514 172.099C205.238 171.502 204.146 170.602 203.239 169.399C202.329 168.18 201.742 166.517 201.479 164.411C201.296 162.953 201.575 161.7 202.316 160.653C203.073 159.603 204.194 158.764 205.679 158.133C207.161 157.487 208.907 157.038 210.916 156.786C212.147 156.632 214.172 156.576 216.992 156.618C218.624 156.644 219.88 156.618 220.759 156.541C221.828 156.407 222.695 155.969 223.359 155.228C223.612 156.068 223.783 156.837 223.87 157.534C224.014 158.684 223.963 159.653 223.716 160.441C223.483 161.211 223.105 161.809 222.583 162.237C222.077 162.662 221.499 162.916 220.851 162.997C220.236 163.074 219.448 163.09 218.488 163.046C217.526 162.985 216.488 162.91 215.374 162.819C214.078 162.718 212.784 162.641 211.494 162.589C210.218 162.518 209.102 162.543 208.147 162.662C206.332 162.89 205.487 163.506 205.613 164.51C205.67 164.964 205.932 165.285 206.4 165.473C206.882 165.643 207.511 165.737 208.287 165.755C209.077 165.755 209.963 165.734 210.945 165.694C212.092 165.649 213.3 165.637 214.569 165.659C215.837 165.665 217.088 165.797 218.321 166.053C219.571 166.308 220.731 166.764 221.8 167.42C222.886 168.074 223.801 169.004 224.544 170.211C225.288 171.418 225.781 172.994 226.025 174.938C226.157 175.991 225.814 177.062 224.996 178.152C224.192 179.224 223.14 180.219 221.84 181.139C220.54 182.059 219.188 182.829 217.785 183.449C216.398 184.067 215.177 184.442 214.124 184.574ZM246.636 183.179C243.807 182.916 241.6 181.957 240.016 180.301C238.133 178.323 237.376 175.35 237.744 171.383L239.204 155.652C239.267 154.969 239.316 154.088 239.351 153.009C239.421 150.31 238.958 148.414 237.96 147.321L249.593 148.401C248.958 148.883 248.469 149.559 248.126 150.429C247.801 151.284 247.519 152.201 247.28 153.179C247.06 154.143 246.788 155.044 246.464 155.883L247.586 155.987C248.252 156.049 248.91 156.2 249.56 156.441C250.307 156.707 251.189 156.912 252.209 157.056C252.583 157.091 252.994 156.998 253.44 156.777C253.887 156.556 254.312 156.128 254.716 155.493C255.268 156.43 255.495 157.435 255.395 158.508C255.3 159.532 255.043 160.361 254.623 160.994C254.22 161.629 253.719 162.083 253.12 162.355C252.52 162.628 251.879 162.732 251.196 162.669C250.514 162.605 249.955 162.439 249.521 162.169C249.087 161.899 248.731 161.579 248.454 161.209C248.177 160.839 247.925 160.463 247.698 160.081C247.471 159.699 247.231 159.365 246.979 159.08C246.743 158.795 246.447 158.628 246.091 158.579C244.952 158.473 244.031 159.568 243.326 161.864C242.789 163.586 242.408 165.658 242.183 168.08L241.961 170.47C241.83 171.885 241.985 173.039 242.427 173.933C242.887 174.812 243.449 175.471 244.113 175.909C244.795 176.333 245.405 176.57 245.941 176.62C246.949 176.714 247.815 176.491 248.537 175.951C249.277 175.396 249.677 174.802 249.736 174.168C249.799 173.485 249.73 172.815 249.529 172.156C249.345 171.483 248.961 170.849 248.377 170.254C247.793 169.659 246.972 169.131 245.916 168.673L245.93 168.526C246.017 167.583 246.361 166.795 246.961 166.162C247.579 165.514 248.344 165.044 249.257 164.752C250.169 164.459 251.121 164.359 252.113 164.451C253.235 164.555 254.308 164.925 255.331 165.561C256.356 166.181 257.165 167.093 257.758 168.296C258.368 169.5 258.613 171.015 258.493 172.841L258.404 173.792C258.137 176.67 257.162 178.965 255.478 180.678C253.469 182.706 250.522 183.539 246.636 183.179ZM276.97 185.17L265.338 184.079C266.007 183.585 266.528 182.846 266.899 181.864C267.287 180.867 267.564 179.836 267.73 178.769C267.913 177.687 268.036 176.813 268.099 176.146L268.902 167.587C268.964 166.92 269.005 166.047 269.024 164.966C269.061 163.871 268.981 162.805 268.783 161.77C268.602 160.72 268.229 159.89 267.663 159.279L279.295 160.37C278.626 160.864 278.097 161.61 277.708 162.607C277.337 163.589 277.06 164.621 276.877 165.703C276.711 166.769 276.597 167.636 276.534 168.303L275.732 176.862C275.669 177.529 275.619 178.41 275.582 179.505C275.563 180.586 275.643 181.651 275.824 182.701C276.022 183.736 276.404 184.56 276.97 185.17ZM273.598 158.433C272.85 158.363 272.147 158.166 271.488 157.842C270.846 157.519 270.34 157.053 269.971 156.445C269.618 155.838 269.485 155.071 269.572 154.144C269.657 153.234 269.93 152.513 270.389 151.982C270.865 151.453 271.449 151.089 272.14 150.892C272.847 150.696 273.575 150.633 274.322 150.703C275.087 150.774 275.79 150.972 276.432 151.294C277.09 151.618 277.596 152.084 277.949 152.691C278.318 153.3 278.46 154.059 278.375 154.97C278.288 155.896 278.007 156.624 277.531 157.154C277.071 157.685 276.487 158.048 275.78 158.244C275.089 158.442 274.362 158.505 273.598 158.433ZM297.603 189.959C295.508 189.454 293.754 188.612 292.342 187.432C290.95 186.239 289.875 184.847 289.116 183.253C288.362 181.644 287.91 179.931 287.76 178.114C287.626 176.301 287.773 174.506 288.201 172.728C288.599 171.077 289.232 169.533 290.099 168.096C290.982 166.663 292.072 165.448 293.371 164.45C294.685 163.457 296.192 162.779 297.892 162.416C299.592 162.053 301.474 162.12 303.538 162.618C304.601 162.874 305.888 163.352 307.399 164.052C308.298 164.504 309.129 164.822 309.891 165.005C310.843 165.235 311.71 165.158 312.491 164.775C312.516 165.856 312.432 166.794 312.241 167.587C311.977 168.683 311.559 169.514 310.985 170.081C310.428 170.652 309.811 171.016 309.135 171.172C308.459 171.328 307.835 171.338 307.264 171.2C306.248 170.955 305.435 170.633 304.826 170.235C304.22 169.82 303.739 169.376 303.383 168.904C303.027 168.432 302.732 167.983 302.498 167.557C302.269 167.116 302.024 166.737 301.764 166.423C301.52 166.112 301.183 165.905 300.755 165.802C300.072 165.637 299.371 166.073 298.651 167.109C297.935 168.129 297.393 169.401 297.026 170.924C296.704 172.258 296.6 173.669 296.711 175.157C296.839 176.649 297.315 177.981 298.141 179.155C298.987 180.316 300.293 181.134 302.059 181.611C303.281 181.905 304.527 181.895 305.795 181.579C307.064 181.263 308.193 180.62 309.183 179.649C309.485 181.603 309.469 183.27 309.136 184.652C308.819 185.969 308.266 187.045 307.477 187.879C306.691 188.698 305.762 189.314 304.688 189.727C303.618 190.124 302.468 190.334 301.236 190.356C300.005 190.379 298.794 190.246 297.603 189.959ZM328.4 197.743C326.128 197.138 324.246 196.24 322.755 195.049C321.269 193.843 320.141 192.461 319.372 190.905C318.604 189.349 318.163 187.702 318.051 185.966C317.938 184.229 318.105 182.525 318.55 180.852C319.003 179.148 319.715 177.554 320.684 176.072C321.673 174.578 322.876 173.327 324.293 172.318C325.731 171.298 327.349 170.614 329.149 170.265C330.968 169.904 332.919 170.001 335.002 170.555C336.217 170.879 337.65 171.429 339.302 172.207C340.553 172.776 341.518 173.151 342.196 173.332C343.017 173.55 343.846 173.483 344.683 173.132C344.698 174.217 344.609 175.123 344.416 175.849C344.244 176.496 343.967 177.089 343.587 177.63C343.211 178.155 342.704 178.756 342.068 179.431L338.795 182.97C338.291 183.529 337.672 184.048 336.936 184.528C336.204 184.992 335.418 185.341 334.579 185.574C333.74 185.807 332.926 185.818 332.137 185.608C331.316 185.39 330.668 185.032 330.192 184.533C329.737 184.023 329.432 183.452 329.279 182.82C329.147 182.177 329.164 181.539 329.332 180.908C329.5 180.277 329.822 179.703 330.297 179.188C330.772 178.672 331.383 178.311 332.131 178.105C332.148 179.123 332.397 179.899 332.88 180.433C333.379 180.971 333.92 181.318 334.504 181.473C335.309 181.688 336.189 181.651 337.144 181.365C338.099 181.078 338.979 180.468 339.786 179.533L339.306 179.431C338.296 179.162 337.46 178.813 336.797 178.383C336.154 177.942 335.62 177.47 335.196 176.969C334.772 176.467 334.409 175.99 334.107 175.538C333.809 175.07 333.51 174.67 333.21 174.336C332.91 174.003 332.547 173.78 332.121 173.666C331.348 173.461 330.467 173.944 329.479 175.118C328.511 176.279 327.804 177.697 327.359 179.369C327.023 180.632 326.928 181.941 327.074 183.298C327.236 184.659 327.785 185.895 328.723 187.006C329.661 188.118 331.104 188.949 333.052 189.502C334.314 189.838 335.694 189.892 337.191 189.665C338.687 189.438 339.957 188.856 341.001 187.917C341.243 189.738 341.192 191.296 340.848 192.59C340.486 193.947 339.866 195.041 338.986 195.871C338.106 196.701 337.075 197.306 335.893 197.684C334.727 198.066 333.486 198.252 332.171 198.24C330.872 198.232 329.615 198.066 328.4 197.743Z" fill="white"/>
</g>
</g>
<defs>
<filter id="filter0_d_9097_427" x="152.258" y="48.1436" width="31.9456" height="77.1995" filterUnits="userSpaceOnUse" color-interpolation-filters="sRGB">
<feFlood flood-opacity="0" result="BackgroundImageFix"/>
<feColorMatrix in="SourceAlpha" type="matrix" values="0 0 0 0 0 0 0 0 0 0 0 0 0 0 0 0 0 0 127 0" result="hardAlpha"/>
<feOffset dy="1.02943"/>
<feGaussianBlur stdDeviation="0.514714"/>
<feComposite in2="hardAlpha" operator="out"/>
<feColorMatrix type="matrix" values="0 0 0 0 0 0 0 0 0 0 0 0 0 0 0 0 0 0 0.25 0"/>
<feBlend mode="normal" in2="BackgroundImageFix" result="effect1_dropShadow_9097_427"/>
<feBlend mode="normal" in="SourceGraphic" in2="effect1_dropShadow_9097_427" result="shape"/>
</filter>
<filter id="filter1_d_9097_427" x="164.867" y="101.361" width="17.6702" height="16.9055" filterUnits="userSpaceOnUse" color-interpolation-filters="sRGB">
<feFlood flood-opacity="0" result="BackgroundImageFix"/>
<feColorMatrix in="SourceAlpha" type="matrix" values="0 0 0 0 0 0 0 0 0 0 0 0 0 0 0 0 0 0 127 0" result="hardAlpha"/>
<feOffset dy="1.02943"/>
<feGaussianBlur stdDeviation="0.514714"/>
<feComposite in2="hardAlpha" operator="out"/>
<feColorMatrix type="matrix" values="0 0 0 0 0 0 0 0 0 0 0 0 0 0 0 0 0 0 0.25 0"/>
<feBlend mode="normal" in2="BackgroundImageFix" result="effect1_dropShadow_9097_427"/>
<feBlend mode="normal" in="SourceGraphic" in2="effect1_dropShadow_9097_427" result="shape"/>
</filter>
<filter id="filter2_d_9097_427" x="113.492" y="51.1602" width="35.6409" height="76.6995" filterUnits="userSpaceOnUse" color-interpolation-filters="sRGB">
<feFlood flood-opacity="0" result="BackgroundImageFix"/>
<feColorMatrix in="SourceAlpha" type="matrix" values="0 0 0 0 0 0 0 0 0 0 0 0 0 0 0 0 0 0 127 0" result="hardAlpha"/>
<feOffset dy="1.02943"/>
<feGaussianBlur stdDeviation="0.514714"/>
<feComposite in2="hardAlpha" operator="out"/>
<feColorMatrix type="matrix" values="0 0 0 0 0 0 0 0 0 0 0 0 0 0 0 0 0 0 0.25 0"/>
<feBlend mode="normal" in2="BackgroundImageFix" result="effect1_dropShadow_9097_427"/>
<feBlend mode="normal" in="SourceGraphic" in2="effect1_dropShadow_9097_427" result="shape"/>
</filter>
<filter id="filter3_d_9097_427" x="121.754" y="102.572" width="16.2991" height="18.2005" filterUnits="userSpaceOnUse" color-interpolation-filters="sRGB">
<feFlood flood-opacity="0" result="BackgroundImageFix"/>
<feColorMatrix in="SourceAlpha" type="matrix" values="0 0 0 0 0 0 0 0 0 0 0 0 0 0 0 0 0 0 127 0" result="hardAlpha"/>
<feOffset dy="1.02943"/>
<feGaussianBlur stdDeviation="0.514714"/>
<feComposite in2="hardAlpha" operator="out"/>
<feColorMatrix type="matrix" values="0 0 0 0 0 0 0 0 0 0 0 0 0 0 0 0 0 0 0.25 0"/>
<feBlend mode="normal" in2="BackgroundImageFix" result="effect1_dropShadow_9097_427"/>
<feBlend mode="normal" in="SourceGraphic" in2="effect1_dropShadow_9097_427" result="shape"/>
</filter>
<filter id="filter4_d_9097_427" x="36.5957" y="29.2256" width="647.4" height="217.097" filterUnits="userSpaceOnUse" color-interpolation-filters="sRGB">
<feFlood flood-opacity="0" result="BackgroundImageFix"/>
<feColorMatrix in="SourceAlpha" type="matrix" values="0 0 0 0 0 0 0 0 0 0 0 0 0 0 0 0 0 0 127 0" result="hardAlpha"/>
<feOffset dy="8.03638"/>
<feComposite in2="hardAlpha" operator="out"/>
<feColorMatrix type="matrix" values="0 0 0 0 0 0 0 0 0 0 0 0 0 0 0 0 0 0 0.25 0"/>
<feBlend mode="normal" in2="BackgroundImageFix" result="effect1_dropShadow_9097_427"/>
<feBlend mode="normal" in="SourceGraphic" in2="effect1_dropShadow_9097_427" result="shape"/>
</filter>
<filter id="filter5_d_9097_427" x="34.689" y="39.6553" width="72.4033" height="102.375" filterUnits="userSpaceOnUse" color-interpolation-filters="sRGB">
<feFlood flood-opacity="0" result="BackgroundImageFix"/>
<feColorMatrix in="SourceAlpha" type="matrix" values="0 0 0 0 0 0 0 0 0 0 0 0 0 0 0 0 0 0 127 0" result="hardAlpha"/>
<feOffset dy="1.90675"/>
<feGaussianBlur stdDeviation="0.953374"/>
<feComposite in2="hardAlpha" operator="out"/>
<feColorMatrix type="matrix" values="0 0 0 0 0 0 0 0 0 0 0 0 0 0 0 0 0 0 0.25 0"/>
<feBlend mode="normal" in2="BackgroundImageFix" result="effect1_dropShadow_9097_427"/>
<feBlend mode="normal" in="SourceGraphic" in2="effect1_dropShadow_9097_427" result="shape"/>
</filter>
<filter id="filter6_d_9097_427" x="617.324" y="54.1836" width="68.5791" height="103.067" filterUnits="userSpaceOnUse" color-interpolation-filters="sRGB">
<feFlood flood-opacity="0" result="BackgroundImageFix"/>
<feColorMatrix in="SourceAlpha" type="matrix" values="0 0 0 0 0 0 0 0 0 0 0 0 0 0 0 0 0 0 127 0" result="hardAlpha"/>
<feOffset dy="1.90675"/>
<feGaussianBlur stdDeviation="0.953374"/>
<feComposite in2="hardAlpha" operator="out"/>
<feColorMatrix type="matrix" values="0 0 0 0 0 0 0 0 0 0 0 0 0 0 0 0 0 0 0.25 0"/>
<feBlend mode="normal" in2="BackgroundImageFix" result="effect1_dropShadow_9097_427"/>
<feBlend mode="normal" in="SourceGraphic" in2="effect1_dropShadow_9097_427" result="shape"/>
</filter>
<filter id="filter7_d_9097_427" x="191.476" y="35.0869" width="82.3975" height="99.7842" filterUnits="userSpaceOnUse" color-interpolation-filters="sRGB">
<feFlood flood-opacity="0" result="BackgroundImageFix"/>
<feColorMatrix in="SourceAlpha" type="matrix" values="0 0 0 0 0 0 0 0 0 0 0 0 0 0 0 0 0 0 127 0" result="hardAlpha"/>
<feOffset dy="1.90675"/>
<feGaussianBlur stdDeviation="0.953374"/>
<feComposite in2="hardAlpha" operator="out"/>
<feColorMatrix type="matrix" values="0 0 0 0 0 0 0 0 0 0 0 0 0 0 0 0 0 0 0.25 0"/>
<feBlend mode="normal" in2="BackgroundImageFix" result="effect1_dropShadow_9097_427"/>
<feBlend mode="normal" in="SourceGraphic" in2="effect1_dropShadow_9097_427" result="shape"/>
</filter>
<filter id="filter8_d_9097_427" x="335.062" y="37.1963" width="74.6553" height="102.081" filterUnits="userSpaceOnUse" color-interpolation-filters="sRGB">
<feFlood flood-opacity="0" result="BackgroundImageFix"/>
<feColorMatrix in="SourceAlpha" type="matrix" values="0 0 0 0 0 0 0 0 0 0 0 0 0 0 0 0 0 0 127 0" result="hardAlpha"/>
<feOffset dy="1.90675"/>
<feGaussianBlur stdDeviation="0.953374"/>
<feComposite in2="hardAlpha" operator="out"/>
<feColorMatrix type="matrix" values="0 0 0 0 0 0 0 0 0 0 0 0 0 0 0 0 0 0 0.25 0"/>
<feBlend mode="normal" in2="BackgroundImageFix" result="effect1_dropShadow_9097_427"/>
<feBlend mode="normal" in="SourceGraphic" in2="effect1_dropShadow_9097_427" result="shape"/>
</filter>
<filter id="filter9_d_9097_427" x="431.992" y="51.9258" width="93.9893" height="103.197" filterUnits="userSpaceOnUse" color-interpolation-filters="sRGB">
<feFlood flood-opacity="0" result="BackgroundImageFix"/>
<feColorMatrix in="SourceAlpha" type="matrix" values="0 0 0 0 0 0 0 0 0 0 0 0 0 0 0 0 0 0 127 0" result="hardAlpha"/>
<feOffset dy="1.90675"/>
<feGaussianBlur stdDeviation="0.953374"/>
<feComposite in2="hardAlpha" operator="out"/>
<feColorMatrix type="matrix" values="0 0 0 0 0 0 0 0 0 0 0 0 0 0 0 0 0 0 0.25 0"/>
<feBlend mode="normal" in2="BackgroundImageFix" result="effect1_dropShadow_9097_427"/>
<feBlend mode="normal" in="SourceGraphic" in2="effect1_dropShadow_9097_427" result="shape"/>
</filter>
<filter id="filter10_d_9097_427" x="522.785" y="31.8691" width="95.4834" height="107.834" filterUnits="userSpaceOnUse" color-interpolation-filters="sRGB">
<feFlood flood-opacity="0" result="BackgroundImageFix"/>
<feColorMatrix in="SourceAlpha" type="matrix" values="0 0 0 0 0 0 0 0 0 0 0 0 0 0 0 0 0 0 127 0" result="hardAlpha"/>
<feOffset dy="1.90675"/>
<feGaussianBlur stdDeviation="0.953374"/>
<feComposite in2="hardAlpha" operator="out"/>
<feColorMatrix type="matrix" values="0 0 0 0 0 0 0 0 0 0 0 0 0 0 0 0 0 0 0.25 0"/>
<feBlend mode="normal" in2="BackgroundImageFix" result="effect1_dropShadow_9097_427"/>
<feBlend mode="normal" in="SourceGraphic" in2="effect1_dropShadow_9097_427" result="shape"/>
</filter>
<filter id="filter11_d_9097_427" x="367.391" y="159.664" width="53.6074" height="65.5422" filterUnits="userSpaceOnUse" color-interpolation-filters="sRGB">
<feFlood flood-opacity="0" result="BackgroundImageFix"/>
<feColorMatrix in="SourceAlpha" type="matrix" values="0 0 0 0 0 0 0 0 0 0 0 0 0 0 0 0 0 0 127 0" result="hardAlpha"/>
<feOffset dy="2.06952"/>
<feComposite in2="hardAlpha" operator="out"/>
<feColorMatrix type="matrix" values="0 0 0 0 0 0 0 0 0 0 0 0 0 0 0 0 0 0 0.21 0"/>
<feBlend mode="normal" in2="BackgroundImageFix" result="effect1_dropShadow_9097_427"/>
<feBlend mode="normal" in="SourceGraphic" in2="effect1_dropShadow_9097_427" result="shape"/>
</filter>
<filter id="filter12_d_9097_427" x="532.879" y="158.528" width="47.834" height="63.8215" filterUnits="userSpaceOnUse" color-interpolation-filters="sRGB">
<feFlood flood-opacity="0" result="BackgroundImageFix"/>
<feColorMatrix in="SourceAlpha" type="matrix" values="0 0 0 0 0 0 0 0 0 0 0 0 0 0 0 0 0 0 127 0" result="hardAlpha"/>
<feOffset dy="2.06952"/>
<feComposite in2="hardAlpha" operator="out"/>
<feColorMatrix type="matrix" values="0 0 0 0 0 0 0 0 0 0 0 0 0 0 0 0 0 0 0.21 0"/>
<feBlend mode="normal" in2="BackgroundImageFix" result="effect1_dropShadow_9097_427"/>
<feBlend mode="normal" in="SourceGraphic" in2="effect1_dropShadow_9097_427" result="shape"/>
</filter>
<filter id="filter13_d_9097_427" x="473.838" y="169.3" width="61.5977" height="71.0558" filterUnits="userSpaceOnUse" color-interpolation-filters="sRGB">
<feFlood flood-opacity="0" result="BackgroundImageFix"/>
<feColorMatrix in="SourceAlpha" type="matrix" values="0 0 0 0 0 0 0 0 0 0 0 0 0 0 0 0 0 0 127 0" result="hardAlpha"/>
<feOffset dy="2.06952"/>
<feComposite in2="hardAlpha" operator="out"/>
<feColorMatrix type="matrix" values="0 0 0 0 0 0 0 0 0 0 0 0 0 0 0 0 0 0 0.21 0"/>
<feBlend mode="normal" in2="BackgroundImageFix" result="effect1_dropShadow_9097_427"/>
<feBlend mode="normal" in="SourceGraphic" in2="effect1_dropShadow_9097_427" result="shape"/>
</filter>
<filter id="filter14_d_9097_427" x="424.945" y="172.91" width="46.7266" height="59.9055" filterUnits="userSpaceOnUse" color-interpolation-filters="sRGB">
<feFlood flood-opacity="0" result="BackgroundImageFix"/>
<feColorMatrix in="SourceAlpha" type="matrix" values="0 0 0 0 0 0 0 0 0 0 0 0 0 0 0 0 0 0 127 0" result="hardAlpha"/>
<feOffset dy="2.06952"/>
<feComposite in2="hardAlpha" operator="out"/>
<feColorMatrix type="matrix" values="0 0 0 0 0 0 0 0 0 0 0 0 0 0 0 0 0 0 0.21 0"/>
<feBlend mode="normal" in2="BackgroundImageFix" result="effect1_dropShadow_9097_427"/>
<feBlend mode="normal" in="SourceGraphic" in2="effect1_dropShadow_9097_427" result="shape"/>
</filter>
<filter id="filter15_nf_9097_427" x="256.684" y="28.3357" width="117.526" height="114.752" filterUnits="userSpaceOnUse" color-interpolation-filters="sRGB">
<feFlood flood-opacity="0" result="BackgroundImageFix"/>
<feBlend mode="normal" in="SourceGraphic" in2="BackgroundImageFix" result="shape"/>
<feTurbulence type="fractalNoise" baseFrequency="1.9882272481918335 1.9882272481918335" stitchTiles="stitch" numOctaves="3" result="noise" seed="4912" />
<feColorMatrix in="noise" type="luminanceToAlpha" result="alphaNoise" />
<feComponentTransfer in="alphaNoise" result="coloredNoise1">
<feFuncA type="discrete" tableValues="1 1 1 1 1 1 1 1 1 1 1 1 1 1 1 1 1 1 1 1 1 1 1 1 1 1 1 1 1 1 1 1 1 1 1 1 1 1 1 1 1 1 1 1 1 1 1 1 1 1 1 0 0 0 0 0 0 0 0 0 0 0 0 0 0 0 0 0 0 0 0 0 0 0 0 0 0 0 0 0 0 0 0 0 0 0 0 0 0 0 0 0 0 0 0 0 0 0 0 0 "/>
</feComponentTransfer>
<feComposite operator="in" in2="shape" in="coloredNoise1" result="noise1Clipped" />
<feFlood flood-color="#FF704D" result="color1Flood" />
<feComposite operator="in" in2="noise1Clipped" in="color1Flood" result="color1" />
<feMerge result="effect1_noise_9097_427">
<feMergeNode in="shape" />
<feMergeNode in="color1" />
</feMerge>
<feGaussianBlur stdDeviation="0.444927" result="effect2_foregroundBlur_9097_427"/>
</filter>
<filter id="filter16_f_9097_427" x="284.846" y="57.2641" width="59.9894" height="59.9885" filterUnits="userSpaceOnUse" color-interpolation-filters="sRGB">
<feFlood flood-opacity="0" result="BackgroundImageFix"/>
<feBlend mode="normal" in="SourceGraphic" in2="BackgroundImageFix" result="shape"/>
<feGaussianBlur stdDeviation="3.58379" result="effect1_foregroundBlur_9097_427"/>
</filter>
<filter id="filter17_d_9097_427" x="111.979" y="137.649" width="235.344" height="70.8098" filterUnits="userSpaceOnUse" color-interpolation-filters="sRGB">
<feFlood flood-opacity="0" result="BackgroundImageFix"/>
<feColorMatrix in="SourceAlpha" type="matrix" values="0 0 0 0 0 0 0 0 0 0 0 0 0 0 0 0 0 0 127 0" result="hardAlpha"/>
<feOffset dy="2.06952"/>
<feComposite in2="hardAlpha" operator="out"/>
<feColorMatrix type="matrix" values="0 0 0 0 0 0 0 0 0 0 0 0 0 0 0 0 0 0 0.21 0"/>
<feBlend mode="normal" in2="BackgroundImageFix" result="effect1_dropShadow_9097_427"/>
<feBlend mode="normal" in="SourceGraphic" in2="effect1_dropShadow_9097_427" result="shape"/>
</filter>
<linearGradient id="paint0_linear_9097_427" x1="179.238" y1="87.8094" x2="141.605" y2="88.5549" gradientUnits="userSpaceOnUse">
<stop stop-color="#EB65B6"/>
<stop offset="1" stop-color="#86C7FD"/>
</linearGradient>
<linearGradient id="paint1_linear_9097_427" x1="206.794" y1="138.9" x2="153.445" y2="100.178" gradientUnits="userSpaceOnUse">
<stop offset="0.908664" stop-color="#C766EB" stop-opacity="0.38"/>
<stop offset="1" stop-color="#86C7FD" stop-opacity="0"/>
</linearGradient>
<linearGradient id="paint2_linear_9097_427" x1="176.13" y1="93.2122" x2="153.223" y2="77.7315" gradientUnits="userSpaceOnUse">
<stop stop-color="white"/>
<stop offset="0.5" stop-color="#A5D5FE"/>
<stop offset="1" stop-color="#86C7FD"/>
</linearGradient>
<linearGradient id="paint3_linear_9097_427" x1="173.271" y1="88.6669" x2="144.796" y2="88.7263" gradientUnits="userSpaceOnUse">
<stop stop-color="#C3E3FE"/>
<stop offset="0.279701" stop-color="white"/>
<stop offset="1" stop-color="#86C7FD"/>
</linearGradient>
<linearGradient id="paint4_linear_9097_427" x1="166.903" y1="102.064" x2="181.544" y2="110.511" gradientUnits="userSpaceOnUse">
<stop stop-color="#86C7FD"/>
<stop offset="1" stop-color="#C766EB"/>
</linearGradient>
<linearGradient id="paint5_linear_9097_427" x1="122.203" y1="90.5858" x2="159.679" y2="87.0704" gradientUnits="userSpaceOnUse">
<stop stop-color="#EB65B6"/>
<stop offset="1" stop-color="#86C7FD"/>
</linearGradient>
<linearGradient id="paint6_linear_9097_427" x1="100.603" y1="144.466" x2="149.23" y2="99.959" gradientUnits="userSpaceOnUse">
<stop offset="0.908664" stop-color="#C766EB" stop-opacity="0.38"/>
<stop offset="1" stop-color="#86C7FD" stop-opacity="0"/>
</linearGradient>
<linearGradient id="paint7_linear_9097_427" x1="125.899" y1="95.6037" x2="146.908" y2="77.6316" gradientUnits="userSpaceOnUse">
<stop stop-color="white"/>
<stop offset="0.5" stop-color="#A5D5FE"/>
<stop offset="1" stop-color="#86C7FD"/>
</linearGradient>
<linearGradient id="paint8_linear_9097_427" x1="128.219" y1="90.7658" x2="156.518" y2="87.6043" gradientUnits="userSpaceOnUse">
<stop stop-color="#C3E3FE"/>
<stop offset="0.279701" stop-color="white"/>
<stop offset="1" stop-color="#86C7FD"/>
</linearGradient>
<linearGradient id="paint9_linear_9097_427" x1="136.055" y1="103.357" x2="122.464" y2="113.405" gradientUnits="userSpaceOnUse">
<stop stop-color="#86C7FD"/>
<stop offset="1" stop-color="#C766EB"/>
</linearGradient>
<radialGradient id="paint10_radial_9097_427" cx="0" cy="0" r="1" gradientUnits="userSpaceOnUse" gradientTransform="translate(315.608 85.7119) rotate(92.5638) scale(51.8956 53.1699)">
<stop stop-color="#FFE64A"/>
<stop offset="1" stop-color="#FF704D"/>
</radialGradient>
<radialGradient id="paint11_radial_9097_427" cx="0" cy="0" r="1" gradientUnits="userSpaceOnUse" gradientTransform="translate(314.84 87.2583) rotate(90) scale(31.0708)">
<stop offset="0.422676" stop-color="#FFEF88"/>
<stop offset="0.583827" stop-color="#FFE64A"/>
<stop offset="1" stop-color="#FE884C" stop-opacity="0"/>
</radialGradient>
</defs>
</svg>
