<svg width="118" height="115" viewBox="0 0 118 115" fill="none" xmlns="http://www.w3.org/2000/svg">
<g filter="url(#filter0_nf_9560_421)">
<path fill-rule="evenodd" clip-rule="evenodd" d="M47.633 2.8917C47.0441 4.58772 46.9389 5.41857 46.9449 8.32583C46.952 11.6281 47.0004 11.8986 48.2213 15.476C49.4689 19.1312 49.4903 19.2587 49.5009 23.0034C49.5129 27.186 49.4932 27.2334 47.5687 27.6693C46.8791 27.8255 46.6729 27.7079 46.064 26.8113C45.0941 25.3841 42.3161 22.5824 40.9316 21.6354C40.3024 21.205 38.4362 20.1665 36.7845 19.3277C34.3205 18.0764 33.3661 17.3882 31.4682 15.4952C30.039 14.0697 28.7294 12.4229 28.0412 11.1859C26.7782 8.915 26.566 9.12636 27.0402 12.1835C27.6325 16 29.0769 18.7782 32.4698 22.6262C34.7973 25.266 36.6003 28.1824 37.3805 30.57C38.0904 32.7428 37.9491 33.5096 36.717 34.1691C36.0752 34.5126 35.877 34.4711 34.7493 33.7587C31.7187 31.8433 27.4884 30.4914 24.5265 30.4914C20.5982 30.4914 15.8642 28.8591 12.5454 26.3606C11.4048 25.502 10.4719 24.9628 10.4719 25.1625C10.4719 25.8575 12.6389 29.1036 14.0532 30.5271C15.8133 32.2983 17.5482 33.4584 21.0541 35.2079C24.5422 36.9482 27.2533 38.9566 28.7717 40.9246L29.9761 42.4856L29.4475 43.5673C28.9436 44.5992 28.867 44.6421 27.7753 44.5057C27.146 44.427 24.8937 44.3707 22.7701 44.3807C19.2091 44.3973 18.6923 44.4708 16.1182 45.3245C11.4057 46.8873 7.03491 46.9982 2.70934 45.6646L0.890625 45.1037L2.32066 46.3862C3.99408 47.8871 7.0432 49.4636 9.47083 50.0831C10.4147 50.3239 12.7313 50.6545 14.619 50.8179C19.1244 51.2077 21.3578 51.7371 23.9373 53.0264L26.0592 54.0869V55.4918V56.8969L24.3169 57.2521C20.7378 57.9823 17.4742 59.5903 14.905 61.8897C11.0736 65.3187 7.78453 66.6704 1.31964 67.4732C0.804537 67.5372 1.20409 67.7572 2.74967 68.2606C4.54179 68.8443 5.43585 68.9558 8.1838 68.939C11.0933 68.9212 11.869 68.8008 14.905 67.8945C20.0462 66.36 21.2414 66.1573 24.3377 66.2925C26.8354 66.4018 27.1921 66.4856 27.6694 67.0753C28.6053 68.2308 28.355 69.1369 26.8352 70.097C23.9293 71.9326 21.6261 74.6371 19.5228 78.6835C17.4747 82.6232 14.9959 85.1201 10.9872 87.2806L9.18482 88.2519L10.6723 88.2581C12.7876 88.2676 14.8821 87.7697 17.2045 86.7057C19.2746 85.7573 20.2427 85.0992 24.0005 82.0838C26.5406 80.0457 29.7439 78.3812 32.0605 77.8953L33.6967 77.5521L34.5316 78.4864L35.3665 79.4211L34.5416 80.6252C32.4469 83.6835 31.4393 86.704 31.0563 91.0747C30.6199 96.0524 29.2479 99.5517 26.3959 102.96C25.3408 104.221 25.2956 104.336 25.9294 104.144C27.1203 103.783 29.4773 102.346 30.8244 101.16C32.6071 99.5915 34.1924 97.4355 35.7857 94.4139C37.5967 90.9792 38.5935 89.5623 40.4831 87.7371C42.752 85.5457 43.3972 85.2585 44.6831 85.8686L45.7053 86.3536L45.4634 87.9527C45.3304 88.8322 45.2368 90.9031 45.2557 92.5548C45.2863 95.2647 45.3981 95.8651 46.3997 98.704C47.4708 101.74 47.5097 101.98 47.5097 105.568C47.5097 108.608 47.395 109.646 46.8817 111.258L46.2536 113.23L47.2749 112.259C50.0641 109.608 51.4629 105.997 52.0801 99.8566C52.5297 95.3834 53.2139 92.9215 54.7048 90.4098C55.3995 89.2394 55.7167 88.9637 56.452 88.8911C57.923 88.7461 58.3597 89.1777 58.7615 91.1731C59.3164 93.9291 61.0805 97.2305 63.3968 99.848C66.919 103.828 68.5982 107.365 69.0335 111.722L69.2471 113.862L69.9235 112.146C70.406 110.922 70.6425 109.624 70.7492 107.615C70.918 104.43 70.6763 103.022 69.1933 98.561C68.124 95.3437 67.6915 91.6179 68.0839 89.0018C68.263 87.8091 68.404 87.5972 69.258 87.2403C70.557 86.6977 71.0332 86.7292 71.2371 87.3715C71.4731 88.1152 74.0352 90.9975 75.6385 92.3232C76.3701 92.9278 78.4485 94.1911 80.2575 95.1303C84.9855 97.5851 87.4314 99.8028 89.5668 103.57C90.7697 105.693 90.802 105.699 90.6504 103.8C90.3407 99.9144 89.0648 96.8198 86.5251 93.7935C85.7554 92.8763 84.5387 91.418 83.8214 90.5528C81.1736 87.3589 79.2797 82.9476 79.9369 81.505C80.1088 81.1283 80.5661 80.6755 80.9537 80.4991C81.5586 80.2234 81.8523 80.3017 83.0315 81.0528C85.9714 82.9256 90.1857 84.2575 93.1873 84.2629C94.9706 84.2661 97.8469 84.7774 99.6542 85.4124C101.501 86.0619 104.755 87.9441 106.155 89.1737C107.445 90.306 107.434 89.7191 106.124 87.5328C104.193 84.309 101.472 82.0078 96.8459 79.6851C92.5598 77.5329 90.4088 75.9044 88.4576 73.3346C87.6599 72.2841 87.6883 71.1707 88.5323 70.407C88.9498 70.0289 89.2816 70.0092 90.7188 70.2775C93.6509 70.8243 98.2983 70.4577 101.381 69.436C106.179 67.8461 110.066 67.7094 114.416 68.9773C116.422 69.5619 116.566 69.4978 115.436 68.5217C112.565 66.0394 109.415 64.7321 105.139 64.2476C98.8949 63.5403 97.7325 63.3538 96.114 62.8015C95.1796 62.4826 93.7713 61.8715 92.9848 61.4433C91.6117 60.6962 91.5513 60.6113 91.4681 59.3157C91.386 58.0398 91.4246 57.9577 92.1831 57.803C96.7667 56.8683 99.5587 55.5556 102.888 52.7696C106.78 49.5137 110.915 47.8099 116.151 47.3054C116.92 47.2313 116.845 47.169 115.436 46.7085C110.989 45.2545 107.413 45.4038 101.631 47.2848C98.5851 48.2758 98.2142 48.331 94.462 48.3485C90.6378 48.3662 90.4866 48.3442 89.9574 47.6915C89.0528 46.5761 89.2484 45.7575 90.6253 44.8975C91.2937 44.4797 92.8061 43.1589 93.9858 41.9622C95.6713 40.2528 96.4967 39.0933 97.8386 36.5507C99.9497 32.55 102.18 30.1693 105.858 27.9888L108.391 26.4873L107.123 26.4921C103.258 26.5073 99.2692 28.2293 94.8439 31.7935C88.9495 36.5407 83.5863 38.3691 82.7392 35.9203C82.5381 35.3397 82.7283 34.8201 83.7831 33.0654C85.5352 30.1513 86.2408 27.8758 86.5648 24.0951C86.8757 20.4642 87.6348 17.6099 88.8946 15.333C89.761 13.7668 91.4338 11.5225 92.2632 10.8135C92.635 10.4958 92.5938 10.4692 91.9838 10.6313C90.8092 10.9439 88.7305 12.1543 87.1697 13.4345C85.3725 14.9088 83.5569 17.3136 81.9578 20.3384C80.2066 23.6501 78.7974 25.6244 77.0431 27.2237C74.7319 29.3307 74.1882 29.5595 72.9237 28.9566C71.923 28.4793 71.897 28.4275 72.0754 27.2612C72.7942 22.5621 72.5828 20.1222 71.0627 15.5738C69.568 11.1018 69.6241 6.91839 71.2443 2.03368C71.5895 0.992611 68.6754 4.40009 67.7727 6.09268C66.5132 8.4551 66.029 10.3828 65.5482 14.9497C65.0886 19.3174 64.3561 21.9786 62.9781 24.2896C62.1679 25.6484 61.9966 25.7794 60.9263 25.858C59.5074 25.9619 59.2992 25.7268 58.8233 23.4842C58.3614 21.3071 56.8833 18.1116 55.6295 16.5786C55.0964 15.9265 53.8554 14.4055 52.8718 13.1988C50.3032 10.0462 49.3345 7.78127 48.7018 3.44827L48.3283 0.889648L47.633 2.8917Z" fill="url(#paint0_radial_9560_421)"/>
</g>
<g filter="url(#filter1_f_9560_421)">
<circle cx="58.1587" cy="58.9224" r="22.8267" fill="url(#paint1_radial_9560_421)"/>
</g>
<defs>
<filter id="filter0_nf_9560_421" x="0.000771582" y="-0.00020498" width="117.526" height="114.752" filterUnits="userSpaceOnUse" color-interpolation-filters="sRGB">
<feFlood flood-opacity="0" result="BackgroundImageFix"/>
<feBlend mode="normal" in="SourceGraphic" in2="BackgroundImageFix" result="shape"/>
<feTurbulence type="fractalNoise" baseFrequency="1.9882272481918335 1.9882272481918335" stitchTiles="stitch" numOctaves="3" result="noise" seed="4912" />
<feColorMatrix in="noise" type="luminanceToAlpha" result="alphaNoise" />
<feComponentTransfer in="alphaNoise" result="coloredNoise1">
<feFuncA type="discrete" tableValues="1 1 1 1 1 1 1 1 1 1 1 1 1 1 1 1 1 1 1 1 1 1 1 1 1 1 1 1 1 1 1 1 1 1 1 1 1 1 1 1 1 1 1 1 1 1 1 1 1 1 1 0 0 0 0 0 0 0 0 0 0 0 0 0 0 0 0 0 0 0 0 0 0 0 0 0 0 0 0 0 0 0 0 0 0 0 0 0 0 0 0 0 0 0 0 0 0 0 0 0 "/>
</feComponentTransfer>
<feComposite operator="in" in2="shape" in="coloredNoise1" result="noise1Clipped" />
<feFlood flood-color="#FF704D" result="color1Flood" />
<feComposite operator="in" in2="noise1Clipped" in="color1Flood" result="color1" />
<feMerge result="effect1_noise_9560_421">
<feMergeNode in="shape" />
<feMergeNode in="color1" />
</feMerge>
<feGaussianBlur stdDeviation="0.444927" result="effect2_foregroundBlur_9560_421"/>
</filter>
<filter id="filter1_f_9560_421" x="28.1645" y="28.9281" width="59.9894" height="59.9885" filterUnits="userSpaceOnUse" color-interpolation-filters="sRGB">
<feFlood flood-opacity="0" result="BackgroundImageFix"/>
<feBlend mode="normal" in="SourceGraphic" in2="BackgroundImageFix" result="shape"/>
<feGaussianBlur stdDeviation="3.58379" result="effect1_foregroundBlur_9560_421"/>
</filter>
<radialGradient id="paint0_radial_9560_421" cx="0" cy="0" r="1" gradientUnits="userSpaceOnUse" gradientTransform="translate(58.9245 57.376) rotate(92.5638) scale(51.8956 53.1699)">
<stop stop-color="#FFE64A"/>
<stop offset="1" stop-color="#FF704D"/>
</radialGradient>
<radialGradient id="paint1_radial_9560_421" cx="0" cy="0" r="1" gradientUnits="userSpaceOnUse" gradientTransform="translate(58.1587 58.9224) rotate(90) scale(31.0708)">
<stop offset="0.422676" stop-color="#FFEF88"/>
<stop offset="0.583827" stop-color="#FFE64A"/>
<stop offset="1" stop-color="#FE884C" stop-opacity="0"/>
</radialGradient>
</defs>
</svg>
