<svg width="335" height="126" viewBox="0 0 335 126" fill="none" xmlns="http://www.w3.org/2000/svg">
<g filter="url(#filter0_d_8997_2434)">
<path d="M91.9498 20.496C78.8482 18.7631 73.7257 35.0031 70.5695 42.3193C72.0059 45.0417 75.6095 50.9913 78.1763 54.2686C80.1982 56.8501 83.6984 59.5995 84.6178 60.2028C85.5372 60.8061 87.0224 61.1588 87.9048 61.1087C88.7871 61.0587 88.7382 60.7337 88.8212 60.5834C88.9043 60.433 88.8471 59.9629 88.366 59.5532C87.8849 59.1435 88.0185 58.8082 88.0752 58.7322C88.1319 58.6561 88.3934 58.4228 88.9818 58.5715C89.5702 58.7202 90.0456 59.5671 90.6973 60.2949C91.3491 61.0226 91.9638 61.097 92.2418 61.154C92.5197 61.2111 93.2458 61.0971 93.0706 60.1602C92.8953 59.2234 91.4164 58.9796 90.5594 57.8629C89.8738 56.9696 89.5905 55.4903 89.5345 54.8623C90.0028 54.508 90.0224 53.7786 90.0121 53.5971C90.0018 53.4156 89.9459 52.4289 88.9577 51.6906C88.2405 51.1547 85.8392 49.7029 85.2055 49.3309C85.6261 49.5457 86.7433 50.0394 87.3216 50.2904C87.7707 50.4956 88.7041 50.6635 88.8445 49.6942C89.0199 48.4826 86.9624 47.7254 87.1104 47.6442C87.2288 47.5792 87.5709 47.6909 87.7272 47.7548C87.3151 45.3385 84.868 44.1664 83.5711 43.366C81.967 42.376 79.3384 41.9311 79.3384 41.9311C79.3384 41.9311 81.099 41.7584 82.33 41.3972C83.3148 41.1083 83.9433 40.6017 84.1345 40.3845C84.3946 40.127 84.8666 39.622 84.7623 39.0744C84.6868 38.6781 82.9713 38.5327 82.1024 38.4606C84.6643 38.4245 85.7964 38.5059 86.2888 38.0046C86.8083 37.4758 87.2944 36.6128 87.2101 35.9496C87.1549 35.5157 86.1488 35.5364 85.5991 35.5312C86.599 35.4016 87.3556 35.2859 87.9394 34.8158C88.5883 34.2933 88.6398 33.1738 88.4774 33.001C88.2812 32.7921 87.6234 33.013 87.0716 32.9715C90.7527 32.2164 90.2826 30.386 89.5519 29.8812C91.5694 28.8564 91.0892 25.6828 90.7539 26.3173C90.4185 26.9517 89.8594 27.2298 89.7688 27.2471C92.2539 24.1347 92.2583 21.4495 91.9498 20.496Z" fill="url(#paint0_linear_8997_2434)"/>
<path d="M87.0922 47.6452C87.2106 47.5803 87.5527 47.6919 87.709 47.7559C87.2949 45.2996 84.748 43.9875 83.6502 43.4672C82.8479 45.0785 77.9813 49.5422 75.3181 50.2395C75.7152 50.7957 77.7937 53.8043 78.1582 54.2696C80.18 56.8511 83.6802 59.6006 84.5997 60.2039C85.5191 60.8072 87.0042 61.1599 87.8866 61.1098C88.769 61.0598 88.72 60.7348 88.803 60.5844C88.8861 60.4341 88.8289 59.9639 88.3478 59.5543C87.8667 59.1446 88.0003 58.8093 88.057 58.7332C88.1138 58.6572 88.3752 58.4239 88.9636 58.5725C89.552 58.7212 90.0274 59.5682 90.6792 60.2959C91.3309 61.0237 91.9456 61.098 92.2236 61.1551C92.5016 61.2121 93.2277 61.0981 93.0524 60.1613C92.8772 59.2245 91.3982 58.9806 90.5412 57.864C89.8556 56.9707 89.5723 55.4914 89.5163 54.8634C89.9846 54.5091 90.0043 53.7797 89.994 53.5982C89.9837 53.4167 89.9277 52.43 88.9396 51.6916C88.2224 51.1558 85.8211 49.704 85.1874 49.3319C85.608 49.5468 86.7251 50.0404 87.3034 50.2915C87.7526 50.4966 88.6859 50.6646 88.8263 49.6953C89.0018 48.4837 86.9442 47.7265 87.0922 47.6452Z" fill="url(#paint1_linear_8997_2434)"/>
<g filter="url(#filter1_d_8997_2434)">
<path d="M84.0599 49.0162C83.3694 48.0358 80.6515 45.9444 79.3788 45.0213C80.36 45.6696 82.5651 47.0472 83.5358 47.3708C84.7492 47.7754 86.5789 47.7444 85.1701 46.5863C81.1117 43.0586 77.3462 42.4298 75.9708 42.5564C77.3037 46.7412 80.4975 48.6574 82.0032 49.3513C83.4102 49.9998 84.9231 50.2417 84.0599 49.0162Z" fill="url(#paint2_linear_8997_2434)"/>
<path d="M85.6519 25.5155C86.5971 24.6001 87.8956 22.8829 85.5283 23.3377C79.5718 24.9397 76.1051 32.2956 74.5438 37.9074C74.0184 39.7962 73.7087 41.4874 73.5927 42.6953C73.5507 44.4348 75.064 47.3654 76.3384 49.5151C76.4276 49.6695 76.5149 49.8148 76.5992 49.9499C76.8831 50.4179 77.1478 50.8373 77.3712 51.1839C79.163 54.2502 83.3469 58.0548 84.5546 58.8967C85.7866 59.7554 86.8112 59.9339 85.5443 58.5856C84.2773 57.2374 81.334 52.9254 80.65 51.9446C79.8193 50.7537 78.8459 48.6604 78.257 47.9656C77.6681 47.2707 77.25 46.8939 76.3564 45.6701C75.4628 44.4463 74.4836 41.6979 76.5789 41.5062C78.2551 41.3529 79.1029 41.3383 79.9965 40.9482C82.2015 39.9856 81.9921 39.0143 81.6125 38.7809C81.3089 38.5942 79.5793 38.8113 78.7525 38.9432C79.6543 38.6978 81.6387 38.0584 82.362 37.4639C83.266 36.7207 84.5693 35.4816 83.4859 35.2153C82.4024 34.949 80.3368 35.9766 80.0502 35.9928C79.9893 35.9963 80.3297 35.7351 80.6203 35.5919C81.2768 35.3273 82.1277 35.0484 82.7856 34.7088C83.9843 34.0902 86.1507 31.6048 85.8312 30.8218C84.95 29.1022 79.3621 33.0095 78.7803 33.5159C77.8659 34.0776 75.0377 38.5669 75.3541 38.2256C76.4326 37.4361 79.3271 36.1132 80.6203 35.5919C80.3297 35.7351 79.9893 35.9963 80.0502 35.9928C79.3324 36.252 77.3533 37.2018 75.1079 39.8054C72.9947 42.2557 74.9112 47.0453 76.3384 49.5151C75.064 47.3654 73.5507 44.4348 73.5927 42.6953C73.7087 41.4874 74.0184 39.7962 74.5438 37.9074C75.8506 35.095 77.9099 32.4563 78.8013 31.5075C78.0516 32.4604 77.6505 33.7331 79.1913 32.6915C80.3673 31.8965 85.3089 29.6858 86.3449 29.1176C87.2043 28.6462 88.5634 26.245 87.819 26.048C85.4638 25.4242 80.762 29.478 78.8013 31.5075C79.3564 30.5292 83.5538 27.0911 85.6519 25.5155Z" fill="url(#paint3_linear_8997_2434)"/>
</g>
<g filter="url(#filter2_d_8997_2434)">
<path d="M83.6944 50.8562C82.3187 50.0729 80.7191 49.3103 79.9225 49.0017C79.5486 48.852 79.5776 49.3862 80.2943 50.5153C81.0156 51.6515 83.6202 54.6792 84.194 55.239C84.7678 55.7988 85.3994 56.2836 85.9093 56.1183C86.3173 55.9861 86.0515 55.4337 85.8676 55.174C85.7346 54.9245 85.6006 54.6524 85.746 54.4875C85.9342 54.2741 86.8679 55.7174 87.1709 54.9779C87.4739 54.2385 86.542 53.1117 85.6482 52.272C85.1647 51.8178 84.5105 51.321 83.6944 50.8562Z" fill="url(#paint4_linear_8997_2434)"/>
</g>
<path d="M50.306 22.6376C63.1275 19.434 70.0538 34.9905 74.0173 41.9028C72.898 44.7702 69.9904 51.0891 67.8107 54.6357C66.0938 57.4293 62.927 60.557 62.0817 61.2604C61.2364 61.9638 59.8006 62.4822 58.9183 62.5323C58.0359 62.5823 58.0478 62.2539 57.9483 62.1139C57.8488 61.9739 57.8524 61.5003 58.2841 61.0388C58.7158 60.5774 58.5451 60.2593 58.4801 60.1902C58.4152 60.1211 58.129 59.9188 57.5612 60.1331C56.9934 60.3474 56.6168 61.2427 56.0515 62.0394C55.4863 62.8362 54.8839 62.9796 54.6142 63.0677C54.3445 63.1559 53.6101 63.1247 53.6783 62.1741C53.7465 61.2234 55.1884 60.8139 55.9136 59.6075C56.4937 58.6424 56.608 57.1405 56.5925 56.5102C56.0872 56.2112 55.9852 55.4887 55.9749 55.3072C55.9646 55.1257 55.9086 54.1389 56.8069 53.2936C57.4589 52.6801 59.6806 50.966 60.2682 50.5247C59.8746 50.7857 58.8204 51.4025 58.2742 51.7174C57.8511 51.972 56.9427 52.2445 56.6936 51.2973C56.3823 50.1133 58.341 49.1282 58.1847 49.0642C58.0597 49.0131 57.7325 49.1627 57.5844 49.2439C57.7206 46.7965 60.0194 45.3552 61.2175 44.4132C62.6994 43.2482 65.2607 42.5088 65.2607 42.5088C65.2607 42.5088 63.4919 42.5363 62.2279 42.3167C61.2168 42.141 60.535 41.7088 60.3205 41.5146C60.0329 41.2881 59.5069 40.8397 59.5486 40.2839C59.5788 39.8816 61.2668 39.5431 62.122 39.3732C59.5724 39.6271 58.4567 39.836 57.9108 39.3936C57.3349 38.9269 56.7543 38.1245 56.7631 37.4559C56.7688 37.0187 57.7708 36.9254 58.3164 36.858C57.3082 36.8424 56.5435 36.813 55.9102 36.4119C55.2064 35.9662 55.0285 34.8597 55.1704 34.6696C55.3418 34.4399 56.0203 34.585 56.5638 34.4813C52.8209 34.1474 53.081 32.2755 53.7499 31.6914C51.6295 30.9013 51.7477 27.6938 52.1526 28.2862C52.5576 28.8787 53.1446 29.0918 53.2366 29.0987C50.4154 26.2874 50.1074 23.6199 50.306 22.6376Z" fill="url(#paint5_linear_8997_2434)"/>
<path d="M58.2012 49.0636C58.0762 49.0124 57.7489 49.1621 57.6009 49.2433C57.7345 46.7559 60.1167 45.1642 61.1487 44.5231C62.128 46.0333 67.4682 49.918 70.1932 50.3096C69.8616 50.9072 68.1366 54.1315 67.8271 54.6351C66.1102 57.4287 62.9434 60.5563 62.0981 61.2597C61.2528 61.9631 59.8171 62.4816 58.9347 62.5316C58.0524 62.5817 58.0643 62.2533 57.9647 62.1133C57.8652 61.9733 57.8689 61.4997 58.3006 61.0382C58.7323 60.5767 58.5616 60.2587 58.4966 60.1896C58.4317 60.1204 58.1455 59.9182 57.5777 60.1324C57.0099 60.3467 56.6333 61.242 56.068 62.0388C55.5027 62.8356 54.9004 62.979 54.6307 63.0671C54.361 63.1552 53.6266 63.1241 53.6948 62.1734C53.7629 61.2228 55.2049 60.8133 55.9301 59.6069C56.5102 58.6418 56.6244 57.1399 56.609 56.5096C56.1037 56.2105 56.0016 55.488 55.9913 55.3065C55.981 55.125 55.9251 54.1383 56.8234 53.293C57.4753 52.6794 59.697 50.9654 60.2846 50.5241C59.891 50.7851 58.8368 51.4019 58.2907 51.7167C57.8676 51.9714 56.9592 52.2438 56.7101 51.2966C56.3987 50.1126 58.3575 49.1276 58.2012 49.0636Z" fill="url(#paint6_linear_8997_2434)"/>
<g filter="url(#filter3_d_8997_2434)">
<path d="M61.3732 50.0824C61.9484 49.0302 64.4123 46.6449 65.5724 45.5838C64.6708 46.3389 62.6357 47.957 61.7078 48.3884C60.548 48.9276 58.7265 49.1037 59.9953 47.7937C63.6286 43.8296 67.2989 42.779 68.6798 42.7492C67.8288 47.058 64.8721 49.3231 63.4546 50.1828C62.1299 50.9863 60.6541 51.3977 61.3732 50.0824Z" fill="url(#paint7_linear_8997_2434)"/>
<path d="M57.1291 26.9128C56.0865 26.1101 54.6021 24.5509 57.0056 24.735C63.1051 25.6531 67.3815 32.5696 69.5674 37.9689C70.3031 39.7861 70.802 41.4315 71.0539 42.6184C71.2924 44.3421 70.1203 47.425 69.0972 49.705C69.026 49.8685 68.9557 50.0228 68.8872 50.1666C68.658 50.6637 68.4425 51.1103 68.2597 51.4799C66.8262 54.7293 63.0994 58.9827 61.9947 59.9557C60.8677 60.9483 59.8699 61.2415 60.9762 59.7586C62.0825 58.2757 64.5193 53.6585 65.088 52.6066C65.7787 51.3294 66.5091 49.1395 67.0156 48.3825C67.5221 47.6255 67.895 47.2037 68.6444 45.8867C69.3939 44.5697 70.0559 41.7283 67.9524 41.7748C66.2696 41.812 65.4256 41.8934 64.4936 41.6069C62.1939 40.8998 62.2922 39.911 62.6429 39.6362C62.9234 39.4164 64.6665 39.4365 65.5029 39.474C64.5791 39.3322 62.5351 38.9214 61.7493 38.4124C60.7669 37.7763 59.3319 36.6925 60.3782 36.3054C61.4246 35.9183 63.5932 36.7056 63.8798 36.6894C63.9407 36.6859 63.573 36.4649 63.2681 36.3555C62.5858 36.1668 61.7089 35.9859 61.0167 35.7229C59.7558 35.2439 57.3222 33.0194 57.5511 32.2053C58.2322 30.3971 64.2261 33.6473 64.8614 34.0847C65.8335 34.5393 69.1513 38.68 68.7983 38.3767C67.6375 37.7143 64.6119 36.7272 63.2681 36.3555C63.573 36.4649 63.9407 36.6859 63.8798 36.6894C64.6224 36.8657 66.6961 37.5856 69.2216 39.9185C71.5984 42.1141 70.2359 47.0897 69.0972 49.705C70.1203 47.425 71.2924 44.3421 71.0539 42.6184C70.802 41.4315 70.3031 39.7861 69.5674 37.9689C67.951 35.3223 65.6065 32.9334 64.6134 32.0916C65.4661 32.9535 66.0085 34.1727 64.3598 33.312C63.1015 32.6551 57.9416 31.0176 56.8479 30.5701C55.9407 30.199 54.3188 27.9669 55.0361 27.687C57.3057 26.8008 62.4358 30.2968 64.6134 32.0916C63.9512 31.1824 59.392 28.241 57.1291 26.9128Z" fill="url(#paint8_linear_8997_2434)"/>
</g>
<g filter="url(#filter4_d_8997_2434)">
<path d="M61.9368 51.8688C63.215 50.9348 64.7182 49.9963 65.4748 49.5995C65.8293 49.4086 65.8609 49.9426 65.2765 51.1455C64.6883 52.3559 62.4428 55.6588 61.936 56.2799C61.4292 56.901 60.8566 57.4542 60.3312 57.3476C59.9109 57.2623 60.1125 56.6834 60.2658 56.4047C60.3698 56.1417 60.4722 55.8562 60.309 55.7088C60.0979 55.518 59.3334 57.0576 58.9487 56.3572C58.5641 55.6568 59.3625 54.4318 60.1556 53.4965C60.5846 52.9905 61.1785 52.4229 61.9368 51.8688Z" fill="url(#paint9_linear_8997_2434)"/>
</g>
<g filter="url(#filter5_d_8997_2434)">
<path d="M50.3442 65.5019C49.4704 61.2447 49.3196 58.987 49.9231 55.2637C47.0101 55.892 44.6736 56.4945 40.6724 60.1309C39.0739 61.1308 37.7595 62.2805 34.9105 62.8784C34.973 61.0776 34.6989 60.1431 33.9657 58.5373C32.8786 56.0337 31.8816 54.847 29.7126 52.9435C27.6172 50.9232 26.7225 49.7357 25.7849 47.4966C24.9021 44.1748 26.8075 42.8609 29.2938 42.7587C31.78 42.6564 35.0216 43.816 39.1153 45.5596C43.3735 47.0571 45.6316 47.5043 49.6688 47.5291L49.2763 37.9842C43.6546 38.938 41.2327 39.4375 34.8052 38.5794C28.3776 37.7212 25.96 36.8587 25.3842 31.5423C24.8083 26.2258 27.6755 23.1917 32.182 22.9301C36.6884 22.6686 38.7919 25.2756 41.5261 29.6499C44.2603 34.0242 46.9027 33.0609 49.0701 32.9718C47.886 26.5878 47.541 23.3392 48.5021 19.1609L17.2012 20.4482C18.9069 21.5532 21.435 65.943 19.107 66.7866L50.3442 65.5019Z" fill="white"/>
</g>
<g filter="url(#filter6_d_8997_2434)">
<path d="M329.964 74.1426C329.266 69.7068 329.209 67.3676 329.964 63.5462C327.03 64.0716 324.674 64.5948 320.531 68.1821C318.894 69.1473 317.535 70.2793 314.667 70.776C314.803 68.9181 314.568 67.9409 313.902 66.2505C312.92 63.6175 311.973 62.3489 309.886 60.29C307.878 58.1135 307.034 56.8485 306.19 54.495C305.445 51.0253 307.401 49.7487 309.886 49.7487C312.372 49.7487 315.56 51.0846 319.575 53.0601C323.763 54.7884 325.999 55.3464 330.028 55.5436V45.6646C324.377 46.4112 321.939 46.8245 315.559 45.6646C309.179 44.5048 306.801 43.5109 306.445 37.9933C306.088 32.4756 309.075 29.4624 313.583 29.3836C318.092 29.3049 320.084 32.0879 322.634 36.7239C325.183 41.3598 327.86 40.4768 330.028 40.4768C329.108 33.8303 328.897 30.459 330.028 26.1826H298.732C300.39 27.3968 301.091 73.37 298.732 74.1426H329.964Z" fill="white"/>
</g>
<g filter="url(#filter7_d_8997_2434)">
<path d="M112.192 62.96H92.9556C93.8002 62.1821 94.4114 61.1041 94.7892 59.7262C95.1893 58.3482 95.4337 56.9257 95.5226 55.4589C95.6115 53.9698 95.656 52.7696 95.656 51.8583V27.7215C95.656 25.9212 95.6115 24.321 95.5226 22.9208C95.4337 21.5206 95.1893 20.2982 94.7892 19.2536C94.4114 18.1868 93.8002 17.2978 92.9556 16.5865H117.459C120.86 16.631 123.538 17.22 125.494 18.3535C127.472 19.487 128.872 20.9538 129.694 22.7541C130.517 24.5544 130.928 26.4435 130.928 28.4216C130.928 31.0442 130.45 33.1445 129.494 34.7225C128.539 36.3005 127.272 37.5229 125.694 38.3897C124.138 39.2343 122.404 39.8566 120.493 40.2567C118.604 40.6567 116.704 40.979 114.792 41.2235C113.014 41.4679 111.347 41.7569 109.791 42.0903C108.258 42.4014 106.947 42.8904 105.857 43.5571C104.457 44.4462 103.757 45.5352 103.757 46.8243C103.802 47.8467 104.113 48.8357 104.691 49.7914C105.269 50.7248 105.946 51.6694 106.724 52.6251C107.458 53.5141 108.124 54.4365 108.725 55.3922C109.347 56.3257 109.78 57.3369 110.025 58.426C110.358 60.404 111.08 61.9154 112.192 62.96ZM100.857 42.5237C101.635 41.279 102.735 40.2678 104.157 39.4899C105.602 38.712 107.158 38.0008 108.825 37.3562C110.025 36.8895 111.192 36.3894 112.325 35.856C113.459 35.3226 114.481 34.7003 115.392 33.9891C116.326 33.2556 117.07 32.3777 117.626 31.3554C118.181 30.3108 118.459 29.055 118.459 27.5881C118.459 25.8768 117.937 24.4766 116.892 23.3875C115.87 22.2985 114.359 21.7317 112.358 21.6873C111.18 21.6873 110.125 21.9873 109.191 22.5874C108.28 23.1653 107.458 23.8987 106.724 24.7877C105.991 25.6768 105.302 26.5769 104.657 27.4881L103.757 28.7216C102.846 29.9663 102.179 31.2442 101.757 32.5555C101.357 33.8668 101.101 35.3226 100.99 36.9228C100.901 38.5231 100.857 40.39 100.857 42.5237Z" fill="white"/>
</g>
<g filter="url(#filter8_d_8997_2434)">
<path d="M196.323 28.0957C192.727 28.0957 190.396 29.4943 190.396 32.2247C190.396 37.952 206.579 41.8146 206.579 52.1371C206.579 60.6615 198.72 65.9892 185.934 65.9892C179.674 65.9892 178.075 65.19 172.348 65.19C173.88 59.5959 174.146 57.0653 172.615 51.4711C174.679 54.8676 178.875 56.3993 182.271 56.3993C186 56.3993 188.132 54.7344 188.132 52.7365C188.132 46.6762 173.214 43.7459 173.214 32.7575C173.214 24.0999 179.74 18.5058 192.327 18.5058C198.587 18.5058 200.186 19.3716 205.913 19.3716C204.381 24.8991 204.181 27.4298 205.646 33.0239C203.515 29.6941 200.052 28.0957 196.323 28.0957Z" fill="white"/>
</g>
<g filter="url(#filter9_d_8997_2434)">
<path d="M230.961 72.9141C226.258 72.9141 222.523 72.134 219.754 70.5739C216.986 68.9918 214.997 66.7176 213.789 63.7512C212.602 60.7848 212.009 57.2141 212.009 53.0392C212.009 51.3033 212.02 49.9629 212.042 49.0181C212.064 48.0732 212.075 46.656 212.075 44.7663C212.075 35.0321 211.108 28.4071 209.174 24.8914L229.049 24.9244C228.829 27.2535 228.302 29.374 227.467 31.2856C226.654 33.1753 225.753 34.9662 224.764 36.6581C224.105 37.7787 223.501 38.8994 222.951 40.02C222.402 41.1407 221.952 42.2943 221.6 43.4808C221.249 44.6454 221.073 45.8759 221.073 47.1723C221.161 49.8311 222.16 51.8307 224.072 53.171C225.984 54.4894 228.269 55.1486 230.928 55.1486C233.696 55.1486 236.015 54.4894 237.882 53.171C239.772 51.8307 240.761 49.8311 240.849 47.1723C240.849 45.8759 240.673 44.6454 240.321 43.4808C239.97 42.2943 239.508 41.1407 238.937 40.02C238.388 38.8994 237.794 37.7678 237.157 36.6252C236.168 34.9332 235.256 33.1424 234.422 31.2527C233.608 29.341 233.081 27.2316 232.839 24.9244L252.747 24.8914C250.814 28.4071 249.847 35.0321 249.847 44.7663L249.88 48.5237C249.902 49.4466 249.913 50.9517 249.913 53.0392C249.913 57.2141 249.308 60.7848 248.1 63.7512C246.913 66.7176 244.936 68.9918 242.167 70.5739C239.398 72.134 235.663 72.9141 230.961 72.9141Z" fill="white"/>
</g>
<g filter="url(#filter10_d_8997_2434)">
<path d="M276.19 39.5275C277.489 39.6135 278.585 39.297 279.48 38.5782C280.397 37.8608 281.112 36.9127 281.624 35.7337C282.162 34.5335 282.473 33.2841 282.559 31.9854C282.644 30.7095 282.518 29.4883 282.184 28.3219C281.849 27.1556 281.295 26.1921 280.521 25.4315C279.749 24.6481 278.737 24.2149 277.484 24.132C275.274 23.9857 273.343 24.2812 271.693 25.0187C270.066 25.7349 268.789 26.703 267.862 27.9231C266.934 29.1433 266.426 30.4255 266.337 31.7697C266.21 33.6836 266.933 35.3792 268.506 36.8563C270.08 38.3107 272.642 39.2011 276.19 39.5275ZM294.186 65.8456L277.815 64.762C278.263 63.8762 278.522 62.8979 278.593 61.8271C278.717 59.9587 278.403 57.9585 277.651 55.8263C276.9 53.6941 275.957 51.6865 274.823 49.8036C273.691 47.8979 272.559 46.3355 271.426 45.1163C270.296 43.8744 269.4 43.2315 268.739 43.1878C268.261 43.1561 267.752 43.2369 267.213 43.43C266.698 43.6019 266.241 43.9378 265.842 44.4377C265.467 44.9164 265.249 45.6114 265.189 46.5227C265.145 47.1835 265.308 48.0067 265.678 48.9923C266.071 49.9566 266.549 51.0409 267.11 52.2451C267.695 53.428 268.253 54.6779 268.784 55.9945C269.338 57.3127 269.785 58.6696 270.128 60.0653C270.47 61.461 270.595 62.8652 270.501 64.2778L253.037 63.1218C253.951 62.45 254.649 61.5923 255.13 60.5486C255.611 59.5048 255.944 58.2683 256.13 56.8389C256.317 55.4095 256.471 53.7721 256.593 51.9265L258.231 27.1827C258.294 26.2257 258.33 24.9923 258.338 23.4825C258.348 21.9499 258.195 20.4638 257.878 19.024C257.562 17.5842 256.997 16.4369 256.184 15.5822L280.825 17.2132C284.243 17.4395 286.961 18.203 288.981 19.5037C291.001 20.7817 292.428 22.3865 293.262 24.3182C294.096 26.2271 294.444 28.241 294.303 30.3599C294.003 34.894 292.456 38.3845 289.663 40.8312C286.869 43.278 283.202 44.5685 278.662 44.7028C279.595 45.474 281.892 46.3812 285.553 47.4245C287.457 48.0539 288.807 49.4363 289.604 51.5715C290.402 53.6839 290.996 55.9544 291.384 58.383C291.707 60.0749 292.064 61.5974 292.455 62.9506C292.869 64.3053 293.446 65.2703 294.186 65.8456Z" fill="white"/>
</g>
<g filter="url(#filter11_d_8997_2434)">
<path d="M198.853 107.633L184.201 105.495C181.775 105.14 180.039 104.361 178.996 103.156C177.952 101.95 177.554 100.454 177.802 98.6673C177.991 97.3724 178.339 96.3062 178.846 95.4687C179.368 94.6204 180.033 93.9343 180.842 93.4103C181.663 92.8882 182.623 92.4634 183.724 92.1362C185.851 91.5479 188 91.1232 190.169 90.8621C191.192 90.7161 192.125 90.5698 192.968 90.4232C193.813 90.2641 194.495 90.0748 195.015 89.8554C195.537 89.6234 195.825 89.3188 195.88 88.9416C195.954 88.4388 195.769 88.0331 195.326 87.7245C194.883 87.4159 194.266 87.2038 193.474 87.0882C191.962 86.8932 190.212 87.0037 188.226 87.4199C186.239 87.8361 184.233 88.564 182.206 89.6036L180.938 80.4822C181.992 80.0326 183.166 79.6391 184.461 79.3016C185.77 78.9535 187.146 78.7178 188.589 78.5946C190.034 78.4588 191.48 78.4964 192.925 78.7075C195.653 79.1056 197.784 79.988 199.318 81.3546C201.053 82.9302 201.726 85.0443 201.339 87.6969C201.189 88.7278 200.832 89.5873 200.269 90.2756C199.719 90.9656 199.027 91.5322 198.192 91.9753C197.357 92.4183 196.438 92.7722 195.437 93.0369C194.45 93.2908 193.432 93.4889 192.384 93.6313C191.336 93.7737 190.323 93.8955 189.346 93.9967C188.37 94.0854 187.482 94.1869 186.682 94.3012C185.895 94.4174 185.255 94.5808 184.762 94.7913C184.271 94.9893 183.997 95.2768 183.942 95.654C183.882 96.0688 184.066 96.4359 184.494 96.7552C184.923 97.0746 185.511 97.353 186.26 97.5907C187.01 97.8158 187.85 97.9962 188.781 98.132C190.44 98.3742 192.142 98.4557 193.887 98.3765C195.645 98.2992 196.97 98.0562 197.865 97.6475L198.853 107.633Z" fill="white"/>
</g>
<g filter="url(#filter12_d_8997_2434)">
<path d="M270.22 97.4604C271.52 97.3145 272.627 96.8707 273.541 96.1289C274.466 95.3731 274.886 94.4375 274.799 93.3222C274.653 92.2519 274.216 91.4891 273.487 91.0339C272.771 90.5773 271.877 90.4092 270.804 90.5296C268.697 90.7788 266.806 91.8156 265.131 93.6399C264.726 94.1328 264.548 94.6002 264.598 95.0421C264.658 95.5723 265.004 96.0385 265.637 96.4404C266.326 96.8873 267.07 97.1937 267.869 97.3598C268.666 97.5133 269.45 97.5468 270.22 97.4604ZM270.558 105.093C268.854 105.284 267.3 105.05 265.896 104.389C264.505 103.727 263.292 102.77 262.256 101.518C261.22 100.254 260.379 98.8011 259.735 97.1602C259.103 95.518 258.689 93.8194 258.492 92.0644C258.302 90.3726 258.326 88.7079 258.564 87.0703C258.814 85.4187 259.297 83.9135 260.014 82.5546C260.742 81.1817 261.72 80.0491 262.95 79.1569C264.178 78.252 265.682 77.6997 267.462 77.5C268.7 77.3611 269.859 77.3206 270.939 77.3784C272.03 77.4221 273.084 77.6426 274.101 78.04C275.128 78.4233 276.163 79.0423 277.205 79.897L276.153 86.2475C274.972 85.5234 273.661 85.0057 272.22 84.6944C270.79 84.369 269.463 84.275 268.238 84.4125C266.988 84.5527 265.962 84.9235 265.16 85.5248C264.371 86.1248 263.776 86.8627 263.376 87.7386C262.987 88.6005 262.783 89.5183 262.764 90.492C262.765 90.7221 262.775 90.9255 262.794 91.1022C262.837 91.481 262.934 91.6619 263.085 91.6449C263.262 91.6251 263.517 91.4431 263.849 91.099C265.817 89.1523 268.095 88.0338 270.683 87.7434C271.907 87.606 273.012 87.7121 273.998 88.0618C274.983 88.4115 275.835 88.936 276.552 89.6353C277.268 90.322 277.838 91.1274 278.262 92.0516C278.697 92.9743 278.972 93.9407 279.085 94.9507C279.21 96.0618 279.138 97.1821 278.868 98.3118C278.597 99.4289 278.113 100.468 277.415 101.428C276.729 102.374 275.815 103.18 274.676 103.845C273.547 104.496 272.174 104.912 270.558 105.093Z" fill="white"/>
</g>
<g filter="url(#filter13_d_8997_2434)">
<path d="M258.085 108.022L244.036 112.7C241.71 113.475 239.81 113.559 238.335 112.951C236.861 112.344 235.833 111.187 235.251 109.479C234.837 108.238 234.669 107.129 234.746 106.153C234.83 105.16 235.116 104.248 235.602 103.417C236.101 102.581 236.768 101.77 237.604 100.983C239.24 99.5008 240.967 98.1555 242.788 96.9467C243.636 96.3564 244.403 95.8062 245.09 95.2962C245.774 94.7741 246.298 94.2982 246.664 93.8684C247.026 93.4266 247.146 93.0249 247.026 92.6633C246.865 92.1811 246.518 91.9018 245.983 91.8253C245.449 91.7488 244.802 91.837 244.043 92.0898C242.604 92.5956 241.091 93.481 239.504 94.7461C237.917 96.0111 236.452 97.5635 235.109 99.4031L229.875 91.8263C230.614 90.9507 231.486 90.0711 232.491 89.1875C233.504 88.2879 234.627 87.4586 235.861 86.6997C237.09 85.9287 238.398 85.3124 239.784 84.8508C242.4 83.9798 244.7 83.8098 246.685 84.3407C248.943 84.9682 250.495 86.5536 251.342 89.097C251.671 90.0854 251.739 91.0135 251.546 91.8813C251.365 92.745 251.001 93.5625 250.454 94.3337C249.908 95.1049 249.246 95.8339 248.471 96.5206C247.703 97.1913 246.884 97.8259 246.012 98.4242C245.14 99.0226 244.29 99.5868 243.462 100.117C242.63 100.635 241.883 101.125 241.22 101.587C240.569 102.044 240.07 102.478 239.725 102.888C239.375 103.285 239.26 103.665 239.381 104.027C239.513 104.424 239.843 104.67 240.369 104.762C240.895 104.855 241.546 104.839 242.321 104.715C243.093 104.578 243.925 104.362 244.817 104.065C246.408 103.535 247.965 102.842 249.488 101.987C251.023 101.128 252.098 100.314 252.713 99.5472L258.085 108.022Z" fill="white"/>
</g>
<g filter="url(#filter14_d_8997_2434)">
<path d="M216.422 111.233C214.593 111.247 212.829 110.773 211.132 109.808C209.434 108.844 208.037 107.356 206.941 105.344C205.793 103.232 205.193 100.531 205.141 97.2404C205.118 94.4582 205.505 92.041 206.302 89.989C207.111 87.9369 208.337 86.3452 209.979 85.2138C211.634 84.0696 213.713 83.4873 216.216 83.467C218.706 83.4468 220.781 83.9889 222.442 85.0935C224.115 86.1853 225.367 87.7569 226.197 89.8084C227.039 91.8471 227.472 94.283 227.495 97.1161C227.482 100.292 226.951 102.927 225.901 105.019C224.863 107.098 223.497 108.653 221.803 109.683C220.109 110.701 218.315 111.217 216.422 111.233ZM216.35 99.9699C217.697 99.959 218.819 99.6831 219.716 99.1422C220.627 98.6012 221.307 97.9159 221.758 97.0864C222.209 96.2442 222.43 95.3721 222.423 94.4701C222.416 93.5808 222.18 92.7315 221.716 91.9221C221.265 91.1126 220.586 90.4511 219.68 89.9376C218.774 89.424 217.634 89.1728 216.262 89.1839C214.89 89.1951 213.749 89.4648 212.839 89.9931C211.941 90.5213 211.273 91.1938 210.835 92.0105C210.397 92.8271 210.181 93.6801 210.189 94.5694C210.196 95.4715 210.432 96.3399 210.896 97.1746C211.36 97.9967 212.045 98.6709 212.951 99.1971C213.87 99.7233 215.003 99.9809 216.35 99.9699Z" fill="white"/>
</g>
<g filter="url(#filter15_nf_8997_2434)">
<path fill-rule="evenodd" clip-rule="evenodd" d="M146.563 15.0885C146.278 15.908 146.227 16.3095 146.23 17.7143C146.234 19.3099 146.257 19.4407 146.847 21.1693C147.45 22.9355 147.46 22.9971 147.465 24.8066C147.471 26.8276 147.462 26.8505 146.532 27.0612C146.198 27.1366 146.099 27.0798 145.805 26.6466C145.336 25.9569 143.994 24.6031 143.325 24.1456C143.021 23.9376 142.119 23.4358 141.321 23.0304C140.13 22.4258 139.669 22.0933 138.752 21.1785C138.061 20.4898 137.428 19.694 137.096 19.0963C136.486 17.999 136.383 18.1011 136.612 19.5783C136.898 21.4225 137.596 22.7649 139.236 24.6243C140.36 25.8999 141.232 27.3091 141.609 28.4628C141.952 29.5127 141.883 29.8832 141.288 30.2019C140.978 30.3679 140.882 30.3478 140.337 30.0036C138.873 29.0781 136.829 28.4248 135.398 28.4248C133.499 28.4248 131.212 27.6361 129.608 26.4288C129.057 26.0139 128.606 25.7534 128.606 25.8498C128.606 26.1857 129.653 27.7542 130.337 28.4421C131.187 29.2979 132.026 29.8585 133.72 30.7038C135.405 31.5448 136.715 32.5152 137.449 33.4662L138.031 34.2205L137.775 34.7431C137.532 35.2418 137.495 35.2625 136.967 35.1966C136.663 35.1586 135.575 35.1313 134.549 35.1362C132.828 35.1442 132.578 35.1797 131.335 35.5922C129.057 36.3474 126.946 36.401 124.855 35.7566L123.977 35.4855L124.668 36.1052C125.476 36.8305 126.95 37.5923 128.123 37.8916C128.579 38.008 129.698 38.1677 130.61 38.2466C132.787 38.435 133.866 38.6908 135.113 39.3138L136.138 39.8263V40.5051V41.1841L135.296 41.3557C133.567 41.7085 131.99 42.4855 130.748 43.5966C128.897 45.2535 127.308 45.9066 124.184 46.2946C123.935 46.3255 124.128 46.4318 124.875 46.675C125.741 46.9571 126.173 47.011 127.501 47.0028C128.907 46.9943 129.281 46.9361 130.748 46.4981C133.233 45.7567 133.81 45.6587 135.306 45.7241C136.513 45.7769 136.686 45.8174 136.916 46.1023C137.368 46.6607 137.247 47.0985 136.513 47.5624C135.109 48.4494 133.996 49.7562 132.98 51.7115C131.99 53.6152 130.792 54.8216 128.855 55.8656L127.984 56.3349L128.703 56.338C129.725 56.3425 130.737 56.1019 131.859 55.5878C132.86 55.1296 133.328 54.8116 135.143 53.3545C136.371 52.3697 137.919 51.5654 139.038 51.3306L139.829 51.1647L140.232 51.6162L140.635 52.0679L140.237 52.6497C139.225 54.1275 138.738 55.587 138.553 57.699C138.342 60.1042 137.679 61.7951 136.301 63.4421C135.791 64.0515 135.769 64.1069 136.075 64.014C136.651 63.8396 137.79 63.1454 138.441 62.5724C139.302 61.8143 140.068 60.7725 140.838 59.3124C141.713 57.6528 142.195 56.9682 143.108 56.0862C144.204 55.0273 144.516 54.8885 145.137 55.1833L145.631 55.4177L145.514 56.1904C145.45 56.6153 145.405 57.616 145.414 58.4141C145.429 59.7236 145.483 60.0137 145.967 61.3854C146.484 62.8523 146.503 62.9687 146.503 64.7022C146.503 66.1709 146.448 66.6727 146.2 67.4516L145.896 68.4043L146.39 67.9353C147.737 66.6544 148.413 64.9097 148.712 61.9424C148.929 59.7809 149.259 58.5913 149.98 57.3776C150.316 56.8121 150.469 56.6789 150.824 56.6438C151.535 56.5737 151.746 56.7823 151.94 57.7465C152.208 59.0782 153.061 60.6734 154.18 61.9382C155.882 63.8614 156.693 65.5706 156.904 67.6759L157.007 68.71L157.334 67.8808C157.567 67.2892 157.681 66.6619 157.733 65.6912C157.814 64.1521 157.697 63.4721 156.981 61.3163C156.464 59.7617 156.255 57.9614 156.445 56.6973C156.531 56.121 156.599 56.0186 157.012 55.8461C157.64 55.584 157.87 55.5992 157.968 55.9096C158.082 56.2689 159.32 57.6616 160.095 58.3022C160.449 58.5944 161.453 59.2048 162.327 59.6586C164.612 60.8448 165.793 61.9164 166.825 63.7368C167.407 64.7624 167.422 64.7657 167.349 63.8479C167.199 61.9703 166.583 60.475 165.356 59.0127C164.984 58.5695 164.396 57.8648 164.049 57.4467C162.77 55.9035 161.855 53.7719 162.172 53.0748C162.255 52.8928 162.476 52.674 162.663 52.5887C162.956 52.4555 163.098 52.4934 163.667 52.8563C165.088 53.7612 167.124 54.4048 168.575 54.4075C169.436 54.409 170.826 54.6561 171.7 54.9629C172.592 55.2767 174.164 56.1862 174.841 56.7803C175.464 57.3275 175.459 57.0439 174.826 55.9875C173.893 54.4297 172.578 53.3178 170.343 52.1954C168.272 51.1555 167.232 50.3686 166.289 49.1268C165.904 48.6192 165.918 48.0812 166.325 47.7122C166.527 47.5295 166.688 47.52 167.382 47.6496C168.799 47.9139 171.044 47.7367 172.534 47.243C174.852 46.4748 176.731 46.4087 178.833 47.0214C179.802 47.3038 179.871 47.2729 179.326 46.8012C177.938 45.6018 176.416 44.9701 174.35 44.736C171.333 44.3942 170.771 44.3041 169.989 44.0372C169.537 43.8831 168.857 43.5878 168.477 43.3809C167.813 43.0199 167.784 42.9789 167.744 42.3528C167.704 41.7363 167.723 41.6967 168.09 41.6219C170.304 41.1703 171.653 40.5359 173.262 39.1897C175.143 37.6165 177.141 36.7932 179.671 36.5494C180.042 36.5136 180.006 36.4835 179.326 36.261C177.176 35.5584 175.449 35.6305 172.655 36.5395C171.183 37.0183 171.004 37.045 169.191 37.0534C167.343 37.062 167.27 37.0514 167.014 36.736C166.577 36.197 166.671 35.8015 167.337 35.3859C167.66 35.184 168.391 34.5458 168.961 33.9676C169.775 33.1415 170.174 32.5813 170.822 31.3527C171.842 29.4195 172.92 28.2692 174.697 27.2155L175.921 26.49L175.309 26.4923C173.441 26.4997 171.514 27.3318 169.375 29.054C166.527 31.3478 163.936 32.2314 163.526 31.0481C163.429 30.7675 163.521 30.5164 164.031 29.6686C164.877 28.2605 165.218 27.1609 165.375 25.3341C165.525 23.5796 165.892 22.2004 166.501 21.1002C166.919 20.3434 167.727 19.2589 168.128 18.9164C168.308 18.7628 168.288 18.75 167.993 18.8283C167.426 18.9794 166.421 19.5642 165.667 20.1828C164.799 20.8952 163.921 22.0572 163.149 23.5188C162.302 25.119 161.622 26.073 160.774 26.8458C159.657 27.864 159.394 27.9745 158.783 27.6832C158.3 27.4525 158.287 27.4275 158.373 26.8639C158.721 24.5933 158.619 23.4143 157.884 21.2166C157.162 19.0557 157.189 17.0342 157.972 14.6739C158.139 14.1708 156.73 15.8174 156.294 16.6352C155.686 17.7768 155.452 18.7082 155.219 20.915C154.997 23.0254 154.643 24.3114 153.978 25.4281C153.586 26.0846 153.503 26.1479 152.986 26.1859C152.3 26.2361 152.2 26.1225 151.97 25.0389C151.747 23.9869 151.033 22.4428 150.427 21.702C150.169 21.387 149.569 20.652 149.094 20.0689C147.853 18.5456 147.385 17.4512 147.079 15.3574L146.899 14.1211L146.563 15.0885Z" fill="url(#paint10_radial_8997_2434)"/>
</g>
<g filter="url(#filter16_f_8997_2434)">
<circle cx="151.645" cy="42.1637" r="11.03" fill="url(#paint11_radial_8997_2434)"/>
</g>
<g filter="url(#filter17_d_8997_2434)">
<path d="M60.0783 89.9456C59.5593 89.8451 59.1289 89.6813 58.7871 89.4544C58.453 89.229 58.1667 88.9645 57.9281 88.6612C57.691 88.35 57.4623 88.0164 57.2419 87.6603C56.9559 87.187 56.6095 86.714 56.2027 86.2415C55.8038 85.7704 55.2457 85.3529 54.5286 84.9889C55.0142 84.1829 55.5754 83.5884 56.2122 83.2054C56.8567 82.8239 57.5004 82.6954 58.1433 82.82C58.7507 82.9617 59.2816 83.2293 59.7358 83.6227C60.19 84.016 60.6229 84.4575 61.0344 84.9471C61.3304 85.2857 61.6326 85.6135 61.9409 85.9304C62.2585 86.241 62.6029 86.5167 62.9742 86.7574C63.347 86.9903 63.7697 87.1525 64.2422 87.2441C64.7379 87.3401 65.1014 87.31 65.3325 87.1539C65.5637 86.9977 65.7025 86.7996 65.7491 86.5595C65.8556 86.0095 65.7366 85.5243 65.392 85.104C65.0553 84.6851 64.5802 84.2958 63.9668 83.9358C63.3548 83.5682 62.6741 83.2033 61.9245 82.8411C61.1764 82.4712 60.4336 82.0741 59.696 81.65C58.9661 81.2273 58.3125 80.7431 57.7351 80.1973C57.1577 79.6515 56.7291 79.0219 56.4493 78.3087C56.1711 77.5878 56.1257 76.7432 56.3132 75.7749C56.4903 74.8609 56.9069 74.162 57.5632 73.6783C58.2194 73.1947 59.0587 72.9072 60.081 72.8158C61.1125 72.7183 62.2634 72.7925 63.5338 73.0386C64.045 73.1376 64.5256 73.2709 64.9753 73.4383C65.4343 73.5996 65.8686 73.7641 66.2781 73.9318C66.9158 74.208 67.5035 74.4102 68.0412 74.5385C68.6919 74.6645 69.2886 74.5711 69.8314 74.2584C69.8131 74.8093 69.7619 75.3017 69.6779 75.7355C69.5369 76.4636 69.316 77.0437 69.0154 77.4757C68.7162 77.9 68.3706 78.1907 67.9785 78.3478C67.5941 78.5064 67.1967 78.546 66.7862 78.4664C66.3834 78.3884 65.8981 78.2382 65.3304 78.0157C64.7705 77.7947 64.1755 77.5469 63.5456 77.2722C62.835 76.9578 62.1284 76.6642 61.4257 76.3915C60.7308 76.1202 60.1007 75.9299 59.5352 75.8203C59.0627 75.7288 58.6658 75.7243 58.3444 75.8067C58.023 75.8891 57.8278 76.1085 57.7588 76.4648C57.7003 76.7669 57.7994 77.0232 58.056 77.2336C58.3203 77.4455 58.6921 77.6421 59.1714 77.8233C59.6506 78.0046 60.1941 78.1862 60.8018 78.3682C61.4699 78.5699 62.1599 78.804 62.8718 79.0705C63.5852 79.3292 64.2703 79.6508 64.9272 80.0352C65.5856 80.4119 66.1548 80.8757 66.6347 81.4268C67.1146 81.9778 67.456 82.6427 67.6588 83.4213C67.8631 84.1923 67.8625 85.1083 67.6569 86.1695C67.5279 86.8357 67.188 87.4289 66.6372 87.9491C66.0864 88.4692 65.4283 88.9003 64.6628 89.2423C63.9051 89.5858 63.1205 89.8196 62.3089 89.9436C61.4972 90.0677 60.7537 90.0684 60.0783 89.9456ZM79.3443 89.9514C79.7781 89.9382 80.1258 89.821 80.3874 89.5998C80.6488 89.3708 80.8329 89.0653 80.9396 88.6831C81.0542 88.3007 81.1043 87.8729 81.0899 87.3997C81.0687 86.7057 80.9317 85.9679 80.6789 85.1862C80.4337 84.3964 80.1112 83.6564 79.7112 82.9661C79.3112 82.2757 78.8678 81.713 78.3808 81.2779C77.8939 80.8429 77.4021 80.6329 76.9052 80.6481C76.3847 80.664 76.0241 80.8763 75.8235 81.285C75.6307 81.6935 75.5443 82.225 75.5643 82.8796C75.5855 83.5736 75.7152 84.3314 75.9534 85.1529C76.1914 85.9666 76.4952 86.7388 76.8649 87.4695C77.2345 88.2003 77.6357 88.7998 78.0683 89.2681C78.5089 89.7361 78.9342 89.9639 79.3443 89.9514ZM78.3429 92.0541C77.3255 92.0852 76.4484 91.9264 75.7116 91.5779C74.9826 91.2292 74.3797 90.7464 73.9031 90.1294C73.4264 89.5125 73.0652 88.8012 72.8196 87.9957C72.5819 87.1899 72.4496 86.3493 72.4229 85.4739C72.3962 84.5985 72.4769 83.7514 72.665 82.9326C72.861 82.1135 73.1781 81.3816 73.6162 80.7367C74.0544 80.0918 74.6266 79.5731 75.3329 79.1805C76.0472 78.7877 76.913 78.5757 77.9303 78.5447C78.9477 78.5136 79.8248 78.6723 80.5616 79.0208C81.2985 79.3693 81.9053 79.8521 82.382 80.469C82.8586 81.0859 83.2158 81.7973 83.4536 82.6031C83.6913 83.4089 83.8236 84.2495 83.8503 85.1249C83.877 86.0003 83.7963 86.8474 83.6082 87.6662C83.4201 88.485 83.1069 89.2168 82.6688 89.8617C82.2307 90.5066 81.6545 91.0254 80.9402 91.4183C80.226 91.8111 79.3602 92.023 78.3429 92.0541ZM94.784 89.978L88.0644 91.2596C88.3072 90.9322 88.4525 90.5149 88.5004 90.0078C88.5482 89.5007 88.5389 88.9884 88.4723 88.4709C88.4043 87.9458 88.3399 87.5243 88.2793 87.2065L86.6739 78.7896C86.5542 78.1618 86.4322 77.6068 86.3081 77.1244C86.184 76.6421 86.0174 76.232 85.8084 75.8944C85.598 75.549 85.3218 75.2804 84.98 75.0885L90.909 73.9576L91.0665 74.7831C91.164 75.2946 91.207 75.8567 91.1953 76.4694C91.1914 77.0806 91.0357 77.7167 90.728 78.3778C90.4868 78.8817 90.3376 79.384 90.2805 79.8849C90.2312 80.3843 90.2464 80.9276 90.3263 81.5147C90.4047 82.0942 90.5385 82.8799 90.7277 83.872C90.8105 84.306 90.9802 84.7114 91.2368 85.0882C91.4997 85.4557 91.7997 85.8282 92.1367 86.2057C92.4247 86.5363 92.7093 86.8917 92.9907 87.2718C93.272 87.6519 93.5135 88.0757 93.7151 88.5433C93.9785 89.2079 94.3347 89.6862 94.784 89.978ZM102.985 89.1794C102.586 89.229 102.238 89.2088 101.94 89.1186C101.644 89.0362 101.374 88.9147 101.132 88.754C100.888 88.5855 100.646 88.4009 100.407 88.2002C100.094 87.9211 99.7352 87.6595 99.3312 87.4156C98.9272 87.1717 98.4213 87.004 97.8136 86.9126C97.9804 86.2081 98.2523 85.6456 98.6294 85.225C99.0054 84.7966 99.4362 84.5522 99.9216 84.4918C100.37 84.4519 100.819 84.5153 101.269 84.682C101.719 84.8486 102.178 85.0539 102.646 85.2979C103.14 85.5624 103.646 85.7937 104.163 85.9917C104.688 86.1809 105.229 86.2487 105.787 86.1952C106.147 86.1504 106.388 86.0449 106.51 85.8786C106.641 85.7113 106.695 85.5376 106.672 85.3576C106.625 84.9739 106.446 84.69 106.137 84.5058C105.828 84.3216 105.431 84.1961 104.945 84.1293C104.467 84.0536 103.935 83.9966 103.35 83.958C102.684 83.9136 101.999 83.8398 101.295 83.7366C100.598 83.6324 99.9374 83.4363 99.3132 83.1482C98.6968 82.8591 98.1696 82.4238 97.7315 81.8422C97.2925 81.2528 97.0096 80.4492 96.883 79.4313C96.7954 78.7267 96.9308 78.1214 97.2893 77.6157C97.6556 77.109 98.1975 76.7037 98.9151 76.3997C99.6316 76.088 100.475 75.8717 101.446 75.751C102.041 75.6769 103.02 75.6506 104.382 75.672C105.171 75.6852 105.778 75.6733 106.203 75.6364C106.719 75.5721 107.138 75.361 107.459 75.003C107.582 75.4092 107.664 75.7807 107.705 76.1173C107.775 76.6732 107.749 77.1415 107.63 77.5221C107.517 77.8939 107.334 78.183 107.082 78.3894C106.837 78.5947 106.558 78.7169 106.245 78.7559C105.947 78.7929 105.566 78.8005 105.103 78.7786C104.638 78.749 104.136 78.712 103.598 78.6676C102.972 78.6183 102.347 78.5808 101.723 78.5549C101.107 78.5203 100.568 78.5317 100.106 78.5892C99.2288 78.6983 98.8205 78.9955 98.8809 79.481C98.9082 79.7002 99.0348 79.8554 99.2608 79.9466C99.4937 80.0289 99.7975 80.0746 100.172 80.0836C100.554 80.0839 100.982 80.0743 101.457 80.055C102.011 80.0338 102.595 80.0288 103.208 80.04C103.821 80.0433 104.425 80.1072 105.021 80.2319C105.625 80.3556 106.185 80.5761 106.701 80.8935C107.226 81.2099 107.667 81.6599 108.026 82.2433C108.385 82.8268 108.623 83.5884 108.74 84.5279C108.803 85.0369 108.637 85.5545 108.241 86.0807C107.852 86.5982 107.344 87.0789 106.715 87.5228C106.086 87.9668 105.433 88.3382 104.755 88.6373C104.084 88.9354 103.494 89.1161 102.985 89.1794ZM118.699 88.513C117.332 88.3862 116.266 87.9227 115.5 87.1226C114.59 86.1666 114.224 84.7301 114.402 82.8131L115.108 75.2121C115.138 74.8822 115.162 74.4565 115.179 73.935C115.213 72.6307 114.989 71.7145 114.507 71.1864L120.128 71.7081C119.821 71.9411 119.585 72.2678 119.419 72.6883C119.262 73.1016 119.125 73.5446 119.01 74.0172C118.904 74.4828 118.772 74.9183 118.616 75.3237L119.158 75.374C119.48 75.4039 119.798 75.477 120.112 75.5933C120.473 75.7219 120.899 75.8209 121.392 75.8904C121.573 75.9072 121.771 75.8622 121.987 75.7555C122.203 75.6487 122.408 75.4419 122.603 75.1351C122.87 75.5878 122.98 76.0734 122.931 76.5919C122.885 77.0869 122.761 77.4874 122.558 77.7935C122.364 78.1003 122.121 78.3195 121.832 78.4511C121.542 78.5827 121.232 78.6332 120.902 78.6025C120.573 78.5719 120.303 78.4914 120.093 78.361C119.883 78.2306 119.711 78.076 119.577 77.8971C119.443 77.7183 119.322 77.5366 119.212 77.3521C119.102 77.1676 118.986 77.0063 118.865 76.8682C118.75 76.7309 118.607 76.6502 118.435 76.6263C117.885 76.5753 117.44 77.1045 117.099 78.2139C116.84 79.0456 116.656 80.0468 116.547 81.2174L116.44 82.3723C116.377 83.0558 116.452 83.6135 116.665 84.0453C116.887 84.47 117.159 84.7884 117.48 85.0005C117.809 85.2054 118.104 85.3199 118.363 85.344C118.85 85.3892 119.268 85.2814 119.617 85.0206C119.975 84.7527 120.168 84.4655 120.197 84.1591C120.227 83.8291 120.194 83.5051 120.097 83.1871C120.008 82.8619 119.822 82.5554 119.54 82.2677C119.258 81.98 118.861 81.7254 118.351 81.5037L118.358 81.433C118.4 80.9773 118.566 80.5965 118.856 80.2906C119.154 79.9776 119.524 79.7504 119.965 79.6091C120.406 79.4677 120.866 79.4193 121.346 79.4638C121.888 79.5141 122.406 79.6929 122.9 80.0003C123.396 80.2998 123.787 80.7403 124.073 81.3215C124.368 81.9036 124.486 82.6356 124.428 83.5177L124.385 83.9773C124.256 85.3679 123.785 86.4771 122.971 87.3049C122.001 88.2846 120.577 88.6873 118.699 88.513ZM133.356 89.4787L127.736 88.9487C128.059 88.7098 128.311 88.3531 128.49 87.8786C128.678 87.3971 128.813 86.8986 128.893 86.3831C128.982 85.8605 129.042 85.4382 129.072 85.1161L129.462 80.9803C129.492 80.6583 129.512 80.2362 129.522 79.714C129.54 79.1847 129.501 78.6699 129.406 78.1696C129.319 77.6621 129.139 77.2608 128.866 76.9655L134.486 77.4955C134.162 77.7345 133.907 78.0947 133.719 78.5763C133.539 79.0507 133.405 79.5492 133.316 80.0718C133.236 80.5873 133.18 81.0061 133.15 81.3281L132.76 85.4639C132.73 85.786 132.705 86.2116 132.687 86.7409C132.677 87.263 132.716 87.7778 132.803 88.2853C132.898 88.7857 133.083 89.1835 133.356 89.4787ZM131.733 76.5584C131.372 76.5243 131.032 76.4288 130.714 76.2721C130.404 76.116 130.16 75.8909 129.981 75.5967C129.811 75.3032 129.747 74.9326 129.789 74.4849C129.831 74.045 129.963 73.6968 130.185 73.4404C130.415 73.1847 130.697 73.0093 131.031 72.9139C131.373 72.8194 131.724 72.7891 132.086 72.8232C132.455 72.858 132.794 72.9534 133.105 73.1095C133.423 73.2663 133.667 73.4914 133.837 73.7849C134.016 74.0791 134.084 74.4461 134.043 74.886C134.001 75.3337 133.864 75.6855 133.634 75.9411C133.412 76.1975 133.13 76.373 132.788 76.4676C132.454 76.5629 132.103 76.5932 131.733 76.5584ZM143.327 91.7926C142.314 91.5488 141.467 91.142 140.784 90.572C140.111 89.9961 139.592 89.3232 139.225 88.5533C138.86 87.7758 138.642 86.9481 138.569 86.0703C138.504 85.1944 138.575 84.3269 138.781 83.4678C138.973 82.67 139.279 81.9238 139.697 81.2293C140.124 80.5366 140.651 79.9492 141.278 79.4672C141.913 78.987 142.641 78.6591 143.462 78.4835C144.284 78.3079 145.193 78.34 146.19 78.5801C146.704 78.7038 147.326 78.9346 148.056 79.2727C148.491 79.4908 148.892 79.6442 149.26 79.7329C149.721 79.8436 150.139 79.8065 150.517 79.6213C150.529 80.1437 150.489 80.5966 150.397 80.9802C150.269 81.5095 150.067 81.9112 149.79 82.1854C149.521 82.4614 149.223 82.6372 148.896 82.7128C148.57 82.7884 148.268 82.793 147.992 82.7265C147.501 82.6083 147.108 82.453 146.814 82.2604C146.521 82.0601 146.289 81.8459 146.116 81.6177C145.944 81.3896 145.802 81.1727 145.689 80.967C145.578 80.7537 145.46 80.571 145.334 80.419C145.216 80.2689 145.053 80.1689 144.846 80.119C144.516 80.0396 144.177 80.2502 143.83 80.7509C143.484 81.2438 143.222 81.8585 143.045 82.5949C142.89 83.2393 142.839 83.921 142.894 84.6401C142.955 85.361 143.186 86.0048 143.585 86.5716C143.994 87.1326 144.625 87.5279 145.479 87.7577C146.069 87.8999 146.671 87.8946 147.284 87.7418C147.897 87.5891 148.443 87.2781 148.921 86.8089C149.067 87.753 149.06 88.5587 148.899 89.2261C148.746 89.8628 148.479 90.3828 148.097 90.7861C147.718 91.1817 147.269 91.4794 146.75 91.6792C146.233 91.8713 145.677 91.9728 145.082 91.9838C144.487 91.9948 143.902 91.931 143.327 91.7926ZM158.213 95.5398C157.115 95.2494 156.205 94.8171 155.483 94.2428C154.764 93.6609 154.218 92.9943 153.845 92.2429C153.472 91.4915 153.258 90.6963 153.203 89.8573C153.147 89.0183 153.226 88.1945 153.44 87.386C153.657 86.5621 154 85.7917 154.467 85.0745C154.944 84.3518 155.524 83.7462 156.208 83.2578C156.902 82.7638 157.683 82.4318 158.552 82.2616C159.431 82.0859 160.374 82.1311 161.381 82.3973C161.968 82.5526 162.661 82.8174 163.46 83.1917C164.065 83.4659 164.532 83.6463 164.86 83.733C165.256 83.8379 165.657 83.805 166.061 83.6344C166.069 84.1589 166.027 84.5965 165.934 84.9474C165.851 85.2602 165.718 85.5474 165.535 85.809C165.354 86.063 165.109 86.3535 164.803 86.6805L163.224 88.3931C162.981 88.6635 162.682 88.915 162.327 89.1475C161.973 89.3724 161.594 89.5415 161.189 89.6547C160.783 89.7679 160.39 89.7741 160.009 89.6733C159.612 89.5684 159.298 89.3958 159.068 89.1554C158.848 88.9094 158.7 88.6337 158.626 88.3284C158.561 88.0175 158.569 87.7095 158.65 87.4044C158.73 87.0993 158.885 86.8219 159.114 86.5724C159.344 86.3228 159.639 86.1479 160 86.0475C160.009 86.5394 160.13 86.9143 160.364 87.1719C160.605 87.4316 160.867 87.5988 161.149 87.6734C161.538 87.7762 161.963 87.758 162.425 87.6188C162.886 87.4795 163.311 87.1838 163.7 86.7317L163.468 86.6826C162.98 86.5536 162.575 86.3854 162.255 86.1783C161.944 85.9655 161.685 85.7381 161.48 85.4961C161.275 85.2541 161.099 85.024 160.952 84.8058C160.808 84.5799 160.663 84.3866 160.518 84.2258C160.373 84.065 160.197 83.9574 159.991 83.9029C159.618 83.8041 159.193 84.0386 158.716 84.6063C158.249 85.1685 157.909 85.8538 157.695 86.6624C157.534 87.2726 157.489 87.9055 157.56 88.561C157.64 89.2185 157.906 89.8153 158.36 90.3516C158.814 90.8878 159.512 91.2885 160.454 91.5538C161.064 91.7152 161.731 91.7404 162.454 91.6295C163.177 91.5187 163.79 91.236 164.294 90.7816C164.412 91.6616 164.389 92.4144 164.223 93.0399C164.05 93.6959 163.751 94.2249 163.326 94.6268C162.902 95.0287 162.404 95.3215 161.833 95.5052C161.27 95.691 160.671 95.7815 160.036 95.7767C159.408 95.774 158.8 95.6951 158.213 95.5398Z" fill="white"/>
</g>
</g>
<defs>
<filter id="filter0_d_8997_2434" x="13.2012" y="14.1211" width="320.826" height="108.891" filterUnits="userSpaceOnUse" color-interpolation-filters="sRGB">
<feFlood flood-opacity="0" result="BackgroundImageFix"/>
<feColorMatrix in="SourceAlpha" type="matrix" values="0 0 0 0 0 0 0 0 0 0 0 0 0 0 0 0 0 0 127 0" result="hardAlpha"/>
<feOffset dy="4"/>
<feGaussianBlur stdDeviation="2"/>
<feComposite in2="hardAlpha" operator="out"/>
<feColorMatrix type="matrix" values="0 0 0 0 0 0 0 0 0 0 0 0 0 0 0 0 0 0 0.25 0"/>
<feBlend mode="normal" in2="BackgroundImageFix" result="effect1_dropShadow_8997_2434"/>
<feBlend mode="normal" in="SourceGraphic" in2="effect1_dropShadow_8997_2434" result="shape"/>
</filter>
<filter id="filter1_d_8997_2434" x="73.0944" y="23.2627" width="15.4363" height="37.3015" filterUnits="userSpaceOnUse" color-interpolation-filters="sRGB">
<feFlood flood-opacity="0" result="BackgroundImageFix"/>
<feColorMatrix in="SourceAlpha" type="matrix" values="0 0 0 0 0 0 0 0 0 0 0 0 0 0 0 0 0 0 127 0" result="hardAlpha"/>
<feOffset dy="0.497424"/>
<feGaussianBlur stdDeviation="0.248712"/>
<feComposite in2="hardAlpha" operator="out"/>
<feColorMatrix type="matrix" values="0 0 0 0 0 0 0 0 0 0 0 0 0 0 0 0 0 0 0.25 0"/>
<feBlend mode="normal" in2="BackgroundImageFix" result="effect1_dropShadow_8997_2434"/>
<feBlend mode="normal" in="SourceGraphic" in2="effect1_dropShadow_8997_2434" result="shape"/>
</filter>
<filter id="filter2_d_8997_2434" x="79.1881" y="48.9766" width="8.53782" height="8.16965" filterUnits="userSpaceOnUse" color-interpolation-filters="sRGB">
<feFlood flood-opacity="0" result="BackgroundImageFix"/>
<feColorMatrix in="SourceAlpha" type="matrix" values="0 0 0 0 0 0 0 0 0 0 0 0 0 0 0 0 0 0 127 0" result="hardAlpha"/>
<feOffset dy="0.497424"/>
<feGaussianBlur stdDeviation="0.248712"/>
<feComposite in2="hardAlpha" operator="out"/>
<feColorMatrix type="matrix" values="0 0 0 0 0 0 0 0 0 0 0 0 0 0 0 0 0 0 0.25 0"/>
<feBlend mode="normal" in2="BackgroundImageFix" result="effect1_dropShadow_8997_2434"/>
<feBlend mode="normal" in="SourceGraphic" in2="effect1_dropShadow_8997_2434" result="shape"/>
</filter>
<filter id="filter3_d_8997_2434" x="54.36" y="24.7197" width="17.2234" height="37.0613" filterUnits="userSpaceOnUse" color-interpolation-filters="sRGB">
<feFlood flood-opacity="0" result="BackgroundImageFix"/>
<feColorMatrix in="SourceAlpha" type="matrix" values="0 0 0 0 0 0 0 0 0 0 0 0 0 0 0 0 0 0 127 0" result="hardAlpha"/>
<feOffset dy="0.497424"/>
<feGaussianBlur stdDeviation="0.248712"/>
<feComposite in2="hardAlpha" operator="out"/>
<feColorMatrix type="matrix" values="0 0 0 0 0 0 0 0 0 0 0 0 0 0 0 0 0 0 0.25 0"/>
<feBlend mode="normal" in2="BackgroundImageFix" result="effect1_dropShadow_8997_2434"/>
<feBlend mode="normal" in="SourceGraphic" in2="effect1_dropShadow_8997_2434" result="shape"/>
</filter>
<filter id="filter4_d_8997_2434" x="58.3522" y="49.5615" width="7.87571" height="8.79465" filterUnits="userSpaceOnUse" color-interpolation-filters="sRGB">
<feFlood flood-opacity="0" result="BackgroundImageFix"/>
<feColorMatrix in="SourceAlpha" type="matrix" values="0 0 0 0 0 0 0 0 0 0 0 0 0 0 0 0 0 0 127 0" result="hardAlpha"/>
<feOffset dy="0.497424"/>
<feGaussianBlur stdDeviation="0.248712"/>
<feComposite in2="hardAlpha" operator="out"/>
<feColorMatrix type="matrix" values="0 0 0 0 0 0 0 0 0 0 0 0 0 0 0 0 0 0 0.25 0"/>
<feBlend mode="normal" in2="BackgroundImageFix" result="effect1_dropShadow_8997_2434"/>
<feBlend mode="normal" in="SourceGraphic" in2="effect1_dropShadow_8997_2434" result="shape"/>
</filter>
<filter id="filter5_d_8997_2434" x="16.2798" y="19.1611" width="34.9853" height="49.4677" filterUnits="userSpaceOnUse" color-interpolation-filters="sRGB">
<feFlood flood-opacity="0" result="BackgroundImageFix"/>
<feColorMatrix in="SourceAlpha" type="matrix" values="0 0 0 0 0 0 0 0 0 0 0 0 0 0 0 0 0 0 127 0" result="hardAlpha"/>
<feOffset dy="0.921349"/>
<feGaussianBlur stdDeviation="0.460675"/>
<feComposite in2="hardAlpha" operator="out"/>
<feColorMatrix type="matrix" values="0 0 0 0 0 0 0 0 0 0 0 0 0 0 0 0 0 0 0.25 0"/>
<feBlend mode="normal" in2="BackgroundImageFix" result="effect1_dropShadow_8997_2434"/>
<feBlend mode="normal" in="SourceGraphic" in2="effect1_dropShadow_8997_2434" result="shape"/>
</filter>
<filter id="filter6_d_8997_2434" x="297.811" y="26.1826" width="33.1376" height="49.8027" filterUnits="userSpaceOnUse" color-interpolation-filters="sRGB">
<feFlood flood-opacity="0" result="BackgroundImageFix"/>
<feColorMatrix in="SourceAlpha" type="matrix" values="0 0 0 0 0 0 0 0 0 0 0 0 0 0 0 0 0 0 127 0" result="hardAlpha"/>
<feOffset dy="0.921349"/>
<feGaussianBlur stdDeviation="0.460675"/>
<feComposite in2="hardAlpha" operator="out"/>
<feColorMatrix type="matrix" values="0 0 0 0 0 0 0 0 0 0 0 0 0 0 0 0 0 0 0.25 0"/>
<feBlend mode="normal" in2="BackgroundImageFix" result="effect1_dropShadow_8997_2434"/>
<feBlend mode="normal" in="SourceGraphic" in2="effect1_dropShadow_8997_2434" result="shape"/>
</filter>
<filter id="filter7_d_8997_2434" x="92.0337" y="16.5869" width="39.8154" height="48.2157" filterUnits="userSpaceOnUse" color-interpolation-filters="sRGB">
<feFlood flood-opacity="0" result="BackgroundImageFix"/>
<feColorMatrix in="SourceAlpha" type="matrix" values="0 0 0 0 0 0 0 0 0 0 0 0 0 0 0 0 0 0 127 0" result="hardAlpha"/>
<feOffset dy="0.921349"/>
<feGaussianBlur stdDeviation="0.460675"/>
<feComposite in2="hardAlpha" operator="out"/>
<feColorMatrix type="matrix" values="0 0 0 0 0 0 0 0 0 0 0 0 0 0 0 0 0 0 0.25 0"/>
<feBlend mode="normal" in2="BackgroundImageFix" result="effect1_dropShadow_8997_2434"/>
<feBlend mode="normal" in="SourceGraphic" in2="effect1_dropShadow_8997_2434" result="shape"/>
</filter>
<filter id="filter8_d_8997_2434" x="171.426" y="18.5059" width="36.0732" height="49.3261" filterUnits="userSpaceOnUse" color-interpolation-filters="sRGB">
<feFlood flood-opacity="0" result="BackgroundImageFix"/>
<feColorMatrix in="SourceAlpha" type="matrix" values="0 0 0 0 0 0 0 0 0 0 0 0 0 0 0 0 0 0 127 0" result="hardAlpha"/>
<feOffset dy="0.921349"/>
<feGaussianBlur stdDeviation="0.460675"/>
<feComposite in2="hardAlpha" operator="out"/>
<feColorMatrix type="matrix" values="0 0 0 0 0 0 0 0 0 0 0 0 0 0 0 0 0 0 0.25 0"/>
<feBlend mode="normal" in2="BackgroundImageFix" result="effect1_dropShadow_8997_2434"/>
<feBlend mode="normal" in="SourceGraphic" in2="effect1_dropShadow_8997_2434" result="shape"/>
</filter>
<filter id="filter9_d_8997_2434" x="208.252" y="24.8916" width="45.4169" height="49.8652" filterUnits="userSpaceOnUse" color-interpolation-filters="sRGB">
<feFlood flood-opacity="0" result="BackgroundImageFix"/>
<feColorMatrix in="SourceAlpha" type="matrix" values="0 0 0 0 0 0 0 0 0 0 0 0 0 0 0 0 0 0 127 0" result="hardAlpha"/>
<feOffset dy="0.921349"/>
<feGaussianBlur stdDeviation="0.460675"/>
<feComposite in2="hardAlpha" operator="out"/>
<feColorMatrix type="matrix" values="0 0 0 0 0 0 0 0 0 0 0 0 0 0 0 0 0 0 0.25 0"/>
<feBlend mode="normal" in2="BackgroundImageFix" result="effect1_dropShadow_8997_2434"/>
<feBlend mode="normal" in="SourceGraphic" in2="effect1_dropShadow_8997_2434" result="shape"/>
</filter>
<filter id="filter10_d_8997_2434" x="252.116" y="15.582" width="46.1376" height="52.1064" filterUnits="userSpaceOnUse" color-interpolation-filters="sRGB">
<feFlood flood-opacity="0" result="BackgroundImageFix"/>
<feColorMatrix in="SourceAlpha" type="matrix" values="0 0 0 0 0 0 0 0 0 0 0 0 0 0 0 0 0 0 127 0" result="hardAlpha"/>
<feOffset dy="0.921349"/>
<feGaussianBlur stdDeviation="0.460675"/>
<feComposite in2="hardAlpha" operator="out"/>
<feColorMatrix type="matrix" values="0 0 0 0 0 0 0 0 0 0 0 0 0 0 0 0 0 0 0.25 0"/>
<feBlend mode="normal" in2="BackgroundImageFix" result="effect1_dropShadow_8997_2434"/>
<feBlend mode="normal" in="SourceGraphic" in2="effect1_dropShadow_8997_2434" result="shape"/>
</filter>
<filter id="filter11_d_8997_2434" x="176.959" y="76.9629" width="25.9043" height="31.6699" filterUnits="userSpaceOnUse" color-interpolation-filters="sRGB">
<feFlood flood-opacity="0" result="BackgroundImageFix"/>
<feColorMatrix in="SourceAlpha" type="matrix" values="0 0 0 0 0 0 0 0 0 0 0 0 0 0 0 0 0 0 127 0" result="hardAlpha"/>
<feOffset dy="1"/>
<feComposite in2="hardAlpha" operator="out"/>
<feColorMatrix type="matrix" values="0 0 0 0 0 0 0 0 0 0 0 0 0 0 0 0 0 0 0.21 0"/>
<feBlend mode="normal" in2="BackgroundImageFix" result="effect1_dropShadow_8997_2434"/>
<feBlend mode="normal" in="SourceGraphic" in2="effect1_dropShadow_8997_2434" result="shape"/>
</filter>
<filter id="filter12_d_8997_2434" x="256.99" y="76.4287" width="23.1133" height="30.8398" filterUnits="userSpaceOnUse" color-interpolation-filters="sRGB">
<feFlood flood-opacity="0" result="BackgroundImageFix"/>
<feColorMatrix in="SourceAlpha" type="matrix" values="0 0 0 0 0 0 0 0 0 0 0 0 0 0 0 0 0 0 127 0" result="hardAlpha"/>
<feOffset dy="1"/>
<feComposite in2="hardAlpha" operator="out"/>
<feColorMatrix type="matrix" values="0 0 0 0 0 0 0 0 0 0 0 0 0 0 0 0 0 0 0.21 0"/>
<feBlend mode="normal" in2="BackgroundImageFix" result="effect1_dropShadow_8997_2434"/>
<feBlend mode="normal" in="SourceGraphic" in2="effect1_dropShadow_8997_2434" result="shape"/>
</filter>
<filter id="filter13_d_8997_2434" x="228.32" y="81.6777" width="29.7656" height="34.334" filterUnits="userSpaceOnUse" color-interpolation-filters="sRGB">
<feFlood flood-opacity="0" result="BackgroundImageFix"/>
<feColorMatrix in="SourceAlpha" type="matrix" values="0 0 0 0 0 0 0 0 0 0 0 0 0 0 0 0 0 0 127 0" result="hardAlpha"/>
<feOffset dy="1"/>
<feComposite in2="hardAlpha" operator="out"/>
<feColorMatrix type="matrix" values="0 0 0 0 0 0 0 0 0 0 0 0 0 0 0 0 0 0 0.21 0"/>
<feBlend mode="normal" in2="BackgroundImageFix" result="effect1_dropShadow_8997_2434"/>
<feBlend mode="normal" in="SourceGraphic" in2="effect1_dropShadow_8997_2434" result="shape"/>
</filter>
<filter id="filter14_d_8997_2434" x="205.029" y="83.376" width="22.5801" height="28.9473" filterUnits="userSpaceOnUse" color-interpolation-filters="sRGB">
<feFlood flood-opacity="0" result="BackgroundImageFix"/>
<feColorMatrix in="SourceAlpha" type="matrix" values="0 0 0 0 0 0 0 0 0 0 0 0 0 0 0 0 0 0 127 0" result="hardAlpha"/>
<feOffset dy="1"/>
<feComposite in2="hardAlpha" operator="out"/>
<feColorMatrix type="matrix" values="0 0 0 0 0 0 0 0 0 0 0 0 0 0 0 0 0 0 0.21 0"/>
<feBlend mode="normal" in2="BackgroundImageFix" result="effect1_dropShadow_8997_2434"/>
<feBlend mode="normal" in="SourceGraphic" in2="effect1_dropShadow_8997_2434" result="shape"/>
</filter>
<filter id="filter15_nf_8997_2434" x="123.547" y="13.6911" width="56.7897" height="55.4488" filterUnits="userSpaceOnUse" color-interpolation-filters="sRGB">
<feFlood flood-opacity="0" result="BackgroundImageFix"/>
<feBlend mode="normal" in="SourceGraphic" in2="BackgroundImageFix" result="shape"/>
<feTurbulence type="fractalNoise" baseFrequency="4.1146683692932129 4.1146683692932129" stitchTiles="stitch" numOctaves="3" result="noise" seed="4912" />
<feColorMatrix in="noise" type="luminanceToAlpha" result="alphaNoise" />
<feComponentTransfer in="alphaNoise" result="coloredNoise1">
<feFuncA type="discrete" tableValues="1 1 1 1 1 1 1 1 1 1 1 1 1 1 1 1 1 1 1 1 1 1 1 1 1 1 1 1 1 1 1 1 1 1 1 1 1 1 1 1 1 1 1 1 1 1 1 1 1 1 1 0 0 0 0 0 0 0 0 0 0 0 0 0 0 0 0 0 0 0 0 0 0 0 0 0 0 0 0 0 0 0 0 0 0 0 0 0 0 0 0 0 0 0 0 0 0 0 0 0 "/>
</feComponentTransfer>
<feComposite operator="in" in2="shape" in="coloredNoise1" result="noise1Clipped" />
<feFlood flood-color="#FF704D" result="color1Flood" />
<feComposite operator="in" in2="noise1Clipped" in="color1Flood" result="color1" />
<feMerge result="effect1_noise_8997_2434">
<feMergeNode in="shape" />
<feMergeNode in="color1" />
</feMerge>
<feGaussianBlur stdDeviation="0.214991" result="effect2_foregroundBlur_8997_2434"/>
</filter>
<filter id="filter16_f_8997_2434" x="137.152" y="27.6704" width="28.9874" height="28.9864" filterUnits="userSpaceOnUse" color-interpolation-filters="sRGB">
<feFlood flood-opacity="0" result="BackgroundImageFix"/>
<feBlend mode="normal" in="SourceGraphic" in2="BackgroundImageFix" result="shape"/>
<feGaussianBlur stdDeviation="1.7317" result="effect1_foregroundBlur_8997_2434"/>
</filter>
<filter id="filter17_d_8997_2434" x="53.6074" y="66.5127" width="113.729" height="34.4824" filterUnits="userSpaceOnUse" color-interpolation-filters="sRGB">
<feFlood flood-opacity="0" result="BackgroundImageFix"/>
<feColorMatrix in="SourceAlpha" type="matrix" values="0 0 0 0 0 0 0 0 0 0 0 0 0 0 0 0 0 0 127 0" result="hardAlpha"/>
<feOffset dy="1"/>
<feComposite in2="hardAlpha" operator="out"/>
<feColorMatrix type="matrix" values="0 0 0 0 0 0 0 0 0 0 0 0 0 0 0 0 0 0 0.21 0"/>
<feBlend mode="normal" in2="BackgroundImageFix" result="effect1_dropShadow_8997_2434"/>
<feBlend mode="normal" in="SourceGraphic" in2="effect1_dropShadow_8997_2434" result="shape"/>
</filter>
<linearGradient id="paint0_linear_8997_2434" x1="86.1292" y1="42.4285" x2="67.9444" y2="42.7887" gradientUnits="userSpaceOnUse">
<stop stop-color="#EB65B6"/>
<stop offset="1" stop-color="#86C7FD"/>
</linearGradient>
<linearGradient id="paint1_linear_8997_2434" x1="99.4432" y1="67.1144" x2="73.6654" y2="48.403" gradientUnits="userSpaceOnUse">
<stop offset="0.908664" stop-color="#C766EB" stop-opacity="0.38"/>
<stop offset="1" stop-color="#86C7FD" stop-opacity="0"/>
</linearGradient>
<linearGradient id="paint2_linear_8997_2434" x1="84.6271" y1="45.0392" x2="73.5588" y2="37.5584" gradientUnits="userSpaceOnUse">
<stop stop-color="white"/>
<stop offset="0.5" stop-color="#A5D5FE"/>
<stop offset="1" stop-color="#86C7FD"/>
</linearGradient>
<linearGradient id="paint3_linear_8997_2434" x1="83.2485" y1="42.8428" x2="69.4889" y2="42.8714" gradientUnits="userSpaceOnUse">
<stop stop-color="#C3E3FE"/>
<stop offset="0.279701" stop-color="white"/>
<stop offset="1" stop-color="#86C7FD"/>
</linearGradient>
<linearGradient id="paint4_linear_8997_2434" x1="80.1719" y1="49.3167" x2="87.2465" y2="53.3984" gradientUnits="userSpaceOnUse">
<stop stop-color="#86C7FD"/>
<stop offset="1" stop-color="#C766EB"/>
</linearGradient>
<linearGradient id="paint5_linear_8997_2434" x1="58.5697" y1="43.7711" x2="76.6786" y2="42.0723" gradientUnits="userSpaceOnUse">
<stop stop-color="#EB65B6"/>
<stop offset="1" stop-color="#86C7FD"/>
</linearGradient>
<linearGradient id="paint6_linear_8997_2434" x1="48.1314" y1="69.8047" x2="71.6276" y2="48.298" gradientUnits="userSpaceOnUse">
<stop offset="0.908664" stop-color="#C766EB" stop-opacity="0.38"/>
<stop offset="1" stop-color="#86C7FD" stop-opacity="0"/>
</linearGradient>
<linearGradient id="paint7_linear_8997_2434" x1="60.3598" y1="46.1951" x2="70.5111" y2="37.5106" gradientUnits="userSpaceOnUse">
<stop stop-color="white"/>
<stop offset="0.5" stop-color="#A5D5FE"/>
<stop offset="1" stop-color="#86C7FD"/>
</linearGradient>
<linearGradient id="paint8_linear_8997_2434" x1="61.4768" y1="43.8571" x2="75.1513" y2="42.3294" gradientUnits="userSpaceOnUse">
<stop stop-color="#C3E3FE"/>
<stop offset="0.279701" stop-color="white"/>
<stop offset="1" stop-color="#86C7FD"/>
</linearGradient>
<linearGradient id="paint9_linear_8997_2434" x1="65.2625" y1="49.9407" x2="58.695" y2="54.7964" gradientUnits="userSpaceOnUse">
<stop stop-color="#86C7FD"/>
<stop offset="1" stop-color="#C766EB"/>
</linearGradient>
<radialGradient id="paint10_radial_8997_2434" cx="0" cy="0" r="1" gradientUnits="userSpaceOnUse" gradientTransform="translate(152.019 41.4156) rotate(92.5638) scale(25.0762 25.6919)">
<stop stop-color="#FFE64A"/>
<stop offset="1" stop-color="#FF704D"/>
</radialGradient>
<radialGradient id="paint11_radial_8997_2434" cx="0" cy="0" r="1" gradientUnits="userSpaceOnUse" gradientTransform="translate(151.645 42.1637) rotate(90) scale(15.0136)">
<stop offset="0.422676" stop-color="#FFEF88"/>
<stop offset="0.583827" stop-color="#FFE64A"/>
<stop offset="1" stop-color="#FE884C" stop-opacity="0"/>
</radialGradient>
</defs>
</svg>
