<svg width="686" height="261" viewBox="0 0 686 261" fill="none" xmlns="http://www.w3.org/2000/svg">
<path d="M191.283 42.4184C164.17 38.832 153.569 72.4419 147.038 87.5832C150.01 93.2175 157.468 105.531 162.78 112.313C166.964 117.656 174.208 123.346 176.11 124.595C178.013 125.843 181.087 126.573 182.913 126.47C184.739 126.366 184.637 125.693 184.809 125.382C184.981 125.071 184.863 124.098 183.867 123.25C182.871 122.402 183.148 121.708 183.265 121.551C183.383 121.394 183.924 120.911 185.141 121.218C186.359 121.526 187.343 123.279 188.692 124.785C190.04 126.291 191.313 126.445 191.888 126.563C192.463 126.681 193.966 126.445 193.603 124.507C193.24 122.568 190.18 122.063 188.406 119.752C186.987 117.903 186.401 114.842 186.285 113.542C187.254 112.809 187.295 111.299 187.274 110.924C187.252 110.548 187.136 108.506 185.092 106.978C183.607 105.869 178.638 102.864 177.326 102.094C178.197 102.539 180.509 103.561 181.706 104.08C182.635 104.505 184.567 104.852 184.857 102.846C185.22 100.339 180.962 98.7717 181.269 98.6036C181.514 98.4691 182.222 98.7002 182.545 98.8326C181.692 93.8319 176.628 91.406 173.944 89.7496C170.624 87.7008 165.185 86.7799 165.185 86.7799C165.185 86.7799 168.828 86.4225 171.376 85.6751C173.414 85.0771 174.714 84.0287 175.11 83.5792C175.648 83.0462 176.625 82.0011 176.409 80.8678C176.253 80.0477 172.703 79.7467 170.905 79.5975C176.206 79.5228 178.549 79.6913 179.568 78.6538C180.643 77.5593 181.649 75.7734 181.475 74.4008C181.361 73.5029 179.278 73.5457 178.141 73.5348C180.21 73.2667 181.776 73.0272 182.984 72.0543C184.327 70.973 184.434 68.6561 184.097 68.2984C183.691 67.8661 182.33 68.3233 181.188 68.2373C188.806 66.6748 187.833 62.8865 186.321 61.8419C190.496 59.721 189.502 53.153 188.808 54.466C188.114 55.779 186.957 56.3546 186.77 56.3904C191.913 49.9491 191.922 44.3919 191.283 42.4184Z" fill="url(#paint0_linear_9560_389)"/>
<path d="M181.234 98.6066C181.479 98.4721 182.187 98.7033 182.51 98.8357C181.653 93.7522 176.382 91.0367 174.111 89.9598C172.45 93.2946 162.379 102.533 156.868 103.976C157.689 105.127 161.991 111.353 162.745 112.316C166.929 117.659 174.173 123.349 176.076 124.598C177.978 125.846 181.052 126.576 182.878 126.473C184.704 126.369 184.602 125.696 184.774 125.385C184.946 125.074 184.828 124.101 183.832 123.253C182.837 122.405 183.113 121.711 183.23 121.554C183.348 121.397 183.889 120.914 185.107 121.222C186.324 121.529 187.308 123.282 188.657 124.788C190.006 126.294 191.278 126.448 191.853 126.566C192.428 126.684 193.931 126.448 193.568 124.51C193.206 122.571 190.145 122.066 188.371 119.755C186.953 117.906 186.366 114.845 186.25 113.545C187.219 112.812 187.26 111.302 187.239 110.927C187.217 110.551 187.102 108.509 185.057 106.981C183.573 105.872 178.603 102.867 177.292 102.097C178.162 102.542 180.474 103.564 181.671 104.083C182.6 104.508 184.532 104.855 184.822 102.849C185.185 100.342 180.927 98.7747 181.234 98.6066Z" fill="url(#paint1_linear_9560_389)"/>
<g filter="url(#filter0_d_9560_389)">
<path d="M174.956 101.443C173.527 99.4139 167.902 95.0856 165.268 93.1752C167.299 94.5169 171.862 97.368 173.871 98.0378C176.382 98.875 180.169 98.8109 177.253 96.4141C168.855 89.1132 161.062 87.8119 158.216 88.0739C160.974 96.7347 167.584 100.7 170.699 102.137C173.611 103.479 176.742 103.979 174.956 101.443Z" fill="url(#paint2_linear_9560_389)"/>
<path d="M178.245 52.8069C180.201 50.9123 182.888 47.3586 177.989 48.2997C165.662 51.6152 158.488 66.8386 155.257 78.4528C154.17 82.3617 153.529 85.8619 153.289 88.3615C153.202 91.9617 156.334 98.0268 158.971 102.476C159.156 102.795 159.336 103.096 159.511 103.376C160.098 104.344 160.646 105.212 161.108 105.929C164.816 112.275 173.475 120.149 175.974 121.892C178.524 123.669 180.644 124.038 178.022 121.248C175.4 118.458 169.309 109.534 167.894 107.504C166.175 105.039 164.16 100.707 162.942 99.2689C161.723 97.8308 160.857 97.0509 159.008 94.5181C157.159 91.9854 155.133 86.2975 159.469 85.9008C162.938 85.5834 164.692 85.5532 166.541 84.7459C171.105 82.7537 170.671 80.7435 169.886 80.2606C169.257 79.8742 165.678 80.3234 163.967 80.5963C165.833 80.0885 169.94 78.7653 171.436 77.5349C173.307 75.9969 176.005 73.4323 173.762 72.8813C171.52 72.3302 167.246 74.4568 166.652 74.4904C166.526 74.4976 167.231 73.9571 167.832 73.6607C169.191 73.1131 170.952 72.5358 172.313 71.833C174.794 70.5528 179.277 65.409 178.616 63.7886C176.792 60.2297 165.228 68.3162 164.024 69.3642C162.132 70.5266 156.279 79.8175 156.934 79.1113C159.166 77.4774 165.156 74.7395 167.832 73.6607C167.231 73.9571 166.526 74.4976 166.652 74.4904C165.167 75.0268 161.071 76.9925 156.425 82.3807C152.051 87.4519 156.017 97.3642 158.971 102.476C156.334 98.0268 153.202 91.9617 153.289 88.3615C153.529 85.8619 154.17 82.3617 155.257 78.4528C157.961 72.6322 162.223 67.1713 164.068 65.2077C162.516 67.1797 161.686 69.8137 164.875 67.658C167.309 66.0127 177.535 61.4377 179.679 60.2616C181.458 59.2861 184.27 54.3166 182.73 53.9089C177.855 52.6179 168.125 61.0074 164.068 65.2077C165.217 63.1831 173.903 56.0676 178.245 52.8069Z" fill="url(#paint3_linear_9560_389)"/>
</g>
<g filter="url(#filter1_d_9560_389)">
<path d="M174.193 105.25C171.346 103.629 168.035 102.051 166.387 101.412C165.613 101.102 165.673 102.208 167.156 104.545C168.649 106.896 174.039 113.162 175.227 114.321C176.414 115.479 177.721 116.483 178.776 116.141C179.621 115.867 179.071 114.724 178.69 114.186C178.415 113.67 178.138 113.107 178.438 112.765C178.828 112.324 180.76 115.311 181.387 113.78C182.014 112.25 180.086 109.918 178.236 108.18C177.236 107.24 175.882 106.212 174.193 105.25Z" fill="url(#paint4_linear_9560_389)"/>
</g>
<path d="M105.101 46.8484C131.635 40.2185 145.969 72.4139 154.171 86.7193C151.855 92.6537 145.838 105.731 141.327 113.071C137.774 118.853 131.22 125.326 129.471 126.781C127.722 128.237 124.75 129.31 122.924 129.413C121.098 129.517 121.123 128.837 120.917 128.548C120.711 128.258 120.719 127.278 121.612 126.323C122.505 125.368 122.152 124.71 122.018 124.566C121.883 124.423 121.291 124.005 120.116 124.448C118.941 124.892 118.162 126.745 116.992 128.394C115.822 130.042 114.576 130.339 114.017 130.522C113.459 130.704 111.939 130.64 112.081 128.672C112.222 126.705 115.206 125.857 116.706 123.36C117.907 121.363 118.143 118.255 118.111 116.95C117.066 116.331 116.854 114.836 116.833 114.461C116.812 114.085 116.696 112.043 118.555 110.293C119.904 109.024 124.502 105.476 125.718 104.563C124.903 105.103 122.722 106.38 121.591 107.031C120.716 107.558 118.836 108.122 118.321 106.162C117.676 103.711 121.73 101.673 121.406 101.54C121.148 101.434 120.47 101.744 120.164 101.912C120.446 96.8472 125.203 93.8642 127.682 91.9149C130.749 89.5037 136.05 87.9735 136.05 87.9735C136.05 87.9735 132.389 88.0305 129.774 87.576C127.681 87.2124 126.27 86.3177 125.826 85.9159C125.231 85.4472 124.142 84.5192 124.229 83.3688C124.291 82.5363 127.784 81.8357 129.554 81.4841C124.278 82.0095 121.969 82.4419 120.839 81.5263C119.648 80.5604 118.446 78.8997 118.464 77.5162C118.476 76.6112 120.55 76.4182 121.679 76.2787C119.592 76.2464 118.01 76.1854 116.699 75.3554C115.243 74.4329 114.875 72.143 115.168 71.7496C115.523 71.2742 116.927 71.5744 118.052 71.3599C110.306 70.6689 110.844 66.7949 112.229 65.586C107.84 63.9509 108.085 57.3126 108.923 58.5387C109.761 59.7649 110.976 60.2059 111.166 60.2202C105.328 54.4019 104.69 48.8814 105.101 46.8484Z" fill="url(#paint5_linear_9560_389)"/>
<path d="M121.442 101.541C121.184 101.435 120.506 101.744 120.2 101.913C120.476 96.7648 125.406 93.4707 127.542 92.1437C129.569 95.2693 140.62 103.309 146.259 104.119C145.573 105.356 142.003 112.029 141.363 113.071C137.81 118.853 131.256 125.326 129.507 126.782C127.758 128.237 124.786 129.31 122.96 129.414C121.134 129.517 121.159 128.838 120.953 128.548C120.747 128.258 120.755 127.278 121.648 126.323C122.541 125.368 122.188 124.71 122.054 124.567C121.919 124.424 121.327 124.005 120.152 124.448C118.977 124.892 118.198 126.745 117.028 128.394C115.858 130.043 114.611 130.34 114.053 130.522C113.495 130.704 111.975 130.64 112.116 128.672C112.258 126.705 115.242 125.857 116.742 123.361C117.943 121.363 118.179 118.255 118.147 116.951C117.102 116.332 116.89 114.836 116.869 114.461C116.848 114.085 116.732 112.043 118.591 110.294C119.94 109.024 124.538 105.477 125.754 104.563C124.939 105.103 122.758 106.38 121.627 107.032C120.752 107.559 118.872 108.122 118.357 106.162C117.712 103.712 121.766 101.673 121.442 101.541Z" fill="url(#paint6_linear_9560_389)"/>
<g filter="url(#filter2_d_9560_389)">
<path d="M127.996 103.649C129.186 101.471 134.286 96.5346 136.686 94.3385C134.82 95.9013 130.609 99.2501 128.689 100.143C126.288 101.259 122.519 101.623 125.145 98.9121C132.664 90.7082 140.259 88.5339 143.117 88.4723C141.356 97.3895 135.237 102.077 132.304 103.857C129.562 105.519 126.508 106.371 127.996 103.649Z" fill="url(#paint7_linear_9560_389)"/>
<path d="M119.222 55.6983C117.064 54.0372 113.992 50.8101 118.966 51.1911C131.589 53.0913 140.438 67.4056 144.962 78.5799C146.485 82.3408 147.517 85.746 148.038 88.2024C148.532 91.7697 146.106 98.15 143.989 102.869C143.842 103.207 143.696 103.526 143.555 103.824C143.08 104.853 142.634 105.777 142.256 106.542C139.289 113.267 131.577 122.069 129.291 124.083C126.959 126.137 124.894 126.744 127.183 123.675C129.472 120.606 134.515 111.051 135.692 108.874C137.122 106.23 138.633 101.698 139.681 100.131C140.729 98.5648 141.501 97.692 143.052 94.9664C144.603 92.2407 145.973 86.3601 141.62 86.4564C138.137 86.5334 136.391 86.7018 134.462 86.1088C129.703 84.6455 129.906 82.5992 130.632 82.0305C131.213 81.5755 134.82 81.6171 136.551 81.6947C134.639 81.4012 130.409 80.551 128.783 79.4977C126.75 78.1812 123.78 75.9381 125.945 75.137C128.111 74.3359 132.599 75.9653 133.192 75.9317C133.318 75.9245 132.557 75.4672 131.926 75.2408C130.514 74.8503 128.699 74.4758 127.267 73.9316C124.657 72.9401 119.621 68.3364 120.095 66.6516C121.504 62.9093 133.908 69.636 135.223 70.5411C137.235 71.4821 144.101 80.0515 143.37 79.4238C140.968 78.0528 134.707 76.0099 131.926 75.2408C132.557 75.4672 133.318 75.9245 133.192 75.9317C134.729 76.2967 139.02 77.7865 144.246 82.6146C149.165 87.1587 146.346 97.4559 143.989 102.869C146.106 98.15 148.532 91.7697 148.038 88.2024C147.517 85.746 146.485 82.3408 144.962 78.5799C141.617 73.1024 136.765 68.1585 134.71 66.4162C136.475 68.2001 137.597 70.7234 134.185 68.942C131.581 67.5825 120.903 64.1935 118.64 63.2675C116.762 62.4993 113.406 57.8798 114.89 57.3005C119.587 55.4665 130.203 62.7018 134.71 66.4162C133.34 64.5345 123.904 58.4471 119.222 55.6983Z" fill="url(#paint8_linear_9560_389)"/>
</g>
<g filter="url(#filter3_d_9560_389)">
<path d="M129.173 107.347C131.818 105.414 134.929 103.472 136.495 102.651C137.228 102.256 137.294 103.361 136.084 105.85C134.867 108.356 130.22 115.191 129.171 116.476C128.123 117.762 126.938 118.907 125.85 118.686C124.98 118.51 125.398 117.312 125.715 116.735C125.93 116.19 126.142 115.599 125.804 115.294C125.367 114.9 123.785 118.086 122.989 116.636C122.193 115.187 123.846 112.652 125.487 110.716C126.375 109.669 127.604 108.494 129.173 107.347Z" fill="url(#paint9_linear_9560_389)"/>
</g>
<g filter="url(#filter4_d_9560_389)">
<g filter="url(#filter5_d_9560_389)">
<path d="M105.184 135.559C103.375 126.748 103.063 122.076 104.312 114.37C98.2838 115.671 93.4483 116.918 85.1678 124.443C81.8596 126.513 79.1396 128.892 73.2435 130.129C73.3729 126.403 72.8056 124.469 71.2882 121.145C69.0385 115.964 66.9751 113.508 62.4864 109.569C58.15 105.388 56.2983 102.93 54.3579 98.2963C52.5309 91.4218 56.4743 88.7027 61.6196 88.4911C66.7648 88.2795 73.4733 90.6793 81.9453 94.2876C90.7578 97.3867 95.4309 98.3122 103.786 98.3637L102.974 78.6103C91.3396 80.5841 86.3274 81.6179 73.0255 79.842C59.7236 78.066 54.7203 76.2811 53.5286 65.2786C52.3369 54.2761 58.2706 47.9969 67.5968 47.4556C76.9229 46.9144 81.2761 52.3095 86.9345 61.3623C92.593 70.415 98.0614 68.4214 102.547 68.2369C100.096 55.0252 99.3826 48.3022 101.372 39.6552L36.5938 42.3193C40.1238 44.6061 45.3557 136.472 40.5378 138.217L105.184 135.559Z" fill="white"/>
</g>
<g filter="url(#filter6_d_9560_389)">
<path d="M683.862 153.438C682.419 144.258 682.299 139.417 683.862 131.508C677.792 132.595 672.914 133.678 664.34 141.102C660.953 143.1 658.141 145.442 652.205 146.47C652.487 142.625 652 140.603 650.622 137.105C648.589 131.656 646.631 129.03 642.312 124.769C638.155 120.265 636.408 117.647 634.661 112.777C633.12 105.596 637.168 102.954 642.312 102.954C647.456 102.954 654.054 105.719 662.362 109.807C671.03 113.384 675.657 114.538 683.994 114.947V94.502C672.301 96.047 667.256 96.9022 654.052 94.502C640.848 92.1017 635.927 90.0448 635.189 78.6259C634.451 67.207 640.632 60.9711 649.963 60.8081C659.293 60.6452 663.417 66.4047 668.693 75.9989C673.969 85.5931 679.509 83.7656 683.994 83.7656C682.091 70.0105 681.654 63.0336 683.994 54.1836H619.229C622.658 56.6964 624.109 151.839 619.229 153.438H683.862Z" fill="white"/>
</g>
<g filter="url(#filter7_d_9560_389)">
<path d="M233.191 131.058H193.381C195.129 129.448 196.394 127.217 197.176 124.365C198.004 121.513 198.51 118.57 198.694 115.534C198.878 112.452 198.97 109.968 198.97 108.083V58.1311C198.97 54.4054 198.878 51.0937 198.694 48.1959C198.51 45.2982 198.004 42.7684 197.176 40.6066C196.394 38.3988 195.129 36.559 193.381 35.0871H244.092C251.129 35.1791 256.672 36.398 260.719 38.7438C264.813 41.0896 267.711 44.1253 269.413 47.851C271.115 51.5766 271.965 55.4863 271.965 59.5799C271.965 65.0074 270.977 69.3541 268.999 72.6198C267.021 75.8855 264.399 78.4153 261.133 80.2091C257.914 81.957 254.326 83.2448 250.37 84.0728C246.461 84.9007 242.528 85.5676 238.572 86.0736C234.893 86.5795 231.443 87.1775 228.223 87.8674C225.05 88.5114 222.336 89.5233 220.082 90.9032C217.184 92.743 215.735 94.9968 215.735 97.6646C215.827 99.7804 216.471 101.827 217.667 103.805C218.863 105.737 220.266 107.692 221.876 109.67C223.394 111.509 224.774 113.418 226.015 115.396C227.303 117.328 228.2 119.421 228.706 121.674C229.396 125.768 230.891 128.896 233.191 131.058ZM209.733 88.7643C211.343 86.1886 213.62 84.0958 216.563 82.4859C219.553 80.876 222.773 79.4042 226.222 78.0703C228.706 77.1044 231.121 76.0695 233.467 74.9656C235.813 73.8617 237.928 72.5738 239.814 71.1019C241.746 69.584 243.287 67.7672 244.437 65.6514C245.587 63.4896 246.162 60.8908 246.162 57.8551C246.162 54.3134 245.081 51.4156 242.919 49.1618C240.803 46.908 237.675 45.7351 233.536 45.6432C231.098 45.6432 228.913 46.2641 226.981 47.506C225.096 48.7019 223.394 50.2198 221.876 52.0596C220.358 53.8994 218.932 55.7623 217.598 57.6481L215.735 60.2009C213.85 62.7766 212.47 65.4214 211.596 68.1352C210.768 70.8489 210.239 73.8617 210.009 77.1734C209.825 80.4851 209.733 84.3487 209.733 88.7643Z" fill="white"/>
</g>
<g filter="url(#filter8_d_9560_389)">
<path d="M386.583 57.043C379.141 57.043 374.317 59.9373 374.317 65.588C374.317 77.4408 407.808 85.4345 407.808 106.797C407.808 124.438 391.545 135.464 365.083 135.464C352.128 135.464 348.82 133.81 336.967 133.81C340.137 122.233 340.688 116.996 337.518 105.419C341.791 112.448 350.474 115.618 357.503 115.618C365.221 115.618 369.631 112.172 369.631 108.037C369.631 95.4956 338.759 89.4314 338.759 66.6906C338.759 48.7737 352.265 37.1966 378.314 37.1966C391.269 37.1966 394.577 38.9882 406.43 38.9882C403.26 50.4275 402.846 55.6648 405.879 67.2419C401.468 60.3508 394.301 57.043 386.583 57.043Z" fill="white"/>
</g>
<g filter="url(#filter9_d_9560_389)">
<path d="M478.985 151.31C469.253 151.31 461.523 149.695 455.793 146.467C450.063 143.192 445.948 138.486 443.447 132.347C440.991 126.208 439.763 118.818 439.763 110.178C439.763 106.586 439.786 103.812 439.831 101.856C439.877 99.9011 439.9 96.968 439.9 93.0572C439.9 72.9122 437.899 59.2018 433.897 51.9259L475.028 51.9941C474.574 56.8144 473.482 61.2026 471.754 65.1589C470.072 69.0696 468.207 72.7758 466.161 76.2773C464.797 78.5965 463.546 80.9157 462.409 83.2348C461.273 85.554 460.34 87.9414 459.613 90.397C458.885 92.8071 458.521 95.3537 458.521 98.0367C458.703 103.539 460.772 107.677 464.729 110.451C468.685 113.18 473.414 114.544 478.916 114.544C484.646 114.544 489.444 113.18 493.309 110.451C497.22 107.677 499.266 103.539 499.448 98.0367C499.448 95.3537 499.084 92.8071 498.357 90.397C497.629 87.9414 496.674 85.554 495.492 83.2348C494.355 80.9157 493.127 78.5737 491.808 76.2091C489.762 72.7076 487.875 69.0014 486.147 65.0907C484.464 61.1344 483.373 56.7689 482.873 51.9941L524.072 51.9259C520.071 59.2018 518.07 72.9122 518.07 93.0572L518.138 100.833C518.183 102.743 518.206 105.858 518.206 110.178C518.206 118.818 516.956 126.208 514.454 132.347C511.999 138.486 507.906 143.192 502.176 146.467C496.447 149.695 488.716 151.31 478.985 151.31Z" fill="white"/>
</g>
<g filter="url(#filter10_d_9560_389)">
<path d="M572.605 81.4241C575.293 81.602 577.562 80.9471 579.413 79.4594C581.311 77.9748 582.791 76.0127 583.852 73.5729C584.963 71.089 585.608 68.5033 585.786 65.8156C585.961 63.175 585.702 60.6478 585.009 58.234C584.317 55.8202 583.17 53.8263 581.569 52.2522C579.972 50.6309 577.876 49.7345 575.283 49.5628C570.709 49.26 566.714 49.8717 563.298 51.3979C559.932 52.88 557.289 54.8836 555.37 57.4087C553.45 59.9338 552.398 62.5873 552.214 65.3693C551.952 69.3302 553.448 72.8391 556.703 75.8961C559.961 78.9059 565.262 80.7486 572.605 81.4241ZM609.847 135.89L575.968 133.647C576.895 131.814 577.431 129.79 577.578 127.573C577.834 123.707 577.184 119.567 575.629 115.155C574.075 110.742 572.124 106.587 569.777 102.691C567.433 98.7468 565.09 95.5133 562.747 92.9903C560.407 90.4201 558.553 89.0897 557.186 88.9992C556.195 88.9336 555.143 89.1007 554.027 89.5005C552.961 89.8562 552.016 90.5513 551.189 91.5859C550.413 92.5764 549.963 94.0148 549.838 95.9009C549.748 97.2683 550.085 98.9719 550.85 101.012C551.665 103.007 552.653 105.251 553.814 107.743C555.025 110.192 556.18 112.778 557.278 115.503C558.424 118.231 559.351 121.039 560.06 123.927C560.768 126.816 561.026 129.722 560.832 132.645L524.69 130.253C526.581 128.863 528.025 127.088 529.02 124.928C530.016 122.768 530.706 120.208 531.091 117.25C531.477 114.292 531.796 110.903 532.048 107.084L535.438 55.8763C535.569 53.8959 535.643 51.3434 535.661 48.2188C535.681 45.0471 535.364 41.9714 534.709 38.9918C534.053 36.0121 532.885 33.6378 531.202 31.8689L582.198 35.2444C589.271 35.7126 594.896 37.2927 599.075 39.9846C603.257 42.6294 606.211 45.9506 607.935 49.9482C609.663 53.8986 610.381 58.0665 610.091 62.4517C609.47 71.8351 606.269 79.0586 600.487 84.1222C594.706 89.1858 587.117 91.8566 577.722 92.1345C579.652 93.7304 584.406 95.6079 591.983 97.767C595.922 99.0697 598.716 101.93 600.366 106.349C602.018 110.721 603.246 115.42 604.05 120.446C604.718 123.947 605.457 127.098 606.266 129.899C607.122 132.702 608.316 134.699 609.847 135.89Z" fill="white"/>
</g>
<g filter="url(#filter11_d_9560_389)">
<path d="M412.699 223.137L382.376 218.711C377.354 217.978 373.764 216.365 371.603 213.871C369.443 211.377 368.62 208.28 369.133 204.582C369.524 201.902 370.245 199.696 371.295 197.963C372.375 196.207 373.751 194.787 375.424 193.703C377.123 192.622 379.111 191.743 381.389 191.066C385.791 189.848 390.237 188.97 394.727 188.429C396.844 188.127 398.774 187.824 400.519 187.521C402.268 187.191 403.68 186.8 404.756 186.346C405.836 185.866 406.433 185.235 406.547 184.455C406.699 183.414 406.316 182.574 405.4 181.936C404.483 181.297 403.206 180.858 401.567 180.619C398.437 180.215 394.816 180.444 390.705 181.306C386.594 182.167 382.441 183.673 378.248 185.825L375.622 166.948C377.804 166.017 380.235 165.203 382.914 164.505C385.623 163.784 388.471 163.296 391.458 163.041C394.448 162.76 397.439 162.838 400.431 163.275C406.077 164.099 410.487 165.925 413.661 168.753C417.251 172.014 418.645 176.389 417.844 181.879C417.532 184.012 416.794 185.791 415.63 187.215C414.491 188.643 413.058 189.816 411.33 190.733C409.602 191.65 407.701 192.382 405.629 192.93C403.586 193.455 401.48 193.865 399.311 194.16C397.142 194.455 395.046 194.707 393.023 194.916C391.003 195.1 389.166 195.31 387.51 195.546C385.881 195.787 384.556 196.125 383.536 196.561C382.52 196.97 381.955 197.565 381.841 198.346C381.715 199.205 382.096 199.964 382.983 200.625C383.869 201.286 385.087 201.862 386.636 202.354C388.189 202.82 389.928 203.193 391.854 203.474C395.288 203.975 398.81 204.144 402.421 203.98C406.059 203.82 408.802 203.317 410.653 202.472L412.699 223.137Z" fill="white"/>
</g>
<g filter="url(#filter12_d_9560_389)">
<path d="M560.258 202.053C562.949 201.751 565.24 200.832 567.132 199.297C569.046 197.733 569.914 195.797 569.734 193.489C569.433 191.274 568.528 189.695 567.02 188.753C565.538 187.808 563.687 187.46 561.466 187.709C557.105 188.225 553.192 190.371 549.727 194.146C548.889 195.166 548.521 196.133 548.623 197.048C548.747 198.145 549.463 199.11 550.774 199.942C552.2 200.867 553.74 201.501 555.392 201.845C557.042 202.162 558.664 202.232 560.258 202.053ZM560.958 217.849C557.431 218.244 554.215 217.759 551.31 216.391C548.431 215.021 545.92 213.041 543.777 210.45C541.632 207.833 539.892 204.827 538.559 201.431C537.251 198.033 536.394 194.518 535.986 190.886C535.594 187.384 535.644 183.939 536.136 180.55C536.652 177.132 537.652 174.017 539.136 171.205C540.643 168.364 542.668 166.02 545.213 164.173C547.754 162.301 550.867 161.158 554.551 160.744C557.112 160.457 559.51 160.373 561.746 160.493C564.005 160.583 566.186 161.039 568.289 161.862C570.415 162.655 572.557 163.936 574.713 165.705L572.536 178.847C570.093 177.349 567.38 176.277 564.397 175.633C561.438 174.96 558.691 174.765 556.156 175.05C553.57 175.34 551.446 176.107 549.787 177.352C548.154 178.593 546.923 180.121 546.094 181.933C545.289 183.717 544.867 185.616 544.829 187.631C544.829 188.108 544.85 188.529 544.891 188.894C544.979 189.678 545.18 190.053 545.493 190.017C545.859 189.976 546.386 189.6 547.073 188.888C551.145 184.859 555.859 182.544 561.216 181.943C563.75 181.659 566.037 181.878 568.076 182.602C570.115 183.326 571.877 184.411 573.363 185.859C574.845 187.28 576.024 188.947 576.9 190.859C577.802 192.769 578.371 194.769 578.605 196.859C578.863 199.158 578.713 201.477 578.156 203.815C577.595 206.127 576.592 208.276 575.149 210.264C573.728 212.222 571.838 213.89 569.479 215.266C567.143 216.612 564.303 217.473 560.958 217.849Z" fill="white"/>
</g>
<g filter="url(#filter13_d_9560_389)">
<path d="M535.437 223.82L506.362 233.501C501.547 235.104 497.614 235.278 494.563 234.021C491.512 232.765 489.385 230.37 488.18 226.836C487.325 224.266 486.976 221.971 487.135 219.951C487.31 217.897 487.901 216.01 488.907 214.289C489.939 212.56 491.32 210.881 493.05 209.252C496.435 206.185 500.011 203.401 503.778 200.899C505.533 199.678 507.121 198.539 508.543 197.484C509.957 196.403 511.042 195.418 511.799 194.529C512.548 193.614 512.798 192.783 512.548 192.035C512.216 191.037 511.497 190.459 510.391 190.3C509.286 190.142 507.947 190.325 506.375 190.848C503.398 191.895 500.267 193.727 496.982 196.345C493.697 198.963 490.666 202.176 487.887 205.983L477.054 190.302C478.585 188.49 480.39 186.67 482.469 184.842C484.565 182.98 486.889 181.264 489.442 179.693C491.987 178.097 494.694 176.822 497.562 175.867C502.976 174.064 507.736 173.712 511.843 174.811C516.515 176.11 519.728 179.391 521.48 184.654C522.162 186.7 522.302 188.62 521.903 190.416C521.528 192.204 520.775 193.896 519.644 195.492C518.512 197.088 517.144 198.596 515.539 200.018C513.951 201.406 512.254 202.719 510.449 203.957C508.645 205.195 506.886 206.363 505.173 207.46C503.451 208.532 501.904 209.546 500.532 210.502C499.185 211.449 498.154 212.347 497.438 213.195C496.715 214.017 496.478 214.803 496.727 215.551C497.001 216.375 497.683 216.882 498.772 217.074C499.861 217.265 501.208 217.232 502.813 216.975C504.409 216.693 506.13 216.244 507.976 215.63C511.269 214.533 514.492 213.1 517.643 211.33C520.82 209.552 523.045 207.869 524.317 206.281L535.437 223.82Z" fill="white"/>
</g>
<g filter="url(#filter14_d_9560_389)">
<path d="M448.521 230.559C444.735 230.589 441.085 229.607 437.572 227.611C434.059 225.614 431.168 222.535 428.899 218.373C426.523 214.001 425.281 208.411 425.174 201.602C425.127 195.844 425.928 190.841 427.576 186.595C429.25 182.348 431.787 179.054 435.186 176.712C438.612 174.344 442.914 173.139 448.094 173.097C453.247 173.055 457.542 174.178 460.978 176.463C464.441 178.723 467.031 181.975 468.749 186.221C470.492 190.44 471.387 195.481 471.435 201.344C471.41 207.918 470.31 213.37 468.137 217.699C465.989 222.003 463.162 225.22 459.656 227.352C456.15 229.458 452.438 230.527 448.521 230.559ZM448.371 207.25C451.158 207.228 453.48 206.657 455.338 205.537C457.222 204.418 458.63 203 459.563 201.283C460.495 199.54 460.954 197.735 460.939 195.868C460.924 194.028 460.436 192.27 459.476 190.595C458.542 188.92 457.138 187.551 455.262 186.488C453.387 185.426 451.029 184.906 448.19 184.929C445.35 184.952 442.988 185.51 441.104 186.603C439.246 187.696 437.864 189.088 436.957 190.778C436.051 192.468 435.605 194.234 435.62 196.074C435.635 197.941 436.123 199.738 437.083 201.466C438.044 203.167 439.462 204.562 441.338 205.651C443.239 206.74 445.584 207.273 448.371 207.25Z" fill="white"/>
</g>
<g filter="url(#filter15_d_9560_389)">
<path d="M125.325 186.144C124.251 185.936 123.361 185.597 122.653 185.128C121.962 184.661 121.369 184.114 120.876 183.486C120.385 182.842 119.912 182.152 119.456 181.415C118.864 180.435 118.147 179.457 117.305 178.479C116.479 177.504 115.324 176.64 113.84 175.887C114.845 174.218 116.007 172.988 117.324 172.195C118.658 171.406 119.99 171.14 121.321 171.398C122.578 171.691 123.677 172.245 124.617 173.059C125.557 173.873 126.452 174.787 127.304 175.8C127.917 176.501 128.542 177.179 129.18 177.835C129.837 178.478 130.55 179.048 131.319 179.546C132.09 180.028 132.965 180.364 133.943 180.553C134.969 180.752 135.721 180.69 136.199 180.367C136.678 180.044 136.965 179.634 137.061 179.137C137.282 177.998 137.035 176.994 136.322 176.124C135.625 175.258 134.642 174.452 133.373 173.707C132.106 172.946 130.697 172.191 129.146 171.441C127.598 170.676 126.061 169.854 124.534 168.976C123.024 168.102 121.671 167.1 120.476 165.97C119.281 164.841 118.394 163.538 117.815 162.062C117.239 160.57 117.145 158.822 117.533 156.818C117.9 154.926 118.762 153.48 120.12 152.479C121.478 151.478 123.215 150.883 125.331 150.694C127.465 150.492 129.847 150.646 132.476 151.155C133.534 151.36 134.529 151.636 135.46 151.982C136.41 152.316 137.308 152.656 138.156 153.003C139.476 153.575 140.692 153.993 141.805 154.259C143.151 154.52 144.386 154.326 145.509 153.679C145.472 154.819 145.366 155.838 145.192 156.736C144.9 158.243 144.443 159.444 143.821 160.338C143.202 161.216 142.486 161.817 141.675 162.142C140.879 162.471 140.057 162.552 139.207 162.388C138.374 162.226 137.369 161.916 136.195 161.455C135.036 160.998 133.805 160.485 132.501 159.916C131.03 159.266 129.568 158.658 128.114 158.094C126.676 157.533 125.372 157.139 124.201 156.912C123.223 156.723 122.402 156.713 121.737 156.884C121.072 157.054 120.668 157.508 120.525 158.246C120.404 158.871 120.609 159.401 121.14 159.837C121.687 160.275 122.457 160.682 123.448 161.057C124.44 161.432 125.565 161.808 126.822 162.185C128.205 162.602 129.633 163.087 131.107 163.638C132.583 164.174 134.001 164.839 135.36 165.635C136.723 166.414 137.901 167.374 138.894 168.514C139.887 169.655 140.594 171.031 141.013 172.642C141.436 174.238 141.435 176.133 141.01 178.33C140.743 179.708 140.039 180.936 138.899 182.012C137.759 183.089 136.397 183.981 134.813 184.689C133.245 185.4 131.621 185.883 129.942 186.14C128.262 186.397 126.723 186.398 125.325 186.144ZM165.199 186.171C166.097 186.144 166.817 185.902 167.359 185.445C167.9 184.972 168.282 184.34 168.503 183.549C168.741 182.758 168.846 181.873 168.817 180.893C168.774 179.457 168.492 177.93 167.971 176.312C167.465 174.677 166.799 173.144 165.972 171.715C165.146 170.286 164.229 169.12 163.223 168.219C162.216 167.317 161.198 166.882 160.17 166.912C159.093 166.944 158.346 167.383 157.93 168.228C157.53 169.073 157.351 170.173 157.391 171.528C157.433 172.964 157.7 174.532 158.191 176.233C158.682 177.918 159.309 179.516 160.073 181.029C160.836 182.542 161.665 183.784 162.56 184.754C163.471 185.723 164.351 186.196 165.199 186.171ZM163.123 190.52C161.017 190.582 159.202 190.252 157.678 189.529C156.17 188.806 154.923 187.806 153.938 186.528C152.953 185.25 152.207 183.778 151.7 182.11C151.21 180.442 150.938 178.702 150.884 176.89C150.831 175.079 150.999 173.326 151.39 171.632C151.798 169.937 152.455 168.423 153.363 167.089C154.271 165.755 155.457 164.683 156.919 163.872C158.398 163.06 160.19 162.624 162.296 162.561C164.401 162.499 166.216 162.829 167.74 163.552C169.265 164.275 170.519 165.275 171.505 166.553C172.49 167.83 173.228 169.303 173.718 170.971C174.209 172.639 174.481 174.379 174.534 176.191C174.588 178.003 174.419 179.756 174.028 181.45C173.637 183.144 172.988 184.658 172.079 185.992C171.171 187.325 169.978 188.398 168.499 189.209C167.02 190.021 165.228 190.458 163.123 190.52ZM197.151 186.238L183.245 188.894C183.747 188.216 184.048 187.352 184.147 186.303C184.245 185.253 184.226 184.193 184.088 183.122C183.947 182.036 183.813 181.163 183.688 180.506L180.361 163.088C180.113 161.789 179.86 160.64 179.603 159.642C179.346 158.643 179.001 157.795 178.568 157.096C178.132 156.382 177.561 155.826 176.853 155.429L189.123 153.086L189.449 154.794C189.651 155.852 189.74 157.016 189.717 158.283C189.709 159.548 189.387 160.865 188.751 162.233C188.252 163.276 187.943 164.316 187.825 165.352C187.723 166.386 187.755 167.51 187.921 168.725C188.083 169.925 188.361 171.551 188.753 173.604C188.924 174.502 189.276 175.341 189.807 176.12C190.351 176.881 190.972 177.651 191.67 178.432C192.266 179.117 192.855 179.852 193.438 180.638C194.02 181.425 194.52 182.302 194.938 183.269C195.483 184.645 196.221 185.634 197.151 186.238ZM214.124 184.574C213.298 184.677 212.577 184.636 211.961 184.45C211.348 184.28 210.789 184.029 210.287 183.697C209.783 183.349 209.282 182.967 208.786 182.552C208.138 181.975 207.395 181.434 206.559 180.93C205.722 180.426 204.675 180.08 203.417 179.892C203.761 178.434 204.323 177.269 205.103 176.398C205.88 175.511 206.771 175.004 207.776 174.878C208.703 174.795 209.633 174.925 210.565 175.269C211.496 175.614 212.446 176.038 213.415 176.542C214.437 177.088 215.485 177.566 216.556 177.975C217.642 178.366 218.762 178.505 219.916 178.393C220.662 178.3 221.161 178.081 221.414 177.737C221.683 177.39 221.794 177.031 221.748 176.658C221.648 175.864 221.279 175.277 220.639 174.896C219.998 174.516 219.176 174.257 218.171 174.119C217.181 173.964 216.08 173.846 214.869 173.768C213.492 173.677 212.074 173.525 210.616 173.313C209.174 173.099 207.807 172.694 206.514 172.099C205.238 171.502 204.146 170.602 203.239 169.399C202.329 168.18 201.742 166.517 201.479 164.411C201.296 162.953 201.575 161.7 202.316 160.653C203.073 159.603 204.194 158.764 205.679 158.133C207.161 157.487 208.907 157.038 210.916 156.786C212.147 156.632 214.172 156.576 216.992 156.618C218.624 156.644 219.88 156.618 220.759 156.541C221.828 156.407 222.695 155.969 223.359 155.228C223.612 156.068 223.783 156.837 223.87 157.534C224.014 158.684 223.963 159.653 223.716 160.441C223.483 161.211 223.105 161.809 222.583 162.237C222.077 162.662 221.499 162.916 220.851 162.997C220.236 163.074 219.448 163.09 218.488 163.046C217.526 162.985 216.488 162.91 215.374 162.819C214.078 162.718 212.784 162.641 211.494 162.589C210.218 162.518 209.102 162.543 208.147 162.662C206.332 162.89 205.487 163.506 205.613 164.51C205.67 164.964 205.932 165.285 206.4 165.473C206.882 165.643 207.511 165.737 208.287 165.755C209.077 165.755 209.963 165.734 210.945 165.694C212.092 165.649 213.3 165.637 214.569 165.659C215.837 165.665 217.088 165.797 218.321 166.053C219.571 166.308 220.731 166.764 221.8 167.42C222.886 168.074 223.801 169.004 224.544 170.211C225.288 171.418 225.781 172.994 226.025 174.938C226.157 175.991 225.814 177.062 224.996 178.152C224.192 179.224 223.14 180.219 221.84 181.139C220.54 182.059 219.188 182.829 217.785 183.449C216.398 184.067 215.177 184.442 214.124 184.574ZM246.636 183.179C243.807 182.916 241.6 181.957 240.016 180.301C238.133 178.323 237.376 175.35 237.744 171.383L239.204 155.652C239.267 154.969 239.316 154.088 239.351 153.009C239.421 150.31 238.958 148.414 237.96 147.321L249.593 148.401C248.958 148.883 248.469 149.559 248.126 150.429C247.801 151.284 247.519 152.201 247.28 153.179C247.06 154.143 246.788 155.044 246.464 155.883L247.586 155.987C248.252 156.049 248.91 156.2 249.56 156.441C250.307 156.707 251.189 156.912 252.209 157.056C252.583 157.091 252.994 156.998 253.44 156.777C253.887 156.556 254.312 156.128 254.716 155.493C255.268 156.43 255.495 157.435 255.395 158.508C255.3 159.532 255.043 160.361 254.623 160.994C254.22 161.629 253.719 162.083 253.12 162.355C252.52 162.628 251.879 162.732 251.196 162.669C250.514 162.605 249.955 162.439 249.521 162.169C249.087 161.899 248.731 161.579 248.454 161.209C248.177 160.839 247.925 160.463 247.698 160.081C247.471 159.699 247.231 159.365 246.979 159.08C246.743 158.795 246.447 158.628 246.091 158.579C244.952 158.473 244.031 159.568 243.326 161.864C242.789 163.586 242.408 165.658 242.183 168.08L241.961 170.47C241.83 171.885 241.985 173.039 242.427 173.933C242.887 174.812 243.449 175.471 244.113 175.909C244.795 176.333 245.405 176.57 245.941 176.62C246.949 176.714 247.815 176.491 248.537 175.951C249.277 175.396 249.677 174.802 249.736 174.168C249.799 173.485 249.73 172.815 249.529 172.156C249.345 171.483 248.961 170.849 248.377 170.254C247.793 169.659 246.972 169.131 245.916 168.673L245.93 168.526C246.017 167.583 246.361 166.795 246.961 166.162C247.579 165.514 248.344 165.044 249.257 164.752C250.169 164.459 251.121 164.359 252.113 164.451C253.235 164.555 254.308 164.925 255.331 165.561C256.356 166.181 257.165 167.093 257.758 168.296C258.368 169.5 258.613 171.015 258.493 172.841L258.404 173.792C258.137 176.67 257.162 178.965 255.478 180.678C253.469 182.706 250.522 183.539 246.636 183.179ZM276.97 185.17L265.338 184.079C266.007 183.585 266.528 182.846 266.899 181.864C267.287 180.867 267.564 179.836 267.73 178.769C267.913 177.687 268.036 176.813 268.099 176.146L268.902 167.587C268.964 166.92 269.005 166.047 269.024 164.966C269.061 163.871 268.981 162.805 268.783 161.77C268.602 160.72 268.229 159.89 267.663 159.279L279.295 160.37C278.626 160.864 278.097 161.61 277.708 162.607C277.337 163.589 277.06 164.621 276.877 165.703C276.711 166.769 276.597 167.636 276.534 168.303L275.732 176.862C275.669 177.529 275.619 178.41 275.582 179.505C275.563 180.586 275.643 181.651 275.824 182.701C276.022 183.736 276.404 184.56 276.97 185.17ZM273.598 158.433C272.85 158.363 272.147 158.166 271.488 157.842C270.846 157.519 270.34 157.053 269.971 156.445C269.618 155.838 269.485 155.071 269.572 154.144C269.657 153.234 269.93 152.513 270.389 151.982C270.865 151.453 271.449 151.089 272.14 150.892C272.847 150.696 273.575 150.633 274.322 150.703C275.087 150.774 275.79 150.972 276.432 151.294C277.09 151.618 277.596 152.084 277.949 152.691C278.318 153.3 278.46 154.059 278.375 154.97C278.288 155.896 278.007 156.624 277.531 157.154C277.071 157.685 276.487 158.048 275.78 158.244C275.089 158.442 274.362 158.505 273.598 158.433ZM297.603 189.959C295.508 189.454 293.754 188.612 292.342 187.432C290.95 186.239 289.875 184.847 289.116 183.253C288.362 181.644 287.91 179.931 287.76 178.114C287.626 176.301 287.773 174.506 288.201 172.728C288.599 171.077 289.232 169.533 290.099 168.096C290.982 166.663 292.072 165.448 293.371 164.45C294.685 163.457 296.192 162.779 297.892 162.416C299.592 162.053 301.474 162.12 303.538 162.618C304.601 162.874 305.888 163.352 307.399 164.052C308.298 164.504 309.129 164.822 309.891 165.005C310.843 165.235 311.71 165.158 312.491 164.775C312.516 165.856 312.432 166.794 312.241 167.587C311.977 168.683 311.559 169.514 310.985 170.081C310.428 170.652 309.811 171.016 309.135 171.172C308.459 171.328 307.835 171.338 307.264 171.2C306.248 170.955 305.435 170.633 304.826 170.235C304.22 169.82 303.739 169.376 303.383 168.904C303.027 168.432 302.732 167.983 302.498 167.557C302.269 167.116 302.024 166.737 301.764 166.423C301.52 166.112 301.183 165.905 300.755 165.802C300.072 165.637 299.371 166.073 298.651 167.109C297.935 168.129 297.393 169.401 297.026 170.924C296.704 172.258 296.6 173.669 296.711 175.157C296.839 176.649 297.315 177.981 298.141 179.155C298.987 180.316 300.293 181.134 302.059 181.611C303.281 181.905 304.527 181.895 305.795 181.579C307.064 181.263 308.193 180.62 309.183 179.649C309.485 181.603 309.469 183.27 309.136 184.652C308.819 185.969 308.266 187.045 307.477 187.879C306.691 188.698 305.762 189.314 304.688 189.727C303.618 190.124 302.468 190.334 301.236 190.356C300.005 190.379 298.794 190.246 297.603 189.959ZM328.4 197.743C326.128 197.138 324.246 196.24 322.755 195.049C321.269 193.843 320.141 192.461 319.372 190.905C318.604 189.349 318.163 187.702 318.051 185.966C317.938 184.229 318.105 182.525 318.55 180.852C319.003 179.148 319.715 177.554 320.684 176.072C321.673 174.578 322.876 173.327 324.293 172.318C325.731 171.298 327.349 170.614 329.149 170.265C330.968 169.904 332.919 170.001 335.002 170.555C336.217 170.879 337.65 171.429 339.302 172.207C340.553 172.776 341.518 173.151 342.196 173.332C343.017 173.55 343.846 173.483 344.683 173.132C344.698 174.217 344.609 175.123 344.416 175.849C344.244 176.496 343.967 177.089 343.587 177.63C343.211 178.155 342.704 178.756 342.068 179.431L338.795 182.97C338.291 183.529 337.672 184.048 336.936 184.528C336.204 184.992 335.418 185.341 334.579 185.574C333.74 185.807 332.926 185.818 332.137 185.608C331.316 185.39 330.668 185.032 330.192 184.533C329.737 184.023 329.432 183.452 329.279 182.82C329.147 182.177 329.164 181.539 329.332 180.908C329.5 180.277 329.822 179.703 330.297 179.188C330.772 178.672 331.383 178.311 332.131 178.105C332.148 179.123 332.397 179.899 332.88 180.433C333.379 180.971 333.92 181.318 334.504 181.473C335.309 181.688 336.189 181.651 337.144 181.365C338.099 181.078 338.979 180.468 339.786 179.533L339.306 179.431C338.296 179.162 337.46 178.813 336.797 178.383C336.154 177.942 335.62 177.47 335.196 176.969C334.772 176.467 334.409 175.99 334.107 175.538C333.809 175.07 333.51 174.67 333.21 174.336C332.91 174.003 332.547 173.78 332.121 173.666C331.348 173.461 330.467 173.944 329.479 175.118C328.511 176.279 327.804 177.697 327.359 179.369C327.023 180.632 326.928 181.941 327.074 183.298C327.236 184.659 327.785 185.895 328.723 187.006C329.661 188.118 331.104 188.949 333.052 189.502C334.314 189.838 335.694 189.892 337.191 189.665C338.687 189.438 339.957 188.856 341.001 187.917C341.243 189.738 341.192 191.296 340.848 192.59C340.486 193.947 339.866 195.041 338.986 195.871C338.106 196.701 337.075 197.306 335.893 197.684C334.727 198.066 333.486 198.252 332.171 198.24C330.872 198.232 329.615 198.066 328.4 197.743Z" fill="white"/>
</g>
</g>
<defs>
<filter id="filter0_d_9560_389" x="152.258" y="48.1436" width="31.9456" height="77.1995" filterUnits="userSpaceOnUse" color-interpolation-filters="sRGB">
<feFlood flood-opacity="0" result="BackgroundImageFix"/>
<feColorMatrix in="SourceAlpha" type="matrix" values="0 0 0 0 0 0 0 0 0 0 0 0 0 0 0 0 0 0 127 0" result="hardAlpha"/>
<feOffset dy="1.02943"/>
<feGaussianBlur stdDeviation="0.514714"/>
<feComposite in2="hardAlpha" operator="out"/>
<feColorMatrix type="matrix" values="0 0 0 0 0 0 0 0 0 0 0 0 0 0 0 0 0 0 0.25 0"/>
<feBlend mode="normal" in2="BackgroundImageFix" result="effect1_dropShadow_9560_389"/>
<feBlend mode="normal" in="SourceGraphic" in2="effect1_dropShadow_9560_389" result="shape"/>
</filter>
<filter id="filter1_d_9560_389" x="164.867" y="101.361" width="17.6702" height="16.9055" filterUnits="userSpaceOnUse" color-interpolation-filters="sRGB">
<feFlood flood-opacity="0" result="BackgroundImageFix"/>
<feColorMatrix in="SourceAlpha" type="matrix" values="0 0 0 0 0 0 0 0 0 0 0 0 0 0 0 0 0 0 127 0" result="hardAlpha"/>
<feOffset dy="1.02943"/>
<feGaussianBlur stdDeviation="0.514714"/>
<feComposite in2="hardAlpha" operator="out"/>
<feColorMatrix type="matrix" values="0 0 0 0 0 0 0 0 0 0 0 0 0 0 0 0 0 0 0.25 0"/>
<feBlend mode="normal" in2="BackgroundImageFix" result="effect1_dropShadow_9560_389"/>
<feBlend mode="normal" in="SourceGraphic" in2="effect1_dropShadow_9560_389" result="shape"/>
</filter>
<filter id="filter2_d_9560_389" x="113.492" y="51.1602" width="35.6409" height="76.6995" filterUnits="userSpaceOnUse" color-interpolation-filters="sRGB">
<feFlood flood-opacity="0" result="BackgroundImageFix"/>
<feColorMatrix in="SourceAlpha" type="matrix" values="0 0 0 0 0 0 0 0 0 0 0 0 0 0 0 0 0 0 127 0" result="hardAlpha"/>
<feOffset dy="1.02943"/>
<feGaussianBlur stdDeviation="0.514714"/>
<feComposite in2="hardAlpha" operator="out"/>
<feColorMatrix type="matrix" values="0 0 0 0 0 0 0 0 0 0 0 0 0 0 0 0 0 0 0.25 0"/>
<feBlend mode="normal" in2="BackgroundImageFix" result="effect1_dropShadow_9560_389"/>
<feBlend mode="normal" in="SourceGraphic" in2="effect1_dropShadow_9560_389" result="shape"/>
</filter>
<filter id="filter3_d_9560_389" x="121.754" y="102.572" width="16.2991" height="18.2005" filterUnits="userSpaceOnUse" color-interpolation-filters="sRGB">
<feFlood flood-opacity="0" result="BackgroundImageFix"/>
<feColorMatrix in="SourceAlpha" type="matrix" values="0 0 0 0 0 0 0 0 0 0 0 0 0 0 0 0 0 0 127 0" result="hardAlpha"/>
<feOffset dy="1.02943"/>
<feGaussianBlur stdDeviation="0.514714"/>
<feComposite in2="hardAlpha" operator="out"/>
<feColorMatrix type="matrix" values="0 0 0 0 0 0 0 0 0 0 0 0 0 0 0 0 0 0 0.25 0"/>
<feBlend mode="normal" in2="BackgroundImageFix" result="effect1_dropShadow_9560_389"/>
<feBlend mode="normal" in="SourceGraphic" in2="effect1_dropShadow_9560_389" result="shape"/>
</filter>
<filter id="filter4_d_9560_389" x="36.5938" y="31.8691" width="647.4" height="214.453" filterUnits="userSpaceOnUse" color-interpolation-filters="sRGB">
<feFlood flood-opacity="0" result="BackgroundImageFix"/>
<feColorMatrix in="SourceAlpha" type="matrix" values="0 0 0 0 0 0 0 0 0 0 0 0 0 0 0 0 0 0 127 0" result="hardAlpha"/>
<feOffset dy="8.03638"/>
<feComposite in2="hardAlpha" operator="out"/>
<feColorMatrix type="matrix" values="0 0 0 0 0 0 0 0 0 0 0 0 0 0 0 0 0 0 0.25 0"/>
<feBlend mode="normal" in2="BackgroundImageFix" result="effect1_dropShadow_9560_389"/>
<feBlend mode="normal" in="SourceGraphic" in2="effect1_dropShadow_9560_389" result="shape"/>
</filter>
<filter id="filter5_d_9560_389" x="34.687" y="39.6553" width="72.4033" height="102.375" filterUnits="userSpaceOnUse" color-interpolation-filters="sRGB">
<feFlood flood-opacity="0" result="BackgroundImageFix"/>
<feColorMatrix in="SourceAlpha" type="matrix" values="0 0 0 0 0 0 0 0 0 0 0 0 0 0 0 0 0 0 127 0" result="hardAlpha"/>
<feOffset dy="1.90675"/>
<feGaussianBlur stdDeviation="0.953374"/>
<feComposite in2="hardAlpha" operator="out"/>
<feColorMatrix type="matrix" values="0 0 0 0 0 0 0 0 0 0 0 0 0 0 0 0 0 0 0.25 0"/>
<feBlend mode="normal" in2="BackgroundImageFix" result="effect1_dropShadow_9560_389"/>
<feBlend mode="normal" in="SourceGraphic" in2="effect1_dropShadow_9560_389" result="shape"/>
</filter>
<filter id="filter6_d_9560_389" x="617.322" y="54.1836" width="68.5791" height="103.067" filterUnits="userSpaceOnUse" color-interpolation-filters="sRGB">
<feFlood flood-opacity="0" result="BackgroundImageFix"/>
<feColorMatrix in="SourceAlpha" type="matrix" values="0 0 0 0 0 0 0 0 0 0 0 0 0 0 0 0 0 0 127 0" result="hardAlpha"/>
<feOffset dy="1.90675"/>
<feGaussianBlur stdDeviation="0.953374"/>
<feComposite in2="hardAlpha" operator="out"/>
<feColorMatrix type="matrix" values="0 0 0 0 0 0 0 0 0 0 0 0 0 0 0 0 0 0 0.25 0"/>
<feBlend mode="normal" in2="BackgroundImageFix" result="effect1_dropShadow_9560_389"/>
<feBlend mode="normal" in="SourceGraphic" in2="effect1_dropShadow_9560_389" result="shape"/>
</filter>
<filter id="filter7_d_9560_389" x="191.474" y="35.0869" width="82.3975" height="99.7842" filterUnits="userSpaceOnUse" color-interpolation-filters="sRGB">
<feFlood flood-opacity="0" result="BackgroundImageFix"/>
<feColorMatrix in="SourceAlpha" type="matrix" values="0 0 0 0 0 0 0 0 0 0 0 0 0 0 0 0 0 0 127 0" result="hardAlpha"/>
<feOffset dy="1.90675"/>
<feGaussianBlur stdDeviation="0.953374"/>
<feComposite in2="hardAlpha" operator="out"/>
<feColorMatrix type="matrix" values="0 0 0 0 0 0 0 0 0 0 0 0 0 0 0 0 0 0 0.25 0"/>
<feBlend mode="normal" in2="BackgroundImageFix" result="effect1_dropShadow_9560_389"/>
<feBlend mode="normal" in="SourceGraphic" in2="effect1_dropShadow_9560_389" result="shape"/>
</filter>
<filter id="filter8_d_9560_389" x="335.06" y="37.1963" width="74.6553" height="102.081" filterUnits="userSpaceOnUse" color-interpolation-filters="sRGB">
<feFlood flood-opacity="0" result="BackgroundImageFix"/>
<feColorMatrix in="SourceAlpha" type="matrix" values="0 0 0 0 0 0 0 0 0 0 0 0 0 0 0 0 0 0 127 0" result="hardAlpha"/>
<feOffset dy="1.90675"/>
<feGaussianBlur stdDeviation="0.953374"/>
<feComposite in2="hardAlpha" operator="out"/>
<feColorMatrix type="matrix" values="0 0 0 0 0 0 0 0 0 0 0 0 0 0 0 0 0 0 0.25 0"/>
<feBlend mode="normal" in2="BackgroundImageFix" result="effect1_dropShadow_9560_389"/>
<feBlend mode="normal" in="SourceGraphic" in2="effect1_dropShadow_9560_389" result="shape"/>
</filter>
<filter id="filter9_d_9560_389" x="431.99" y="51.9258" width="93.9893" height="103.197" filterUnits="userSpaceOnUse" color-interpolation-filters="sRGB">
<feFlood flood-opacity="0" result="BackgroundImageFix"/>
<feColorMatrix in="SourceAlpha" type="matrix" values="0 0 0 0 0 0 0 0 0 0 0 0 0 0 0 0 0 0 127 0" result="hardAlpha"/>
<feOffset dy="1.90675"/>
<feGaussianBlur stdDeviation="0.953374"/>
<feComposite in2="hardAlpha" operator="out"/>
<feColorMatrix type="matrix" values="0 0 0 0 0 0 0 0 0 0 0 0 0 0 0 0 0 0 0.25 0"/>
<feBlend mode="normal" in2="BackgroundImageFix" result="effect1_dropShadow_9560_389"/>
<feBlend mode="normal" in="SourceGraphic" in2="effect1_dropShadow_9560_389" result="shape"/>
</filter>
<filter id="filter10_d_9560_389" x="522.783" y="31.8691" width="95.4834" height="107.834" filterUnits="userSpaceOnUse" color-interpolation-filters="sRGB">
<feFlood flood-opacity="0" result="BackgroundImageFix"/>
<feColorMatrix in="SourceAlpha" type="matrix" values="0 0 0 0 0 0 0 0 0 0 0 0 0 0 0 0 0 0 127 0" result="hardAlpha"/>
<feOffset dy="1.90675"/>
<feGaussianBlur stdDeviation="0.953374"/>
<feComposite in2="hardAlpha" operator="out"/>
<feColorMatrix type="matrix" values="0 0 0 0 0 0 0 0 0 0 0 0 0 0 0 0 0 0 0.25 0"/>
<feBlend mode="normal" in2="BackgroundImageFix" result="effect1_dropShadow_9560_389"/>
<feBlend mode="normal" in="SourceGraphic" in2="effect1_dropShadow_9560_389" result="shape"/>
</filter>
<filter id="filter11_d_9560_389" x="367.391" y="159.664" width="53.6074" height="65.5422" filterUnits="userSpaceOnUse" color-interpolation-filters="sRGB">
<feFlood flood-opacity="0" result="BackgroundImageFix"/>
<feColorMatrix in="SourceAlpha" type="matrix" values="0 0 0 0 0 0 0 0 0 0 0 0 0 0 0 0 0 0 127 0" result="hardAlpha"/>
<feOffset dy="2.06952"/>
<feComposite in2="hardAlpha" operator="out"/>
<feColorMatrix type="matrix" values="0 0 0 0 0 0 0 0 0 0 0 0 0 0 0 0 0 0 0.21 0"/>
<feBlend mode="normal" in2="BackgroundImageFix" result="effect1_dropShadow_9560_389"/>
<feBlend mode="normal" in="SourceGraphic" in2="effect1_dropShadow_9560_389" result="shape"/>
</filter>
<filter id="filter12_d_9560_389" x="532.877" y="158.528" width="47.834" height="63.8215" filterUnits="userSpaceOnUse" color-interpolation-filters="sRGB">
<feFlood flood-opacity="0" result="BackgroundImageFix"/>
<feColorMatrix in="SourceAlpha" type="matrix" values="0 0 0 0 0 0 0 0 0 0 0 0 0 0 0 0 0 0 127 0" result="hardAlpha"/>
<feOffset dy="2.06952"/>
<feComposite in2="hardAlpha" operator="out"/>
<feColorMatrix type="matrix" values="0 0 0 0 0 0 0 0 0 0 0 0 0 0 0 0 0 0 0.21 0"/>
<feBlend mode="normal" in2="BackgroundImageFix" result="effect1_dropShadow_9560_389"/>
<feBlend mode="normal" in="SourceGraphic" in2="effect1_dropShadow_9560_389" result="shape"/>
</filter>
<filter id="filter13_d_9560_389" x="473.838" y="169.3" width="61.5977" height="71.0558" filterUnits="userSpaceOnUse" color-interpolation-filters="sRGB">
<feFlood flood-opacity="0" result="BackgroundImageFix"/>
<feColorMatrix in="SourceAlpha" type="matrix" values="0 0 0 0 0 0 0 0 0 0 0 0 0 0 0 0 0 0 127 0" result="hardAlpha"/>
<feOffset dy="2.06952"/>
<feComposite in2="hardAlpha" operator="out"/>
<feColorMatrix type="matrix" values="0 0 0 0 0 0 0 0 0 0 0 0 0 0 0 0 0 0 0.21 0"/>
<feBlend mode="normal" in2="BackgroundImageFix" result="effect1_dropShadow_9560_389"/>
<feBlend mode="normal" in="SourceGraphic" in2="effect1_dropShadow_9560_389" result="shape"/>
</filter>
<filter id="filter14_d_9560_389" x="424.943" y="172.91" width="46.7266" height="59.9055" filterUnits="userSpaceOnUse" color-interpolation-filters="sRGB">
<feFlood flood-opacity="0" result="BackgroundImageFix"/>
<feColorMatrix in="SourceAlpha" type="matrix" values="0 0 0 0 0 0 0 0 0 0 0 0 0 0 0 0 0 0 127 0" result="hardAlpha"/>
<feOffset dy="2.06952"/>
<feComposite in2="hardAlpha" operator="out"/>
<feColorMatrix type="matrix" values="0 0 0 0 0 0 0 0 0 0 0 0 0 0 0 0 0 0 0.21 0"/>
<feBlend mode="normal" in2="BackgroundImageFix" result="effect1_dropShadow_9560_389"/>
<feBlend mode="normal" in="SourceGraphic" in2="effect1_dropShadow_9560_389" result="shape"/>
</filter>
<filter id="filter15_d_9560_389" x="111.979" y="137.649" width="235.344" height="70.8098" filterUnits="userSpaceOnUse" color-interpolation-filters="sRGB">
<feFlood flood-opacity="0" result="BackgroundImageFix"/>
<feColorMatrix in="SourceAlpha" type="matrix" values="0 0 0 0 0 0 0 0 0 0 0 0 0 0 0 0 0 0 127 0" result="hardAlpha"/>
<feOffset dy="2.06952"/>
<feComposite in2="hardAlpha" operator="out"/>
<feColorMatrix type="matrix" values="0 0 0 0 0 0 0 0 0 0 0 0 0 0 0 0 0 0 0.21 0"/>
<feBlend mode="normal" in2="BackgroundImageFix" result="effect1_dropShadow_9560_389"/>
<feBlend mode="normal" in="SourceGraphic" in2="effect1_dropShadow_9560_389" result="shape"/>
</filter>
<linearGradient id="paint0_linear_9560_389" x1="179.238" y1="87.8094" x2="141.605" y2="88.5549" gradientUnits="userSpaceOnUse">
<stop stop-color="#EB65B6"/>
<stop offset="1" stop-color="#86C7FD"/>
</linearGradient>
<linearGradient id="paint1_linear_9560_389" x1="206.794" y1="138.9" x2="153.445" y2="100.178" gradientUnits="userSpaceOnUse">
<stop offset="0.908664" stop-color="#C766EB" stop-opacity="0.38"/>
<stop offset="1" stop-color="#86C7FD" stop-opacity="0"/>
</linearGradient>
<linearGradient id="paint2_linear_9560_389" x1="176.13" y1="93.2122" x2="153.223" y2="77.7315" gradientUnits="userSpaceOnUse">
<stop stop-color="white"/>
<stop offset="0.5" stop-color="#A5D5FE"/>
<stop offset="1" stop-color="#86C7FD"/>
</linearGradient>
<linearGradient id="paint3_linear_9560_389" x1="173.271" y1="88.6669" x2="144.796" y2="88.7263" gradientUnits="userSpaceOnUse">
<stop stop-color="#C3E3FE"/>
<stop offset="0.279701" stop-color="white"/>
<stop offset="1" stop-color="#86C7FD"/>
</linearGradient>
<linearGradient id="paint4_linear_9560_389" x1="166.903" y1="102.064" x2="181.544" y2="110.511" gradientUnits="userSpaceOnUse">
<stop stop-color="#86C7FD"/>
<stop offset="1" stop-color="#C766EB"/>
</linearGradient>
<linearGradient id="paint5_linear_9560_389" x1="122.203" y1="90.5858" x2="159.679" y2="87.0704" gradientUnits="userSpaceOnUse">
<stop stop-color="#EB65B6"/>
<stop offset="1" stop-color="#86C7FD"/>
</linearGradient>
<linearGradient id="paint6_linear_9560_389" x1="100.603" y1="144.466" x2="149.23" y2="99.959" gradientUnits="userSpaceOnUse">
<stop offset="0.908664" stop-color="#C766EB" stop-opacity="0.38"/>
<stop offset="1" stop-color="#86C7FD" stop-opacity="0"/>
</linearGradient>
<linearGradient id="paint7_linear_9560_389" x1="125.899" y1="95.6037" x2="146.908" y2="77.6316" gradientUnits="userSpaceOnUse">
<stop stop-color="white"/>
<stop offset="0.5" stop-color="#A5D5FE"/>
<stop offset="1" stop-color="#86C7FD"/>
</linearGradient>
<linearGradient id="paint8_linear_9560_389" x1="128.219" y1="90.7658" x2="156.518" y2="87.6043" gradientUnits="userSpaceOnUse">
<stop stop-color="#C3E3FE"/>
<stop offset="0.279701" stop-color="white"/>
<stop offset="1" stop-color="#86C7FD"/>
</linearGradient>
<linearGradient id="paint9_linear_9560_389" x1="136.055" y1="103.357" x2="122.464" y2="113.405" gradientUnits="userSpaceOnUse">
<stop stop-color="#86C7FD"/>
<stop offset="1" stop-color="#C766EB"/>
</linearGradient>
</defs>
</svg>
