<svg width="99" height="64" viewBox="0 0 99 64" fill="none" xmlns="http://www.w3.org/2000/svg">
<g filter="url(#filter0_d_8997_2582)">
<mask id="mask0_8997_2582" style="mask-type:alpha" maskUnits="userSpaceOnUse" x="5" y="13" width="51" height="37">
<path fill-rule="evenodd" clip-rule="evenodd" d="M30.5595 14.1203L30.5777 14.6507L31.1431 14.6651C36.7617 14.8082 41.9044 16.3221 45.9906 19.036C51.7406 22.8551 54.5189 28.5013 53.4184 34.1317C52.6562 38.0315 50.1049 41.5954 46.2006 44.214C45.658 44.578 45.0726 44.9593 44.8999 45.0615C44.5602 45.2625 42.632 46.2511 42.5798 46.2511C42.5623 46.2511 42.3987 46.321 42.2164 46.4064C41.4538 46.7634 40.0143 47.264 38.3984 47.7343C37.9878 47.8538 36.8923 48.0889 35.7287 48.3073C35.3623 48.3761 34.1528 48.528 33.1218 48.6347C32.0357 48.7471 28.7083 48.7275 27.5311 48.6017C26.3318 48.4736 25.6484 48.3845 25.2383 48.3029C25.0655 48.2685 24.7687 48.21 24.5787 48.1728C24.2056 48.0998 23.9876 48.0526 23.2596 47.8871C22.5151 47.7179 21.1584 47.3106 20.305 47C19.264 46.6211 19.3227 46.645 18.2342 46.1571C17.6221 45.8827 16.0854 45.0721 15.8375 44.8929C15.7458 44.8266 15.6549 44.7724 15.6355 44.7724C15.5679 44.7724 14.4919 44.042 13.8999 43.5942C13.2976 43.1387 12.2079 42.2024 11.9935 41.9562C11.8799 41.8257 11.8812 41.8175 12.0563 41.5667C12.1547 41.4258 13.0112 40.2306 13.9596 38.9106C14.9081 37.5906 16.0657 35.9754 16.5321 35.3212C19.6016 31.016 21.0169 29.0772 22.6571 26.9308C23.2786 26.1175 23.8027 25.4376 23.8217 25.4199C23.8407 25.4022 23.9684 25.2431 24.1054 25.0663C25.224 23.6226 27.0842 21.5793 27.8615 20.9404C28.3027 20.5778 28.853 20.2767 29.0701 20.2791C29.2285 20.2808 29.3711 20.3917 29.48 20.5979C29.7116 21.0361 29.5935 23.1761 29.2263 25.1949C28.7833 27.6309 28.6998 28.0648 28.5365 28.7793C28.4319 29.2372 28.1819 30.5077 28.0336 31.335C27.9273 31.9278 27.8661 32.2351 27.694 33.0387C27.6031 33.4631 27.4982 33.9549 27.4608 34.1317C27.4234 34.3085 27.3709 34.5545 27.3442 34.6782C27.3175 34.802 27.2068 35.3228 27.0982 35.8355C26.9897 36.3483 26.8733 36.869 26.8395 36.9928C26.7848 37.1936 26.3152 39.6164 26.1541 40.529C26.1198 40.7235 26.0759 41.1285 26.0566 41.4291C26.0277 41.8782 26.0416 42.0156 26.1346 42.2006C26.2436 42.4175 26.2589 42.4249 26.5596 42.4051C27.4251 42.3482 28.623 41.546 29.6105 40.3621C30.8003 38.9356 31.4634 37.8131 33.4046 33.9389C33.7766 33.1963 34.2146 32.3283 34.3778 32.01C34.5409 31.6918 34.8801 31.0263 35.1315 30.5313C35.3829 30.0362 35.7517 29.3129 35.951 28.9239C36.1502 28.535 36.5428 27.7547 36.8232 27.1901C37.3123 26.2055 37.8818 25.2296 37.9684 25.2279C37.991 25.2274 37.9978 25.3356 37.9834 25.4681C37.9691 25.6008 37.9292 26.1866 37.8948 26.7701C37.8603 27.3536 37.7908 28.3662 37.7402 29.0204C37.6245 30.5162 37.6237 31.3379 37.7369 32.7173C38.0469 36.4979 39.0534 39.1409 40.9091 41.0481C42.0635 42.2345 42.505 42.4904 43.0814 42.3074C44.3526 41.9038 46.8162 40.5622 46.7363 40.317C46.723 40.276 46.6005 40.2094 46.4642 40.169C46.1496 40.0758 45.4863 39.7349 45.1198 39.4779C44.4604 39.0158 43.2802 37.7252 42.7794 36.9188C41.8959 35.4961 41.253 33.2692 41.0332 30.8708C40.9326 29.7721 40.9908 26.3724 41.1562 23.684C41.2946 21.4356 41.3185 20.4693 41.2359 20.4693C41.1328 20.4693 40.3651 20.8023 39.8033 21.0909C38.8105 21.6007 38.0984 22.2354 37.3176 23.3066C36.9526 23.8072 36.5139 24.4938 36.5139 24.5642C36.5139 24.5872 36.4756 24.6518 36.4288 24.7076C36.3455 24.8069 36.0497 25.353 35.5557 26.32C35.4202 26.5852 35.2165 26.9758 35.1031 27.188C34.9898 27.4002 34.8127 27.7329 34.7098 27.9274C34.6069 28.1219 34.4229 28.4691 34.3009 28.6989C34.179 28.9288 33.9799 29.3049 33.8586 29.5347C33.6543 29.9218 33.2254 30.7244 32.8106 31.4957C31.948 33.0994 30.3907 35.7755 30.0637 36.2159C29.9554 36.3618 30.0144 35.2252 30.1686 34.196C30.2004 33.9839 30.2708 33.4775 30.3251 33.0709C30.3793 32.6642 30.4511 32.1579 30.4846 31.9457C30.5181 31.7336 30.659 30.7883 30.7977 29.845C30.9365 28.9018 31.0635 28.0483 31.0799 27.9483C31.1628 27.4447 31.4355 25.6928 31.5235 25.0984C31.653 24.2249 31.6904 23.9868 32.0437 21.7873C32.2162 20.7131 32.2645 20.3828 32.4315 19.1389C32.5129 18.5329 32.5113 17.2156 32.4289 17.0582C32.2679 16.7503 31.5901 16.6289 31.0676 16.8144C30.5208 17.0085 29.4942 17.6565 28.7032 18.3068C26.129 20.4231 22.7949 24.2087 18.418 29.9848C16.4615 32.5667 12.7074 37.7795 10.9533 40.3497C10.8638 40.481 10.7763 40.5876 10.759 40.5866C10.6767 40.582 10.0644 39.7725 9.597 39.0502C8.43401 37.2531 7.75879 35.499 7.45627 33.4888C7.4084 33.1705 7.3687 32.8054 7.36807 32.6775C7.36701 32.4588 7.35275 32.4423 7.13138 32.4049C6.75844 32.3419 6.01639 32.3572 5.94578 32.4295C5.84006 32.5377 6.05213 34.0897 6.30578 35.064C6.82559 37.0606 7.84372 39.0524 9.27299 40.8689C10.0369 41.8399 10.0017 41.7532 9.76522 42.0824C9.2608 42.7843 9.13197 42.9682 8.85469 43.383C8.52095 43.882 8.47164 44.0249 8.51404 44.3699C8.54513 44.623 8.77178 45.2715 8.8611 45.363C8.93629 45.4399 9.65799 44.6741 10.3994 43.7305C10.7527 43.2809 11.0627 42.9119 11.0884 42.9105C11.114 42.909 11.4035 43.1389 11.7317 43.4214C13.2659 44.7416 15.0006 45.8787 16.8981 46.8082C17.3555 47.0322 17.7446 47.2155 17.7629 47.2155C17.781 47.2155 17.9298 47.2767 18.0936 47.3516C18.6903 47.6243 19.1735 47.8111 20.213 48.1707C22.4991 48.9616 24.9341 49.4616 27.8138 49.7312C29.021 49.8443 32.3664 49.8224 33.5891 49.6934C35.003 49.5443 36.5675 49.3105 37.2363 49.1483C37.3745 49.1148 37.8126 49.0109 38.2099 48.9175C39.6346 48.5824 41.5515 47.9626 42.5757 47.5057C42.6793 47.4595 42.9903 47.3265 43.2667 47.2101C43.8063 46.9831 45.4213 46.1491 45.818 45.8928C45.9509 45.807 46.0758 45.7368 46.0957 45.7368C46.1817 45.7368 47.9772 44.484 48.6375 43.9633C49.541 43.2509 51.4175 41.3386 52.0077 40.529C53.311 38.741 54.1882 36.9693 54.6436 35.2054C55.2898 32.7027 55.256 30.3327 54.5391 27.8624C53.7788 25.2433 52.207 22.7799 49.8938 20.582C49.0726 19.8017 49.0685 19.7981 48.2284 19.1506C45.88 17.3406 42.8246 15.8122 39.7489 14.9089C39.5416 14.848 39.3014 14.7741 39.215 14.7446C39.0368 14.6837 38.1018 14.453 37.62 14.351C36.3026 14.072 35.1133 13.8747 34.1897 13.782C33.2448 13.6872 31.7869 13.5985 31.0934 13.5937L30.5412 13.5898L30.5595 14.1203ZM28.6618 13.968L28.4419 14.0078L28.4633 14.3614C28.475 14.5559 28.508 14.7399 28.5363 14.7705C28.6337 14.875 28.7163 14.7448 28.6846 14.537C28.6495 14.3072 28.785 14.0554 28.9035 14.1303C28.9433 14.1555 28.9763 14.2684 28.9768 14.3812C28.9781 14.652 29.0699 14.8053 29.1695 14.7032C29.2806 14.5895 29.1848 14.0557 29.039 13.9758C28.9743 13.9403 28.9124 13.9151 28.9015 13.9198C28.8906 13.9244 28.7827 13.9462 28.6618 13.968ZM27.6618 14.1132C27.5447 14.2249 27.5244 14.2944 27.5543 14.4826C27.6151 14.8661 27.8935 14.9858 28.168 14.7463L28.3163 14.6169L28.0838 14.6338C27.9559 14.6431 27.8493 14.6218 27.8469 14.5864C27.8445 14.551 27.9421 14.5131 28.0637 14.5022C28.3295 14.4782 28.3511 14.359 28.1307 14.1334C27.9415 13.9398 27.8479 13.9357 27.6618 14.1132ZM26.9488 14.11C26.8876 14.1465 26.7802 14.1577 26.7102 14.1349C26.6402 14.1122 26.5447 14.1259 26.4982 14.1654C26.4517 14.2049 26.3895 14.2328 26.3599 14.2274C26.1787 14.1941 26.1447 14.2409 26.1813 14.4739C26.2547 14.941 26.2781 15.0043 26.3773 15.0043C26.4604 15.0043 26.4702 14.9551 26.435 14.7145C26.4008 14.4809 26.4121 14.417 26.4934 14.3851C26.6296 14.3316 26.6564 14.3705 26.697 14.6805C26.7231 14.8796 26.7571 14.941 26.8331 14.9257C26.9129 14.9097 26.9298 14.8411 26.913 14.6013C26.8938 14.3286 26.9052 14.2971 27.0229 14.2971C27.1169 14.2971 27.1544 14.3382 27.1551 14.4417C27.1565 14.6938 27.2284 14.8757 27.3266 14.8757C27.4048 14.8757 27.4141 14.8157 27.3793 14.5382C27.3548 14.3426 27.2935 14.1668 27.2336 14.1203C27.1107 14.0247 27.093 14.0241 26.9488 14.11ZM24.83 14.2053C24.83 14.2653 24.8727 14.298 24.9347 14.2857C25.0923 14.2544 25.1139 14.1042 24.9608 14.1042C24.8837 14.1042 24.83 14.1457 24.83 14.2053ZM27.8256 14.21C27.7436 14.2939 27.7827 14.3614 27.9132 14.3614C27.9863 14.3614 28.0331 14.3277 28.0192 14.2851C27.9886 14.1911 27.8837 14.1504 27.8256 14.21ZM25.4365 14.3504C25.3188 14.4835 25.3007 14.7591 25.3975 14.9443C25.5008 15.1418 26.0235 15.0999 26.0235 14.8941C26.0235 14.8276 25.9894 14.8119 25.9136 14.8438C25.7353 14.9187 25.6306 14.9133 25.601 14.8275C25.5848 14.7805 25.6255 14.7471 25.699 14.7471C26.0236 14.7471 26.1286 14.5429 25.9086 14.3392C25.7579 14.1996 25.5657 14.2042 25.4365 14.3504ZM24.8943 14.5335C24.8952 14.6333 24.9243 14.8412 24.959 14.9954C25.0052 15.2005 25.0022 15.3005 24.9476 15.3678C24.8373 15.5039 24.9641 15.6056 25.1089 15.4973C25.2125 15.4197 25.2185 15.3602 25.1684 14.9029C25.1239 14.4975 25.0904 14.3904 25.0027 14.3733C24.9188 14.357 24.8932 14.3949 24.8943 14.5335ZM24.2706 14.486C24.1032 14.5292 23.9597 14.7136 24.0342 14.7898C24.0604 14.8167 24.1367 14.8036 24.2038 14.7608C24.342 14.6724 24.4531 14.6594 24.4531 14.7314C24.4531 14.7582 24.3667 14.8191 24.2611 14.867C24.1069 14.9369 24.0729 14.9873 24.0884 15.1238C24.1088 15.3046 24.3 15.3804 24.5048 15.2889C24.5627 15.263 24.6384 15.2362 24.6729 15.2293C24.7075 15.2224 24.7539 15.2124 24.7761 15.207C24.7983 15.2016 24.7842 15.0486 24.7447 14.867C24.6674 14.5114 24.5471 14.4147 24.2706 14.486ZM25.5838 14.5221C25.5838 14.6302 25.5953 14.6346 25.7353 14.5796C25.8503 14.5345 25.8072 14.4257 25.6743 14.4257C25.6245 14.4257 25.5838 14.4691 25.5838 14.5221ZM23.3642 14.7036L23.1234 14.7725L23.1651 15.0574C23.2204 15.4345 23.2559 15.5187 23.36 15.5187C23.424 15.5187 23.443 15.4385 23.4318 15.2156C23.4201 14.9808 23.4393 14.9079 23.5175 14.8913C23.5905 14.8758 23.6409 14.9516 23.6991 15.1645C23.8004 15.5345 23.9267 15.5104 23.898 15.1264C23.8791 14.8733 23.7419 14.605 23.6424 14.6266C23.6219 14.6311 23.4967 14.6657 23.3642 14.7036ZM21.669 14.7927C21.5771 14.8168 21.5567 14.8812 21.5647 15.1224C21.5796 15.5702 21.5709 15.5768 21.4023 15.2454C21.2411 14.9284 21.1581 14.8842 20.9797 15.0204C20.8821 15.095 20.8853 15.1356 21.0244 15.583C21.119 15.8872 21.2114 16.0728 21.2747 16.0859C21.3935 16.1105 21.3988 16.0576 21.305 15.7821C21.2056 15.4905 21.2732 15.471 21.4378 15.7436C21.6282 16.0589 21.773 16.022 21.8179 15.6467L21.8524 15.3579L21.9161 15.5828C21.9532 15.714 22.0265 15.817 22.092 15.8299C22.1884 15.8489 22.1979 15.8218 22.1595 15.6372C22.0794 15.2528 21.9105 14.7881 21.8462 14.7754C21.8116 14.7685 21.7319 14.7763 21.669 14.7927ZM22.3644 14.9452C22.304 14.9812 22.2545 15.0527 22.2545 15.104C22.2545 15.2096 22.4152 15.2308 22.4744 15.1329C22.5194 15.0583 22.6944 15.0455 22.6938 15.1168C22.6936 15.1433 22.6088 15.2144 22.5054 15.2745C22.3032 15.3923 22.26 15.5828 22.4069 15.7077C22.4766 15.7668 22.5575 15.7627 22.7681 15.6894C23.0661 15.5858 23.0839 15.5104 22.9111 15.0847C22.8436 14.9183 22.7904 14.8761 22.6503 14.8776C22.5535 14.8787 22.4249 14.9091 22.3644 14.9452ZM24.3274 15.0365C24.2621 15.117 24.2712 15.1329 24.3826 15.1329C24.4592 15.1329 24.5159 15.0919 24.5159 15.0365C24.5159 14.9834 24.4911 14.94 24.4607 14.94C24.4305 14.94 24.3705 14.9834 24.3274 15.0365ZM22.5732 15.4165C22.5229 15.4785 22.5205 15.5204 22.5655 15.5489C22.6533 15.6044 22.757 15.5336 22.757 15.4184C22.757 15.3004 22.6681 15.2994 22.5732 15.4165ZM19.9617 15.6598C19.7925 15.758 19.7347 15.8586 19.8058 15.9313C19.8422 15.9686 19.9104 15.9488 19.9854 15.8794C20.0677 15.8032 20.1199 15.7901 20.1492 15.8385C20.1727 15.8776 20.1175 15.9696 20.0263 16.043C19.7274 16.2837 19.9238 16.5987 20.2683 16.4309C20.3415 16.3953 20.454 16.3487 20.5184 16.3274C20.6008 16.3001 20.6173 16.2652 20.5742 16.209C20.5405 16.1653 20.4949 16.0519 20.4728 15.9571C20.428 15.7652 20.2746 15.5819 20.1614 15.5849C20.1206 15.586 20.0308 15.6197 19.9617 15.6598ZM19.4117 15.878C19.3913 15.8988 19.3888 16.0218 19.4061 16.1512L19.4376 16.3866L19.26 16.1784C19.0292 15.9082 18.899 15.9727 18.9564 16.329L18.9968 16.5795L18.8079 16.3545C18.6778 16.1995 18.5985 16.1501 18.5535 16.1956C18.4683 16.2818 18.9121 16.8614 19.0665 16.8657C19.1519 16.8681 19.1769 16.8149 19.1785 16.6277L19.1807 16.3866L19.2986 16.5313C19.5212 16.8044 19.6162 16.7227 19.6162 16.258C19.6162 15.9526 19.5936 15.8401 19.5325 15.8401C19.4864 15.8401 19.432 15.8572 19.4117 15.878ZM20.0847 16.1659C20.0619 16.2036 20.0591 16.2506 20.0783 16.2703C20.13 16.3232 20.3072 16.2406 20.3072 16.1636C20.3072 16.0763 20.1378 16.0781 20.0847 16.1659ZM18.0051 16.4176C17.8225 16.494 17.7752 16.5883 17.8225 16.7813C17.8575 16.9239 17.8906 16.9411 18.0954 16.9223C18.2235 16.9106 18.3426 16.9299 18.3599 16.9653C18.3771 17.0006 18.2994 17.0386 18.1871 17.0497C17.9276 17.0753 17.9035 17.2546 18.1595 17.2546C18.3467 17.2546 18.6111 17.0507 18.6111 16.9063C18.6111 16.7569 18.4329 16.6578 18.2365 16.698C18.1343 16.7189 18.0335 16.7077 18.0126 16.6731C17.9918 16.6385 18.0624 16.5922 18.1697 16.5702C18.277 16.5483 18.3543 16.498 18.3414 16.4584C18.3107 16.3641 18.1728 16.3473 18.0051 16.4176ZM17.2292 16.5083C17.2292 16.5576 17.2734 16.6153 17.3273 16.6365C17.3814 16.6577 17.4086 16.7031 17.388 16.7374C17.331 16.8316 17.6574 17.4475 17.7642 17.4475C17.8154 17.4475 17.8573 17.4311 17.8573 17.4112C17.8573 17.3006 17.5343 16.6759 17.477 16.6759C17.4377 16.6759 17.4259 16.6218 17.449 16.5474C17.4801 16.4471 17.4603 16.4188 17.359 16.4188C17.2876 16.4188 17.2292 16.4591 17.2292 16.5083ZM16.8116 16.9962C16.6283 17.0729 16.5816 17.167 16.6297 17.363C16.6678 17.5183 16.6876 17.5259 16.9548 17.4884C17.1667 17.4587 17.2327 17.4689 17.2136 17.5284C17.1994 17.5723 17.1195 17.6179 17.0358 17.6297C16.8292 17.6589 16.742 17.7544 16.8743 17.8063C17.0365 17.87 17.3516 17.7079 17.3929 17.5394C17.4465 17.3209 17.3773 17.2546 17.0961 17.2546C16.9446 17.2546 16.8602 17.2291 16.8837 17.1903C16.905 17.1549 16.9797 17.126 17.0496 17.126C17.1234 17.126 17.1658 17.0923 17.1506 17.0456C17.1174 16.9434 16.9841 16.924 16.8116 16.9962ZM15.9868 17.419C15.8317 17.5302 15.7993 17.7047 15.9338 17.7047C15.9813 17.7047 16.0552 17.6616 16.0979 17.6089C16.1406 17.5563 16.2029 17.5305 16.2363 17.5517C16.2698 17.5728 16.2179 17.6748 16.1211 17.7783C15.9804 17.9287 15.9585 17.9886 16.0124 18.0767C16.1132 18.2413 16.3208 18.2447 16.5317 18.0851L16.7195 17.9431L16.5649 17.631C16.3958 17.2894 16.2448 17.234 15.9868 17.419ZM14.8426 17.8172C14.8428 17.8791 14.9002 18.0165 14.9701 18.1226C15.0401 18.2286 15.1421 18.4095 15.1967 18.5244C15.2514 18.6393 15.3386 18.7334 15.3906 18.7334C15.4902 18.7334 15.4826 18.6723 15.3366 18.3003C15.2701 18.1308 15.2699 18.0771 15.3357 18.0109C15.4195 17.9266 15.4276 17.9338 15.7319 18.3614C15.8273 18.4955 15.8403 18.4984 15.8805 18.3942C15.9365 18.2496 15.6363 17.7689 15.4901 17.7689C15.4328 17.7689 15.3362 17.815 15.2753 17.8714C15.1734 17.9659 15.1582 17.9633 15.0825 17.8393C14.9826 17.6757 14.842 17.6627 14.8426 17.8172ZM16.266 17.8118C16.1895 17.8901 16.2227 18.0261 16.3183 18.0261C16.3706 18.0261 16.4125 17.969 16.4125 17.8975C16.4125 17.7695 16.3456 17.7303 16.266 17.8118ZM14.3807 18.4009C14.2672 18.5292 14.2407 18.7334 14.3374 18.7334C14.3707 18.7334 14.4282 18.6755 14.4652 18.6048C14.5326 18.476 14.6537 18.4283 14.6537 18.5306C14.6537 18.5606 14.5971 18.6518 14.528 18.7334C14.3817 18.9061 14.3832 18.8979 14.4674 19.0591C14.5514 19.2196 14.7295 19.2177 14.8735 19.0548C14.936 18.9841 15.0252 18.9262 15.0717 18.9262C15.1182 18.9262 15.1562 18.8828 15.1562 18.8298C15.1562 18.7768 15.1343 18.7334 15.1077 18.7334C15.081 18.7334 15.0059 18.6321 14.9407 18.5083C14.8046 18.2496 14.5566 18.202 14.3807 18.4009ZM13.6475 18.5285L13.5068 18.6451L13.637 18.9464C13.7086 19.1121 13.7529 19.2477 13.7356 19.2477C13.7183 19.2477 13.5911 19.1548 13.4531 19.0413C13.2578 18.8807 13.1793 18.8495 13.0993 18.9012C12.925 19.0137 12.9441 19.0816 13.2769 19.5316C13.4953 19.827 13.6196 19.9461 13.6629 19.9017C13.7063 19.8573 13.6873 19.7778 13.6038 19.6545C13.3816 19.3263 13.3695 19.2922 13.5004 19.3639C13.5654 19.3996 13.6722 19.4892 13.7376 19.5632C13.9824 19.84 14.1204 19.6863 13.9847 19.2878C13.8654 18.9373 13.8749 18.9303 14.0965 19.2054C14.2213 19.3604 14.315 19.4271 14.3531 19.3882C14.3912 19.3492 14.3045 19.1598 14.1158 18.8693C13.9524 18.6178 13.8117 18.4119 13.8034 18.4119C13.795 18.4119 13.7249 18.4643 13.6475 18.5285ZM14.6583 18.8241C14.608 18.8861 14.6056 18.928 14.6506 18.9565C14.7384 19.0119 14.8421 18.9412 14.8421 18.826C14.8421 18.708 14.7532 18.707 14.6583 18.8241ZM12.2771 19.9389C12.2062 20.0007 12.1394 20.1062 12.1289 20.1733C12.1019 20.3437 12.267 20.3853 12.3095 20.2189C12.3286 20.1444 12.3832 20.0835 12.431 20.0835C12.5452 20.0835 12.5417 20.1762 12.4237 20.2764C12.3102 20.3728 12.3016 20.5436 12.4048 20.6493C12.5275 20.7748 12.6639 20.7389 12.8561 20.5305L13.0367 20.3346L12.8879 20.1608C12.5685 19.7881 12.4849 19.7577 12.2771 19.9389ZM12.5396 20.3756C12.5191 20.4302 12.5194 20.4922 12.54 20.5134C12.5944 20.5689 12.7744 20.4014 12.7334 20.3334C12.6797 20.2446 12.5806 20.2662 12.5396 20.3756ZM11.5914 20.5371C11.3661 20.7532 11.3534 20.7985 11.4603 21.004C11.6216 21.3139 11.9537 21.4045 12.0928 21.1765C12.1917 21.0144 12.2666 21.0117 12.2666 21.1702C12.2666 21.249 12.1979 21.3171 12.0735 21.3614C11.8723 21.4332 11.8742 21.5623 12.0763 21.5623C12.2383 21.5623 12.5233 21.2023 12.4722 21.0623C12.4151 20.906 11.934 20.3407 11.8583 20.341C11.8238 20.3412 11.7036 20.4294 11.5914 20.5371ZM11.6592 20.7639C11.6132 20.8866 11.8467 21.1471 11.9462 21.0841C12.0378 21.0262 12.0343 20.8359 11.94 20.7393C11.8348 20.6317 11.7045 20.6431 11.6592 20.7639ZM11.026 21.0867C10.9482 21.1775 10.8847 21.2747 10.8847 21.3028C10.8847 21.331 11.01 21.459 11.1631 21.5875C11.479 21.8524 11.629 21.7899 11.362 21.5045C11.2284 21.3619 11.2049 21.2899 11.2373 21.124C11.2855 20.8772 11.216 20.8649 11.026 21.0867ZM10.4559 21.6468C10.3808 21.7286 10.3193 21.8443 10.3193 21.9039C10.3193 22.0555 10.4908 22.0397 10.5392 21.8838C10.5611 21.813 10.6054 21.7552 10.6376 21.7552C10.7177 21.7552 10.7116 21.9066 10.6281 21.9921C10.5094 22.1135 10.5866 22.3637 10.7501 22.3874C10.8558 22.4027 10.9488 22.3476 11.075 22.1946L11.2518 21.9802L11.0241 21.7391C10.76 21.4595 10.645 21.4408 10.4559 21.6468ZM10.7807 22.0473C10.7602 22.1018 10.7593 22.1626 10.7785 22.1823C10.8335 22.2386 10.9475 22.1431 10.9475 22.0407C10.9475 21.9173 10.8276 21.9221 10.7807 22.0473ZM9.96919 22.2129C9.94463 22.2536 10.0116 22.3538 10.1225 22.4427C10.3247 22.6046 10.3892 22.8482 10.2299 22.8482C10.1808 22.8482 10.0565 22.7758 9.95386 22.6874C9.85122 22.599 9.73394 22.5267 9.69317 22.5267C9.54279 22.5267 9.66811 22.7517 9.91925 22.9323C10.1369 23.0888 10.1993 23.1068 10.3115 23.0453C10.3849 23.0051 10.445 22.9313 10.445 22.8813C10.445 22.8312 10.4944 22.7617 10.5549 22.7267C10.6532 22.6699 10.6386 22.6356 10.4165 22.4021C10.1625 22.1349 10.046 22.0857 9.96919 22.2129ZM9.16633 22.6995C9.07103 22.797 9.1478 22.9093 9.50277 23.1915C9.9031 23.5096 10.027 23.558 9.99413 23.3833C9.97 23.2551 9.22487 22.6396 9.16633 22.6995ZM9.12342 23.3493C8.85595 23.4309 8.79954 23.7823 9.0199 23.9943C9.28486 24.249 9.69116 24.1068 9.69116 23.7593C9.69116 23.5769 9.5176 23.5769 9.4914 23.7593C9.48035 23.8361 9.436 23.9109 9.39278 23.9254C9.28273 23.9625 9.2946 23.7807 9.40849 23.684C9.62533 23.4998 9.42004 23.2588 9.12342 23.3493ZM9.09183 23.624C9.06902 23.6617 9.06551 23.708 9.08391 23.7269C9.12895 23.7729 9.25144 23.6918 9.25144 23.6159C9.25144 23.5337 9.14302 23.5392 9.09183 23.624ZM8.30794 23.8776C8.23268 23.9253 8.23099 23.982 8.29726 24.2357C8.3406 24.4014 8.36347 24.55 8.34808 24.5657C8.33269 24.5815 8.25178 24.5485 8.1683 24.4925C8.01816 24.3919 7.93217 24.4115 7.93242 24.5466C7.93248 24.5849 8.06672 24.7015 8.2308 24.8057C8.39481 24.9098 8.59237 25.0359 8.66976 25.0858C8.79244 25.1651 8.81518 25.1641 8.84734 25.0783C8.86807 25.023 8.82699 24.9212 8.75375 24.8462C8.55958 24.6475 8.59338 24.5841 8.89339 24.5841C9.14409 24.5841 9.31426 24.5009 9.31426 24.3784C9.31426 24.3501 9.14767 24.3269 8.94408 24.3269C8.56046 24.3269 8.49764 24.2815 8.49764 24.004C8.49764 23.8537 8.42371 23.8044 8.30794 23.8776ZM7.61966 25.7535C7.5498 25.9015 7.49258 26.0458 7.49258 26.074C7.49258 26.1277 7.85139 26.2968 8.1014 26.361C8.33985 26.4223 8.27829 26.2068 8.02652 26.0991C7.87658 26.035 7.80666 25.9632 7.80666 25.8733C7.80666 25.7161 7.86364 25.7103 8.16082 25.8374C8.55807 26.0073 8.63383 25.8151 8.24889 25.6141C7.87469 25.4187 7.7664 25.4427 7.61966 25.7535ZM7.23968 26.5161C7.15908 26.6702 7.18151 26.9951 7.27272 26.9951C7.30727 26.9951 7.34446 26.9155 7.35539 26.8183C7.3834 26.5694 7.49258 26.5975 7.49258 26.8537C7.49258 27.0719 7.58473 27.2201 7.72054 27.2201C7.83863 27.2201 8.00635 27.0215 7.97005 26.9246C7.95233 26.8773 7.96483 26.8214 7.99787 26.8005C8.12483 26.7202 8.04857 26.5749 7.83041 26.4816C7.51682 26.3475 7.32184 26.3589 7.23968 26.5161ZM7.64962 26.7701C7.60383 26.846 7.66325 26.963 7.74755 26.963C7.78009 26.963 7.80666 26.9051 7.80666 26.8344C7.80666 26.6988 7.71526 26.6614 7.64962 26.7701ZM6.73878 27.1865C6.73878 27.3311 6.9401 27.5416 7.07843 27.5416C7.1577 27.5416 7.31594 27.5749 7.43001 27.6156C7.60986 27.6798 7.64868 27.6739 7.72205 27.5712C7.84787 27.3951 7.82513 27.33 7.6532 27.3742C7.47555 27.4198 7.17849 27.3008 7.17849 27.184C7.17849 27.1346 7.09507 27.1067 6.95864 27.1107C6.83771 27.1142 6.73878 27.1483 6.73878 27.1865ZM6.73853 27.928C6.68268 28.0661 6.67464 28.1681 6.71466 28.233C6.79896 28.3697 6.89557 28.3377 6.8972 28.1725C6.89965 27.921 7.04369 27.9694 7.06454 28.2288C7.08264 28.4537 7.09972 28.4739 7.27272 28.4739C7.43548 28.4739 7.46406 28.4476 7.4824 28.281C7.49415 28.1749 7.53253 28.0524 7.56777 28.0088C7.64177 27.9172 7.41695 27.8067 7.04765 27.7531C6.84111 27.7231 6.8156 27.7376 6.73853 27.928ZM7.17849 28.1899C7.17849 28.3466 7.3253 28.3245 7.35583 28.1631C7.36789 28.0997 7.33585 28.056 7.2773 28.056C7.21907 28.056 7.17849 28.1109 7.17849 28.1899ZM6.55033 28.6951C6.55033 28.7638 6.57859 28.8378 6.61314 28.8596C6.76365 28.9549 6.65931 29.0192 6.41835 28.9797C6.19114 28.9425 6.16331 28.9514 6.18285 29.0552C6.20446 29.17 6.4365 29.2574 7.01429 29.3684C7.21135 29.4062 7.24131 29.3956 7.24131 29.288C7.24131 29.216 7.18591 29.1492 7.10933 29.1286C6.9516 29.0864 7.00807 28.9561 7.18415 28.9561C7.30463 28.9561 7.41776 28.7938 7.34753 28.7219C7.32825 28.7022 7.20607 28.722 7.07598 28.766C6.85813 28.8396 6.83231 28.835 6.75002 28.7081C6.63877 28.5366 6.55033 28.5308 6.55033 28.6951ZM6.12983 29.512C6.08203 29.6394 6.10521 29.6534 6.48519 29.7272C6.96529 29.8203 7.17849 29.8106 7.17849 29.6955C7.17849 29.6424 7.15726 29.599 7.13138 29.599C7.1055 29.5989 6.87735 29.5584 6.62439 29.5091C6.22575 29.4313 6.15992 29.4317 6.12983 29.512ZM24.1861 43.4229C23.9674 43.5621 24.0953 43.8723 24.3714 43.8723C24.5134 43.8723 24.5159 43.8843 24.5159 44.5795C24.5159 45.2697 24.5125 45.2867 24.3746 45.2877C24.1443 45.2893 24.0543 45.3817 24.1004 45.5694L24.1415 45.7372L24.7841 45.697C25.4784 45.6535 25.6699 45.5701 25.545 45.3659C25.5056 45.3015 25.3801 45.2462 25.2476 45.2346L25.0184 45.2146V44.5471V43.8796L25.2854 43.8598C25.5073 43.8435 25.5558 43.8157 25.5724 43.6956C25.5872 43.5894 25.5495 43.5343 25.4308 43.4881C25.1742 43.3883 24.3115 43.3431 24.1861 43.4229ZM25.8393 43.4784C25.8 43.5536 25.7722 44.0211 25.7722 44.6074C25.7722 45.5473 25.7805 45.6167 25.908 45.7471L26.0437 45.886L26.1592 45.74C26.2273 45.654 26.2748 45.4909 26.2748 45.3432V45.0924L26.6216 45.3816C27.0355 45.7266 27.2638 45.8055 27.3795 45.6436C27.4744 45.5108 27.435 45.3697 27.2898 45.3211C27.2325 45.3018 27.0313 45.1462 26.8428 44.9752L26.5 44.6641L26.9213 44.1697C27.3592 43.6559 27.4041 43.5545 27.2517 43.425C27.1323 43.3236 27.0538 43.3764 26.6451 43.8335L26.3062 44.2127L26.2748 43.8013C26.245 43.4124 26.2342 43.389 26.0748 43.3701C25.9576 43.3562 25.8859 43.3892 25.8393 43.4784ZM30.2803 43.4704C30.227 43.5323 30.1639 43.6842 30.1401 43.808C30.1163 43.9317 30.025 44.3428 29.9372 44.7214C29.7551 45.5062 29.7729 45.7368 30.0155 45.7368C30.1023 45.7368 30.1841 45.7006 30.1973 45.6564C30.2105 45.6122 30.2703 45.3807 30.3303 45.1421C30.3903 44.9034 30.4567 44.7081 30.4779 44.7081C30.4992 44.7081 30.5503 44.8534 30.5915 45.031C30.7084 45.5348 30.8079 45.7046 30.986 45.7046C31.1532 45.7046 31.2282 45.5872 31.4236 45.0193C31.5606 44.621 31.5988 44.586 31.6483 44.813C31.8258 45.6274 32.016 45.9318 32.218 45.7249C32.3145 45.6263 32.3124 45.5787 32.1895 45.0509C32.1166 44.7386 32.0246 44.295 31.9849 44.0651C31.9006 43.5773 31.7856 43.3579 31.6144 43.3579C31.4634 43.3579 31.3565 43.5691 31.2078 44.1616C31.0741 44.6942 31.0072 44.794 30.9536 44.5406C30.8118 43.8702 30.7651 43.6921 30.6901 43.5347C30.594 43.3328 30.4222 43.3059 30.2803 43.4704ZM32.9368 43.4829C32.8696 43.5517 32.7983 43.7035 32.7783 43.8204C32.7093 44.2232 32.6282 44.6128 32.5267 45.0294C32.3971 45.5614 32.4358 45.7523 32.6674 45.7248C32.8437 45.7038 32.8461 45.6991 33.0072 45.0778C33.0508 44.9098 33.1074 44.7724 33.1331 44.7724C33.1587 44.7724 33.2117 44.8954 33.2506 45.0456C33.3654 45.4882 33.5019 45.7368 33.63 45.7368C33.7722 45.7368 33.8767 45.5733 34.0718 45.0456C34.2201 44.6446 34.3153 44.5351 34.3153 44.7656C34.3153 44.9973 34.5679 45.7235 34.6613 45.7602C34.8097 45.8185 34.9435 45.7353 34.9427 45.5852C34.9423 45.5094 34.8858 45.216 34.8172 44.9331C34.7485 44.6502 34.6629 44.2337 34.6268 44.0076C34.544 43.4884 34.4752 43.3579 34.2839 43.3579C34.0941 43.3579 34.0443 43.4523 33.8756 44.1325C33.7388 44.6842 33.6243 44.9223 33.6243 44.6555C33.6243 44.4553 33.3786 43.5386 33.2984 43.4398C33.204 43.3233 33.0781 43.3384 32.9368 43.4829ZM28.6936 43.599C28.6047 43.6963 28.3998 43.9928 28.2383 44.258C28.0769 44.5232 27.9082 44.7785 27.8636 44.8252C27.8189 44.8719 27.7824 44.9529 27.7824 45.0052C27.7824 45.0574 27.7382 45.1876 27.6842 45.2945C27.606 45.4494 27.6016 45.5081 27.663 45.5838C27.7872 45.737 27.9918 45.6615 28.1022 45.4217C28.2356 45.1318 28.3845 45.0295 28.6735 45.0295C28.8947 45.0295 28.9222 45.0508 29.0438 45.3156C29.2185 45.696 29.3288 45.7889 29.4538 45.6609C29.5383 45.5744 29.5232 45.4563 29.3148 44.5734C29.0201 43.3252 28.9889 43.2762 28.6936 43.599ZM36.0846 43.7597C35.9498 43.9454 35.7595 44.2419 35.6615 44.4188C35.5636 44.5956 35.4568 44.759 35.4243 44.7819C35.3711 44.8193 35.2498 45.1104 35.1494 45.441C35.1009 45.6007 35.2955 45.7549 35.4434 45.6739C35.5015 45.6421 35.5995 45.5015 35.6612 45.3616C35.7463 45.1685 35.819 45.0978 35.963 45.0684C36.3597 44.9872 36.4438 45.016 36.5469 45.2683C36.6708 45.5719 36.8165 45.7372 36.9233 45.6953C37.0501 45.6455 37.0829 45.4977 37.0102 45.3022C36.9742 45.2053 36.8752 44.797 36.7902 44.3948C36.5542 43.2779 36.4817 43.2125 36.0846 43.7597ZM28.6411 44.4753C28.5346 44.6417 28.5352 44.6438 28.6918 44.6438C28.8587 44.6438 28.8697 44.6209 28.7952 44.427C28.7528 44.3166 28.7402 44.3206 28.6411 44.4753ZM36.1484 44.483C36.0832 44.6296 36.0899 44.6438 36.2239 44.6438C36.3467 44.6438 36.3659 44.6175 36.3408 44.483C36.3243 44.3946 36.2904 44.3223 36.2654 44.3223C36.2404 44.3223 36.1877 44.3946 36.1484 44.483Z" fill="white"/>
</mask>
<g mask="url(#mask0_8997_2582)">
<rect x="0.996094" y="10.7314" width="56.7985" height="44.6886" fill="#012340"/>
</g>
<g filter="url(#filter1_d_8997_2582)">
<g filter="url(#filter2_d_8997_2582)">
<g filter="url(#filter3_d_8997_2582)">
<path fill-rule="evenodd" clip-rule="evenodd" d="M81.7044 31.9927L81.719 32.017C81.7857 32.1375 81.8514 32.2552 81.9161 32.3714C82.0441 32.601 82.1685 32.8241 82.2908 33.0495C82.8989 34.1571 83.5059 35.2647 84.1128 36.3723C84.7197 37.4799 85.3266 38.5875 85.9348 39.6952C86.29 40.3412 86.646 40.9873 87.0021 41.6336C87.5544 42.6361 88.1072 43.6393 88.6581 44.6443C89.1669 45.5677 89.6733 46.4911 90.1797 47.4145C90.6861 48.3379 91.1925 49.2614 91.7013 50.1848C91.7239 50.23 91.7767 50.258 91.8294 50.286C91.8558 50.3 91.8822 50.314 91.9048 50.3302C91.9073 50.3073 91.9116 50.2835 91.9158 50.2596C91.9276 50.1923 91.9395 50.1246 91.9145 50.0781C91.1828 48.7354 90.4462 47.3927 89.7097 46.0549C88.4498 43.7718 87.1947 41.4887 85.9396 39.2007C85.695 38.7542 85.4503 38.3076 85.2054 37.8608C84.1213 35.8823 83.0356 33.9012 81.9564 31.92C81.9128 31.8425 81.9128 31.6922 81.9564 31.6147C82.5714 30.5074 83.194 29.4052 83.8168 28.3025C84.0529 27.8847 84.289 27.4668 84.5247 27.0485C85.4987 25.3325 86.4678 23.6166 87.437 21.9006C87.8125 21.2341 88.1893 20.5688 88.566 19.9035C88.9428 19.2382 89.3196 18.5729 89.6951 17.9064C90.1143 17.1648 90.5335 16.4219 90.9526 15.679C91.3718 14.9362 91.7909 14.1933 92.2101 13.4517C92.2153 13.4426 92.2216 13.4331 92.228 13.4234C92.2453 13.3972 92.2634 13.3698 92.2634 13.3451C92.2634 13.3088 92.2499 13.2702 92.2367 13.2325C92.2305 13.2148 92.2244 13.1973 92.2198 13.1803C92.2009 13.1866 92.1815 13.1913 92.1622 13.1961C92.1222 13.2059 92.0829 13.2155 92.0502 13.2384C92.022 13.256 92.0066 13.289 91.991 13.3225C91.9852 13.335 91.9793 13.3477 91.9726 13.3596C91.5995 14.0188 91.2288 14.6781 90.8581 15.3373C90.4874 15.9966 90.1167 16.6558 89.7436 17.315L89.74 17.3214C88.5588 19.4036 87.3776 21.4858 86.1964 23.5729C85.2347 25.2725 84.2756 26.9747 83.3172 28.6757C82.9718 29.2888 82.6264 29.9017 82.2811 30.5143C82.167 30.721 82.0489 30.9278 81.9294 31.137C81.8612 31.2565 81.7925 31.3767 81.7238 31.4983L81.8643 31.7529L81.7044 31.9927ZM81.3142 30.7418C81.2616 30.6274 81.2752 30.5282 81.3459 30.4077C82.0388 29.2007 82.7221 27.9888 83.4053 26.777C83.9772 25.7638 84.5479 24.7505 85.1185 23.7373C85.689 22.7244 86.2595 21.7114 86.8312 20.6985C87.2143 20.0219 87.5976 19.3452 87.9811 18.6685C88.9657 16.9309 89.9508 15.1926 90.9308 13.4517C90.9573 13.4053 90.9544 13.343 90.9514 13.2804C90.95 13.2514 90.9487 13.2224 90.9502 13.1948C90.9238 13.2113 90.8934 13.225 90.8633 13.2386C90.8051 13.2649 90.748 13.2906 90.7225 13.3354C90.2101 14.2293 89.7042 15.1266 89.1995 16.0217C89.0884 16.2186 88.9774 16.4155 88.8665 16.6122C88.1785 17.8311 87.4892 19.05 86.8 20.2689C86.1106 21.4882 85.4212 22.7075 84.733 23.9268C84.4505 24.4279 84.1679 24.9293 83.8852 25.4309C83.1015 26.8217 82.317 28.2137 81.53 29.603C81.4401 29.7603 81.3481 29.9176 81.2512 30.0834C81.2018 30.1679 81.1511 30.2546 81.0987 30.3447L81.3142 30.7418ZM81.278 33.0058C81.2393 32.938 81.2441 32.8119 81.2829 32.7392L81.0454 33.1319C81.0642 33.164 81.08 33.1873 81.0936 33.2074C81.1046 33.2237 81.1143 33.2379 81.123 33.2531L83.0419 36.7431C83.4925 37.5648 83.942 38.3876 84.3914 39.2104C84.8409 40.0333 85.2903 40.8561 85.7409 41.6777C86.8022 43.6166 87.8682 45.5556 88.9343 47.4945C89.414 48.3767 89.8987 49.2589 90.3881 50.1363C90.4317 50.209 90.5722 50.306 90.6207 50.2866C90.7439 50.2326 90.6896 50.1542 90.6402 50.0829C90.6275 50.0645 90.6151 50.0466 90.6062 50.0297C90.3614 49.5813 90.1155 49.1329 89.8696 48.6845C89.6236 48.2362 89.3777 47.7878 89.133 47.3394C88.5418 46.2633 87.9518 45.1872 87.3618 44.1111C86.7719 43.035 86.1819 41.9589 85.5907 40.8828C84.1516 38.2603 82.7124 35.6331 81.278 33.0058ZM80.6045 33.8687L80.3913 34.2128C80.7539 34.8761 81.112 35.5258 81.4673 36.1703C81.7481 36.6798 82.0272 37.186 82.3053 37.6932C82.7559 38.5148 83.2053 39.3375 83.6547 40.1603C84.1042 40.9832 84.5537 41.8061 85.0044 42.6278C86.3806 45.1387 87.7616 47.6496 89.1475 50.1557C89.1739 50.2052 89.2318 50.2345 89.2889 50.2634C89.3157 50.277 89.3424 50.2905 89.3656 50.306C89.3656 50.282 89.3676 50.2565 89.3697 50.2306C89.3748 50.1673 89.38 50.1021 89.3559 50.0539C88.9639 49.3274 88.5689 48.607 88.1733 47.8854C88.07 47.697 87.9667 47.5086 87.8634 47.32C87.3376 46.3602 86.8106 45.4017 86.2837 44.4431C85.7567 43.4846 85.2297 42.526 84.704 41.5662C84.3787 40.9725 84.0541 40.3788 83.7297 39.7854C83.2278 38.8672 82.7263 37.9497 82.2229 37.034C81.9613 36.5541 81.6984 36.0742 81.4355 35.5943C81.1726 35.1144 80.9098 34.6345 80.6481 34.1547C80.6045 34.0723 80.5706 33.9414 80.6045 33.8687ZM79.9939 34.8721L79.7855 35.192C79.8142 35.2411 79.8411 35.2842 79.8663 35.3245C79.9008 35.3796 79.932 35.4296 79.96 35.4828C81.186 37.7077 82.4119 39.9375 83.6331 42.1673C84.0442 42.9174 84.4549 43.6675 84.8656 44.4174C85.9119 46.3283 86.9578 48.2384 88.0088 50.146C88.0364 50.1979 88.0987 50.2301 88.1603 50.2619C88.185 50.2746 88.2095 50.2873 88.2317 50.3011C88.2317 50.2735 88.2346 50.2444 88.2375 50.2154C88.2438 50.1528 88.25 50.0906 88.2268 50.0442C87.928 49.4861 87.6225 48.9313 87.3159 48.3744C87.2497 48.2541 87.1834 48.1337 87.1171 48.0132C86.5283 46.9442 85.9413 45.8734 85.3539 44.8018C84.9745 44.1097 84.5949 43.4172 84.2145 42.7247C83.3859 41.2076 82.5525 39.6904 81.7191 38.1732L81.719 38.1731C81.1569 37.1503 80.5948 36.1275 80.0375 35.1047C80.0036 35.0369 79.9648 34.9302 79.9939 34.8721ZM79.364 35.8803L79.1459 36.2293C79.1593 36.2495 79.1717 36.2644 79.1826 36.2776C79.1953 36.2929 79.2059 36.3058 79.2137 36.3214C79.7662 37.3248 80.3137 38.3234 80.8613 39.3268C81.2078 39.9593 81.553 40.5907 81.8983 41.2221C82.2435 41.8534 82.5888 42.4848 82.9353 43.1174C83.4223 44.002 83.9081 44.8866 84.3938 45.7713C84.8796 46.6559 85.3654 47.5406 85.8524 48.4252C85.9694 48.6366 86.0852 48.848 86.2008 49.0591C86.406 49.4339 86.6108 49.8079 86.8215 50.1799C86.8441 50.2187 86.8926 50.2424 86.9424 50.2668C86.9674 50.279 86.9927 50.2914 87.0154 50.306C87.0251 50.2284 87.0348 50.146 87.0348 50.0684C87.0348 50.0491 87.0218 50.0297 87.0089 50.0103C87.0025 50.0006 86.996 49.9909 86.9911 49.9812L85.2031 46.7238C84.75 45.8997 84.2981 45.0733 83.8463 44.2468C83.3944 43.4203 82.9425 42.5939 82.4895 41.7698C81.971 40.8246 81.4513 39.8794 80.9316 38.9341C80.4119 37.9889 79.8921 37.0437 79.3737 36.0984C79.3446 36.0403 79.3349 35.9336 79.364 35.8803ZM78.7631 36.874L78.5402 37.2327C78.5886 37.3054 78.6129 37.3442 78.6371 37.3878C79.0805 38.1998 79.5263 39.0105 79.9721 39.8212C80.4179 40.6319 80.8637 41.4426 81.3071 42.2545C81.9613 43.4518 82.6155 44.6479 83.2696 45.844C83.9238 47.0401 84.578 48.2362 85.2322 49.4334C85.2606 49.4847 85.2889 49.536 85.3172 49.5872C85.4331 49.7974 85.5484 50.0064 85.6731 50.209C85.6925 50.2413 85.742 50.2564 85.7916 50.2715C85.8163 50.279 85.8411 50.2866 85.8621 50.2963C85.8651 50.2833 85.8685 50.2702 85.8719 50.257C85.8852 50.2056 85.8989 50.1525 85.8912 50.1024C85.8876 50.0628 85.8626 50.0258 85.838 49.9896C85.8295 49.977 85.8211 49.9646 85.8136 49.9521C85.3727 49.1571 84.9317 48.3622 84.4956 47.5624C83.8875 46.4523 83.2781 45.3411 82.6688 44.2298C82.0594 43.1186 81.4501 42.0073 80.8419 40.8973C80.7162 40.668 80.5902 40.4386 80.4642 40.209C79.9057 39.1912 79.3457 38.1707 78.7922 37.1503C78.7485 37.0728 78.7292 36.9467 78.7631 36.874ZM78.1089 37.9453L77.9151 38.2603C77.924 38.2728 77.9324 38.2844 77.9403 38.2954C77.9757 38.3444 78.0019 38.3807 78.0217 38.4203L78.0226 38.422C78.8025 39.8368 79.5823 41.2517 80.3573 42.6714C80.9679 43.7912 81.5797 44.9097 82.1914 46.0282C82.8032 47.1467 83.415 48.2652 84.0256 49.385C84.1758 49.6613 84.326 49.9376 84.4859 50.2042C84.5081 50.2359 84.5532 50.2531 84.5993 50.2707C84.6236 50.28 84.6483 50.2894 84.67 50.3011C84.6846 50.2333 84.6991 50.1605 84.6991 50.0927C84.6991 50.0679 84.681 50.0405 84.6637 50.0143C84.6573 50.0047 84.651 49.9952 84.6458 49.986C83.9577 48.7354 83.2745 47.4897 82.5912 46.2391C82.355 45.8086 82.1184 45.3778 81.8815 44.9466C81.3555 43.9889 80.8286 43.0296 80.304 42.0704C80.1148 41.726 79.9255 41.382 79.7364 41.0382C79.2038 40.0703 78.672 39.1036 78.1428 38.1343C78.1089 38.081 78.0847 37.9889 78.1089 37.9453ZM77.4305 39.0602L77.2318 39.3849C77.7067 40.2429 78.1574 41.067 78.608 41.891C80.1199 44.6491 81.6318 47.4073 83.1485 50.1654C83.1738 50.2097 83.2322 50.2354 83.2913 50.2614C83.3226 50.2753 83.3542 50.2892 83.3811 50.306C83.3795 50.2752 83.3809 50.2431 83.3823 50.2111C83.3853 50.1423 83.3882 50.0745 83.3617 50.0248C82.9343 49.242 82.5035 48.4626 82.0723 47.6826C81.7799 47.1537 81.4874 46.6244 81.1957 46.0936C79.9454 43.8154 78.6953 41.5323 77.4499 39.2541C77.4208 39.2007 77.4063 39.1086 77.4305 39.0602ZM76.8151 40.0587L76.631 40.3641C76.8042 40.6805 76.9742 40.9902 77.1421 41.2963C77.3781 41.7265 77.6103 42.1497 77.8424 42.5745C78.7243 44.1935 79.6111 45.8076 80.4979 47.4218C80.5549 47.5261 80.612 47.6304 80.6689 47.7346C81.1151 48.5503 81.5591 49.3622 82.0146 50.1702C82.0383 50.2144 82.0953 50.2418 82.1523 50.2693C82.1767 50.2811 82.2011 50.2929 82.2229 50.306C82.2212 50.2772 82.2237 50.246 82.2262 50.2148C82.2307 50.1566 82.2353 50.0981 82.2132 50.0539C81.7539 49.2044 81.2895 48.3575 80.8254 47.5112C80.6434 47.1792 80.4614 46.8473 80.2798 46.5154C79.9246 45.8679 79.5689 45.2201 79.2131 44.5718C78.4232 43.1332 77.6326 41.6929 76.8442 40.2526C76.8151 40.1993 76.7909 40.1072 76.8151 40.0587ZM76.1949 41.096L75.9913 41.4305C76.2626 41.9199 76.5096 42.3705 76.7566 42.821L76.757 42.8217C77.2633 43.7451 77.7709 44.6697 78.2785 45.5944C78.7861 46.519 79.2937 47.4436 79.8001 48.367C80.1296 48.973 80.4639 49.5789 80.8031 50.1799C80.8272 50.2246 80.8828 50.2498 80.9373 50.2744C80.9598 50.2846 80.982 50.2947 81.0018 50.306C81.0048 50.2824 81.0104 50.2575 81.016 50.2327C81.0288 50.176 81.0414 50.1201 81.0212 50.083C80.3186 48.7936 79.6159 47.5139 78.9085 46.2294C78.5586 45.5903 78.2081 44.9513 77.8573 44.312C77.3142 43.3219 76.7706 42.331 76.2288 41.3384C76.19 41.2705 76.1609 41.1591 76.1949 41.096ZM75.5358 42.1818L75.3323 42.5018C75.3481 42.5233 75.3627 42.5424 75.3759 42.5597C75.4073 42.6008 75.4316 42.6325 75.4486 42.6666C75.9625 43.6038 76.4744 44.541 76.9855 45.4769C77.2648 45.9883 77.5439 46.4994 77.823 47.0098C78.4045 48.0665 78.986 49.1232 79.5723 50.1799C79.5941 50.2173 79.642 50.2407 79.6901 50.2642C79.7168 50.2773 79.7437 50.2904 79.7662 50.306C79.7689 50.2814 79.7736 50.2564 79.7782 50.2315C79.79 50.1683 79.8016 50.1061 79.7807 50.0539C79.7446 49.9587 79.6929 49.8701 79.6407 49.7807C79.6159 49.7381 79.5909 49.6954 79.5675 49.6516L77.4741 45.8416C77.261 45.4539 77.0473 45.0662 76.8335 44.6784C76.406 43.9028 75.9785 43.1271 75.5552 42.3515C75.531 42.303 75.5116 42.2206 75.5358 42.1818ZM74.8623 43.2725L74.6684 43.5876C75.7587 45.5759 76.825 47.5209 77.8912 49.4657L77.9054 49.4916C77.9499 49.5712 77.9934 49.6507 78.0367 49.7299C78.1254 49.8921 78.2132 50.0527 78.3076 50.209C78.3305 50.2418 78.3777 50.2612 78.4254 50.2809C78.4483 50.2903 78.4713 50.2998 78.4917 50.3108C78.495 50.2866 78.4993 50.2623 78.5036 50.2381C78.5122 50.1896 78.5208 50.1412 78.5208 50.0927C78.5242 50.0723 78.511 50.052 78.4977 50.0316C78.4921 50.0229 78.4864 50.0142 78.482 50.0054C77.8836 48.9148 77.2851 47.8253 76.6867 46.7359C76.0883 45.6465 75.4898 44.557 74.8913 43.4664C74.8623 43.4082 74.838 43.3161 74.8623 43.2725ZM74.2759 44.2517L74.0821 44.5473C74.0955 44.5678 74.1082 44.5872 74.1203 44.6056C74.1741 44.6875 74.2161 44.7515 74.2517 44.8188L74.2523 44.8198C75.2261 46.5984 76.1999 48.3771 77.1785 50.1509C77.2056 50.2015 77.2655 50.2333 77.324 50.2644C77.3494 50.2779 77.3746 50.2913 77.3966 50.306C77.395 50.2752 77.3972 50.2427 77.3993 50.2105C77.4036 50.1463 77.4079 50.0829 77.3821 50.0345C76.9716 49.273 76.5545 48.5148 76.1363 47.7545C76.046 47.5904 75.9557 47.4262 75.8653 47.2618C75.732 47.0193 75.5987 46.777 75.4655 46.5349C75.0902 45.8531 74.7157 45.1724 74.3438 44.4892C74.305 44.4165 74.2469 44.305 74.2759 44.2517ZM73.6557 45.2696L73.4522 45.5895C73.471 45.6169 73.4886 45.6407 73.5048 45.6626C73.5345 45.7025 73.5594 45.7361 73.5782 45.7737C74.242 46.9758 74.9059 48.1828 75.5649 49.3898C75.6266 49.4998 75.686 49.6097 75.7452 49.7193C75.8349 49.8852 75.9241 50.0504 76.0204 50.2139C76.0424 50.2453 76.0888 50.2624 76.1358 50.2798C76.1614 50.2893 76.1872 50.2989 76.2094 50.3108C76.2122 50.2895 76.2159 50.2682 76.2196 50.247C76.2284 50.1959 76.2371 50.1455 76.2336 50.0975C76.2298 50.0553 76.2046 50.0161 76.1799 49.9775C76.1734 49.9674 76.167 49.9573 76.1609 49.9473C76.0083 49.6734 75.8569 49.3983 75.7054 49.1232C75.554 48.8481 75.4026 48.573 75.2499 48.2992C75.1166 48.0565 74.9832 47.8142 74.85 47.5721C74.4748 46.8903 74.1003 46.2097 73.7284 45.5265L73.7239 45.5175C73.685 45.4399 73.6277 45.3256 73.6557 45.2696ZM73.0209 46.2924L72.8319 46.5929C73.106 47.0925 73.3762 47.5825 73.6439 48.0678C73.8021 48.3547 73.9594 48.6399 74.116 48.9245C74.183 49.0461 74.2495 49.1678 74.316 49.2893C74.4854 49.5988 74.6544 49.9076 74.8284 50.2139C74.8481 50.2502 74.8949 50.2685 74.9426 50.2872C74.9649 50.296 74.9875 50.3048 75.0076 50.3157C75.0109 50.2994 75.0144 50.2833 75.0179 50.2674C75.0299 50.2123 75.0416 50.1588 75.0416 50.1024C75.0416 50.0745 75.024 50.0491 75.0069 50.0244C75.0003 50.0148 74.9937 50.0053 74.9883 49.9957C74.3486 48.8324 73.709 47.669 73.0742 46.5057C73.0354 46.4426 72.9967 46.3409 73.0209 46.2924ZM72.357 47.4024L72.168 47.7029C72.4491 48.2119 72.7108 48.687 72.9724 49.1668C73.0426 49.2925 73.1107 49.4196 73.1789 49.5468C73.2894 49.7531 73.4001 49.9596 73.52 50.1605C73.55 50.2106 73.61 50.24 73.6697 50.2693C73.6967 50.2825 73.7236 50.2957 73.7478 50.3108C73.7454 50.2678 73.7442 50.2248 73.743 50.1823C73.7417 50.1387 73.7405 50.0957 73.7381 50.0539C73.7381 50.0413 73.7278 50.0266 73.7179 50.0125C73.7127 50.005 73.7075 49.9976 73.7041 49.9909C73.2729 49.2105 72.8465 48.4254 72.4201 47.6402L72.42 47.6399C72.3813 47.5672 72.328 47.4557 72.357 47.4024ZM71.7852 48.3283L71.5866 48.6627C71.6495 48.7741 71.7027 48.8709 71.7559 48.9677L71.7562 48.9681C71.8063 49.0599 71.8562 49.1516 71.9061 49.2433C72.0827 49.5683 72.2591 49.8925 72.4443 50.2139C72.4678 50.2509 72.5171 50.2716 72.5662 50.2921C72.5877 50.3012 72.6092 50.3102 72.6284 50.3205C72.6318 50.2935 72.6357 50.267 72.6397 50.2408C72.647 50.1917 72.6543 50.1432 72.6575 50.0927C72.6575 50.0801 72.6472 50.0654 72.6373 50.0513C72.6321 50.0438 72.6269 50.0364 72.6235 50.0297L72.6233 50.0293C72.3521 49.5447 72.0808 49.0601 71.8191 48.5706C71.7852 48.5028 71.7562 48.3864 71.7852 48.3283ZM72.1632 14.2903L71.7782 15.4685C71.7443 15.3909 72.3473 14.4939 72.3861 14.4212C72.4761 14.2462 72.5737 14.0738 72.6718 13.9007C72.764 13.7381 72.8565 13.5748 72.9434 13.4081C72.9654 13.3672 72.9568 13.312 72.948 13.2558C72.9433 13.2254 72.9385 13.1947 72.9385 13.1657C72.9126 13.183 72.8868 13.199 72.8611 13.2149C72.8147 13.2436 72.769 13.2719 72.7253 13.3063C72.7063 13.3221 72.6956 13.3482 72.6851 13.3738C72.6795 13.3875 72.6739 13.4011 72.6672 13.4129C72.5024 13.7038 72.3376 13.9898 72.1632 14.2903ZM72.2818 15.665C72.413 15.978 72.2008 16.3019 72.606 16.0612C72.4911 15.7872 72.9553 15.3729 73.2196 14.8914C73.2316 14.8674 73.2454 14.8452 73.2588 14.8238C73.2671 14.8106 73.2752 14.7976 73.2826 14.7847C73.3558 14.6558 73.4295 14.5268 73.5032 14.3978C73.6927 14.0659 73.8827 13.7334 74.0676 13.3984C74.087 13.3564 74.0805 13.3014 74.074 13.2465C74.0708 13.219 74.0676 13.1916 74.0676 13.1657C74.0449 13.1778 74.0204 13.1885 73.9958 13.1992C73.9413 13.2229 73.8862 13.2468 73.8495 13.2869C73.8003 13.3394 73.7688 13.4031 73.7371 13.4673C73.722 13.4979 73.7068 13.5286 73.6896 13.5583C73.3649 14.1303 72.621 15.0688 72.2818 15.665ZM73.1823 16.6015L73.4344 16.8448C73.4087 16.7692 73.5161 16.6273 73.5636 16.5395C74.1548 15.507 74.7411 14.4696 75.3178 13.4275C75.3413 13.3771 75.3438 13.3151 75.3464 13.2527C75.3476 13.2251 75.3487 13.1974 75.3517 13.1706C75.3259 13.1842 75.2963 13.196 75.2667 13.2078C75.2015 13.2336 75.136 13.2597 75.1094 13.3063C74.8759 13.7067 74.6493 14.1141 74.4232 14.5204C74.3209 14.7043 74.2187 14.888 74.116 15.0707C73.8641 15.5167 73.4439 16.1458 73.1823 16.6015ZM73.927 17.4944L74.1389 17.8816C74.0928 17.7745 74.1115 17.6814 74.179 17.5622C74.964 16.1856 75.7442 14.8041 76.5147 13.4178C76.5378 13.3747 76.5316 13.3158 76.5253 13.2565C76.5224 13.2291 76.5195 13.2015 76.5195 13.1754C76.5001 13.1858 76.4785 13.1955 76.4566 13.2053C76.3969 13.2322 76.3347 13.2601 76.3063 13.3063C75.9263 13.9689 75.5513 14.634 75.1759 15.2998C75.0295 15.5595 74.8831 15.8192 74.7363 16.079C74.5329 16.4406 74.3266 16.7994 74.1128 17.1711C74.0516 17.2777 73.9897 17.3853 73.927 17.4944ZM74.5231 18.5559L74.7317 18.945C74.6913 18.8231 74.7188 18.7057 74.7993 18.5656C75.3735 17.5695 75.9396 16.5652 76.5056 15.5608C76.6943 15.2261 76.883 14.8913 77.0719 14.5569C77.1385 14.4385 77.2055 14.3205 77.2725 14.2028C77.4248 13.9348 77.5765 13.6678 77.7213 13.3984C77.7406 13.3597 77.7342 13.3104 77.7278 13.2604C77.7245 13.235 77.7213 13.2095 77.7213 13.1851C77.7086 13.1896 77.6959 13.194 77.6832 13.1984C77.6282 13.2173 77.5738 13.236 77.5226 13.2675C77.502 13.2812 77.4887 13.3095 77.4759 13.3368C77.4705 13.3482 77.4653 13.3594 77.4596 13.3693C76.7231 14.6683 75.9866 15.9721 75.2501 17.276L75.2499 17.2762C75.1074 17.5236 74.9666 17.7727 74.8212 18.0299C74.7245 18.2011 74.6257 18.3758 74.5231 18.5559ZM75.0706 19.5351L75.2556 19.8968C75.2209 19.8113 75.2365 19.7389 75.2887 19.6466C75.6828 18.955 76.0727 18.2634 76.4625 17.5718C76.6574 17.2261 76.8523 16.8803 77.0477 16.5346C77.2432 16.1888 77.4392 15.843 77.6352 15.4972C78.0271 14.8057 78.4191 14.1141 78.8067 13.4226C78.8317 13.3798 78.8277 13.3159 78.8239 13.2542C78.8226 13.2321 78.8212 13.2104 78.8212 13.1899C78.7995 13.2001 78.7743 13.2089 78.7487 13.2179C78.6888 13.2389 78.627 13.2607 78.6032 13.3014C77.634 15.0077 76.6697 16.7188 75.7054 18.4299C75.5661 18.6754 75.4246 18.9209 75.2776 19.1758C75.2099 19.2933 75.141 19.4127 75.0706 19.5351ZM75.6957 20.6791L75.9332 21.1008C75.8944 21.0087 75.8896 20.8633 75.9332 20.7809C76.2869 20.1168 76.66 19.4576 77.0331 18.7984L77.0332 18.7983C77.4151 18.1204 77.7978 17.4433 78.1804 16.7663C78.8073 15.6569 79.434 14.548 80.0569 13.4372C80.0827 13.3919 80.0827 13.3337 80.0827 13.2741C80.0827 13.2443 80.0827 13.2142 80.086 13.1851C80.0623 13.1976 80.0358 13.209 80.0091 13.2204C79.9431 13.2487 79.8762 13.2773 79.8485 13.3257C79.0991 14.6442 78.3539 15.9669 77.6087 17.2897C77.2361 17.9511 76.8636 18.6125 76.4904 19.2733C76.3035 19.5989 76.119 19.9268 75.9282 20.2661C75.8519 20.4018 75.7746 20.5392 75.6957 20.6791ZM76.3015 21.7649L76.5019 22.1394C76.4631 22.0303 76.4883 21.9264 76.5583 21.8085C76.765 21.4651 76.9624 21.1154 77.1604 20.7646C77.2083 20.6796 77.2563 20.5945 77.3045 20.5094C77.551 20.0716 77.7974 19.6334 78.044 19.195C78.7282 17.9785 79.413 16.7608 80.1005 15.5457C80.2727 15.2375 80.4476 14.9302 80.6225 14.623C80.8463 14.2297 81.0701 13.8366 81.2877 13.442C81.3148 13.3946 81.3088 13.3283 81.3027 13.2612C81.3001 13.2322 81.2974 13.2032 81.2974 13.1754C81.2744 13.1912 81.2492 13.2058 81.2241 13.2203C81.1645 13.2548 81.1052 13.2891 81.0745 13.3402C80.9246 13.5794 80.7882 13.8254 80.6512 14.0724C80.6243 14.1208 80.5975 14.1692 80.5705 14.2176C79.9794 15.2646 79.387 16.3116 78.7946 17.3587C78.2022 18.4057 77.6098 19.4527 77.0186 20.4997C76.8999 20.71 76.7812 20.919 76.66 21.1325C76.5436 21.3374 76.4249 21.5465 76.3015 21.7649ZM76.9169 22.8507L77.1649 23.3013C77.1095 23.0883 77.1772 22.8755 77.3239 22.6277C77.8617 21.7122 78.381 20.7829 78.901 19.8525C79.1353 19.4331 79.3699 19.0134 79.6062 18.5947C79.8793 18.1123 80.1527 17.63 80.4262 17.1475C81.1283 15.9088 81.8307 14.6694 82.5282 13.4275C82.5514 13.3844 82.5452 13.3255 82.5389 13.2662C82.536 13.2388 82.5331 13.2112 82.5331 13.1851C82.5094 13.1993 82.4826 13.2115 82.4559 13.2236C82.4007 13.2486 82.346 13.2735 82.3199 13.316C82.1775 13.5424 82.0488 13.7743 81.9195 14.0076C81.8771 14.084 81.8347 14.1605 81.7917 14.237C81.3892 14.9496 80.9863 15.6626 80.5832 16.376C79.6565 18.0161 78.7289 19.6578 77.8036 21.2995L77.8019 21.3026C77.5117 21.8105 77.2215 22.3185 76.9169 22.8507ZM77.4935 23.8832L77.7261 24.2806C77.6922 24.2031 77.6873 24.0771 77.7261 24.0092C78.2111 23.1303 78.7037 22.2566 79.1965 21.3824C79.3833 21.0512 79.5701 20.7199 79.7565 20.3882C80.1296 19.7266 80.5039 19.0649 80.8783 18.4033C81.2526 17.7416 81.6269 17.0799 82 16.4183C82.5621 15.4294 83.1194 14.4454 83.6718 13.4517C83.699 13.4008 83.6929 13.3333 83.6867 13.2658C83.6841 13.2368 83.6815 13.2079 83.6815 13.1803C83.6578 13.1977 83.6304 13.2136 83.6028 13.2296C83.5459 13.2625 83.488 13.2961 83.4586 13.3451C83.247 13.6942 83.0467 14.049 82.8469 14.403C82.786 14.511 82.7251 14.6189 82.6639 14.7266C81.891 16.0984 81.1193 17.4691 80.3475 18.8397C79.5759 20.2102 78.8043 21.5807 78.0314 22.9525C77.9294 23.1362 77.8238 23.3164 77.7148 23.5026C77.6426 23.6259 77.5688 23.7518 77.4935 23.8832ZM78.1428 25.0417L78.3544 25.4272C78.3076 25.3029 78.3398 25.1884 78.4191 25.0562C78.6665 24.6423 78.9026 24.2209 79.1374 23.8019C79.1693 23.7449 79.2012 23.688 79.2331 23.6311C79.4512 23.2436 79.6693 22.8557 79.8874 22.4677C80.4934 21.3899 81.1 20.3109 81.7093 19.2346C82.2544 18.2675 82.8008 17.3005 83.3471 16.3335C83.8935 15.3664 84.4399 14.3994 84.985 13.4323C85.0116 13.3892 85.0086 13.3278 85.0056 13.267C85.0042 13.239 85.0029 13.2111 85.0044 13.1851C84.9807 13.1976 84.9542 13.209 84.9275 13.2204C84.8615 13.2487 84.7946 13.2773 84.767 13.3257C83.9819 14.6926 83.2066 16.0644 82.4313 17.4411L82.4303 17.4428C81.1272 19.7641 79.824 22.0854 78.516 24.4067C78.3997 24.6103 78.2785 24.8138 78.1428 25.0417ZM78.734 26.0984L78.9424 26.4668C78.9133 26.4086 78.9133 26.3117 78.9424 26.2535C79.0829 25.9821 79.2331 25.7155 79.3833 25.4488C79.8703 24.5884 80.3585 23.7268 80.8468 22.8652C81.335 22.0036 81.8232 21.142 82.3102 20.2816C82.6857 19.6151 83.0625 18.9498 83.4392 18.2845C83.816 17.6192 84.1927 16.9539 84.5683 16.2874C85.111 15.3276 85.6489 14.3678 86.1819 13.4032C86.204 13.3685 86.1953 13.3174 86.1865 13.2659C86.1818 13.2382 86.1771 13.2105 86.1771 13.1851C86.157 13.1952 86.1343 13.2039 86.1114 13.2128C86.0569 13.2339 86.0008 13.2557 85.9735 13.2966C85.9041 13.3958 85.8482 13.5019 85.792 13.6085C85.7658 13.6581 85.7396 13.7078 85.7119 13.7571C85.2225 14.6272 84.7318 15.4961 84.2412 16.365C83.7506 17.2338 83.2599 18.1027 82.7705 18.9728C82.1866 20.0053 81.6026 21.0391 81.0187 22.0728C80.4348 23.1065 79.8509 24.1401 79.267 25.1726C79.0974 25.4731 78.923 25.7736 78.734 26.0984ZM79.3107 27.1406L79.5604 27.5937C79.5055 27.3769 79.5846 27.1619 79.7274 26.9127C80.3167 25.8959 80.892 24.8711 81.4674 23.846C81.7862 23.2779 82.1051 22.7098 82.4265 22.143C83.7978 19.7096 85.174 17.2812 86.5501 14.8527L86.5502 14.8526C86.5927 14.778 86.6352 14.7035 86.6777 14.6291C86.9112 14.2199 87.1436 13.8126 87.3691 13.3984C87.3886 13.3627 87.382 13.3118 87.3755 13.2617C87.3723 13.237 87.3691 13.2124 87.3691 13.1899C87.351 13.1964 87.3326 13.2025 87.3141 13.2087C87.2632 13.2256 87.2118 13.2426 87.1656 13.2675C87.1453 13.2756 87.1319 13.3041 87.1195 13.3302C87.1171 13.3353 87.1147 13.3403 87.1123 13.3451C86.8022 13.888 86.492 14.4309 86.1819 14.9786C85.1255 16.8594 84.0692 18.7353 83.008 20.6161C82.3396 21.8023 81.6694 22.9868 80.9997 24.1706C80.572 24.9265 80.1445 25.6821 79.7177 26.4377C79.6465 26.5616 79.5754 26.6841 79.5019 26.8106C79.4402 26.9167 79.377 27.0256 79.3107 27.1406ZM79.9067 28.2264L80.1344 28.619C80.1005 28.5414 80.0957 28.4154 80.1344 28.3427C81.123 26.5734 82.1212 24.809 83.1194 23.0446C84.0595 21.3771 84.9995 19.7096 85.9445 18.0421C86.1651 17.6536 86.3864 17.265 86.6079 16.8762C86.9557 16.2657 87.3038 15.6546 87.6502 15.0416C87.9555 14.5036 88.2607 13.9607 88.5563 13.4178C88.5758 13.3789 88.5692 13.3247 88.5627 13.2714C88.5595 13.245 88.5563 13.2189 88.5563 13.1948C88.4837 13.2239 88.411 13.253 88.3431 13.2917C88.3275 13.2996 88.3181 13.32 88.31 13.3378C88.3081 13.3421 88.3062 13.3462 88.3044 13.3499L85.6731 18.0179C85.2927 18.6941 84.9123 19.3716 84.5319 20.049C84.1515 20.7264 83.7711 21.4038 83.3908 22.08C82.928 22.8992 82.4652 23.7197 82.0024 24.5401C81.5396 25.3605 81.0769 26.1809 80.6142 27C80.4849 27.2283 80.3541 27.4535 80.22 27.6844C80.1178 27.8604 80.0136 28.0397 79.9067 28.2264ZM80.4736 29.2249L80.7111 29.6515C80.6675 29.5594 80.6626 29.4091 80.7111 29.3267C81.3604 28.1537 82.0194 26.9806 82.6833 25.8124C83.4057 24.5308 84.1308 23.2518 84.8566 21.9716C85.119 21.5086 85.3815 21.0456 85.644 20.5821C85.9577 20.0264 86.2707 19.4706 86.5835 18.9151C87.0728 18.0462 87.5617 17.178 88.0524 16.3116C88.5999 15.347 89.1476 14.3824 89.6903 13.4129C89.7152 13.3737 89.7113 13.3162 89.7075 13.2596C89.7062 13.2392 89.7048 13.2189 89.7048 13.1996C89.6833 13.2083 89.6608 13.216 89.6383 13.2238C89.585 13.2424 89.5311 13.2611 89.4868 13.2917C89.4603 13.3116 89.4429 13.3472 89.4253 13.3832C89.4171 13.4 89.4088 13.4169 89.3995 13.4323C89.1814 13.8199 88.9632 14.2079 88.745 14.596C88.1391 15.6737 87.5325 16.7526 86.9233 17.8288L86.9222 17.8309C85.9534 19.5364 84.9846 21.242 84.0207 22.9525L80.808 28.6529C80.7446 28.7677 80.6775 28.8805 80.6065 28.9997C80.5636 29.0719 80.5193 29.1463 80.4736 29.2249Z" fill="url(#paint0_linear_8997_2582)"/>
<path fill-rule="evenodd" clip-rule="evenodd" d="M63.8073 15.2576C63.7806 15.2677 63.7623 15.2762 63.7538 15.2828C63.7409 15.2929 63.7504 15.2985 63.7865 15.2985C63.7947 15.2854 63.8014 15.2717 63.8073 15.2576Z" fill="url(#paint1_linear_8997_2582)"/>
<path d="M71.7782 15.4685L72.1632 14.2903L71.4919 15.3731L71.7782 15.4685Z" fill="url(#paint2_linear_8997_2582)"/>
</g>
</g>
<g filter="url(#filter4_d_8997_2582)">
<g filter="url(#filter5_d_8997_2582)">
<path d="M62.0362 11.9586C73.9229 9.64218 79.4478 24.563 82.7124 31.2398C81.5405 33.863 78.5549 39.6201 76.3784 42.8223C74.6641 45.3446 71.607 48.1024 70.7978 48.7156C69.9886 49.3288 68.6492 49.7376 67.84 49.7376C67.0308 49.7376 67.0587 49.431 66.975 49.2948C66.8913 49.1585 66.9192 48.7156 67.3378 48.3068C67.7563 47.8981 67.6168 47.5915 67.561 47.5233C67.5052 47.4552 67.2541 47.2508 66.7239 47.4211C66.1937 47.5915 65.8031 48.409 65.245 49.1244C64.687 49.8398 64.1289 49.942 63.8778 50.0101C63.6266 50.0783 62.957 50.0101 63.0686 49.1244C63.1802 48.2387 64.5195 47.9321 65.245 46.842C65.8254 45.9699 66.0077 44.571 66.0263 43.9805C65.5799 43.6739 65.5241 42.9926 65.5241 42.8223C65.5241 42.6519 65.5241 41.7258 66.3891 40.9827C67.0169 40.4433 69.1367 38.9577 69.6967 38.576C69.3234 38.7993 68.3277 39.3204 67.8121 39.586C67.4122 39.8018 66.5676 40.0084 66.3891 39.1091C66.1658 37.9849 68.0074 37.1673 67.8679 37.0992C67.7563 37.0447 67.4494 37.1673 67.3099 37.2355C67.5612 34.9531 69.7374 33.7267 70.8815 32.9091C72.2965 31.8978 74.6763 31.3421 74.6763 31.3421C74.6763 31.3421 73.0579 31.2739 71.9139 31.0014C70.9987 30.7834 70.3978 30.3428 70.2118 30.1498C69.9607 29.9227 69.5031 29.4753 69.57 28.9575C69.6185 28.5828 71.1791 28.3556 71.9697 28.2421C69.6258 28.3443 68.5952 28.4806 68.1191 28.0377C67.6168 27.5705 67.1277 26.789 67.1704 26.1641C67.1983 25.7553 68.1191 25.7212 68.6213 25.6872C67.7005 25.619 67.0029 25.5509 66.4449 25.1421C65.8246 24.6878 65.7194 23.6432 65.8589 23.4729C66.0275 23.2671 66.6402 23.4388 67.1424 23.3707C63.7383 22.8597 64.0731 21.1223 64.7149 20.6114C62.8175 19.7597 63.0919 16.7653 63.4313 17.341C63.7707 17.9168 64.2963 18.1473 64.38 18.1586C61.9469 15.3789 61.8036 12.8671 62.0362 11.9586Z" fill="url(#paint3_linear_8997_2582)"/>
</g>
<path d="M67.886 37.0991C67.7744 37.0446 67.4675 37.1672 67.3279 37.2354C67.5791 34.9155 69.8392 33.5529 70.8158 33.0078C71.6328 34.4726 76.313 38.3902 78.7837 38.9012C78.4496 39.4426 76.7055 42.3675 76.3965 42.8222C74.6821 45.3445 71.625 48.1023 70.8158 48.7155C70.0066 49.3287 68.6673 49.7375 67.8581 49.7375C67.0489 49.7375 67.0768 49.4309 66.9931 49.2946C66.9094 49.1584 66.9373 48.7155 67.3558 48.3067C67.7744 47.898 67.6349 47.5914 67.5791 47.5232C67.5233 47.4551 67.2721 47.2507 66.742 47.421C66.2118 47.5914 65.8212 48.4089 65.2631 49.1243C64.705 49.8397 64.147 49.9419 63.8958 50.01C63.6447 50.0782 62.975 50.01 63.0867 49.1243C63.1983 48.2386 64.5376 47.932 65.2631 46.8419C65.8435 45.9698 66.0258 44.5709 66.0444 43.9804C65.5979 43.6738 65.5421 42.9925 65.5421 42.8222C65.5421 42.6518 65.5421 41.7257 66.4071 40.9826C67.0349 40.4432 69.1547 38.9577 69.7148 38.5759C69.3414 38.7992 68.3458 39.3204 67.8302 39.5859C67.4303 39.8017 66.5857 40.0083 66.4071 39.109C66.1839 37.9848 68.0255 37.1672 67.886 37.0991Z" fill="url(#paint4_linear_8997_2582)"/>
<g filter="url(#filter6_d_8997_2582)">
<path d="M70.7264 38.2214C71.3068 37.2675 73.6829 35.1668 74.7983 34.2357C73.935 34.8943 71.9908 36.3001 71.1202 36.6543C70.032 37.0972 68.3578 37.1653 69.5855 36.0071C73.1125 32.4915 76.522 31.7035 77.786 31.7489C76.7845 35.7346 73.9643 37.6967 72.6239 38.4258C71.3713 39.1071 70.0009 39.4137 70.7264 38.2214Z" fill="url(#paint5_linear_8997_2582)"/>
<path d="M68.0526 16.3195C67.1411 15.5132 65.865 13.9757 68.0526 14.2755C73.5808 15.4581 77.1313 22.1556 78.8495 27.3227C79.4278 29.0618 79.7986 30.6275 79.9673 31.7513C80.0958 33.3764 78.8645 36.1983 77.811 38.277C77.7375 38.4262 77.6652 38.5668 77.5952 38.6976C77.3599 39.1505 77.1397 39.5569 76.9534 39.893C75.4745 42.8567 71.8471 46.638 70.7868 47.4896C69.7052 48.3584 68.7778 48.5798 69.866 47.2512C70.9542 45.9226 73.4212 41.7325 73.9957 40.7787C74.6932 39.6204 75.4745 37.6106 75.9768 36.9292C76.479 36.2479 76.8418 35.8732 77.5952 34.6809C78.3486 33.4886 79.1011 30.8655 77.1758 30.7974C75.6356 30.7429 74.8598 30.7743 74.0227 30.4567C71.9571 29.6732 72.0982 28.7535 72.4331 28.515C72.7009 28.3242 74.2933 28.4355 75.056 28.515C74.2189 28.3333 72.3717 27.8405 71.6797 27.3227C70.8147 26.6754 69.559 25.5853 70.5357 25.2787C71.5123 24.9722 73.4538 25.8238 73.7166 25.8238C73.7725 25.8238 73.4478 25.5975 73.1748 25.479C72.5609 25.2663 71.7686 25.0505 71.1495 24.7678C70.0217 24.2526 67.9124 22.0425 68.1639 21.293C68.8803 19.6376 74.191 22.9963 74.749 23.4392C75.614 23.9161 78.4323 27.9658 78.1253 27.6634C77.0985 26.982 74.3839 25.898 73.1748 25.479C73.4478 25.5975 73.7725 25.8238 73.7166 25.8238C74.3863 26.0282 76.2447 26.8117 78.4323 29.1282C80.4912 31.3084 78.9876 35.8907 77.811 38.277C78.8645 36.1983 80.0958 33.3764 79.9673 31.7513C79.7986 30.6275 79.4278 29.0618 78.8495 27.3227C77.5091 24.7609 75.4898 22.4017 74.6257 21.5615C75.3605 22.4131 75.7931 23.5825 74.3306 22.6897C73.2144 22.0084 68.5824 20.2026 67.6059 19.726C66.7958 19.3307 65.4289 17.1564 66.0992 16.9326C68.2198 16.2241 72.7282 19.7669 74.6257 21.5615C74.0675 20.6757 70.0523 17.6821 68.0526 16.3195Z" fill="url(#paint6_linear_8997_2582)"/>
</g>
<g filter="url(#filter7_d_8997_2582)">
<path d="M71.1561 39.9224C72.373 39.1165 73.7957 38.3182 74.5079 37.9872C74.8419 37.8274 74.8431 38.3287 74.2465 39.4229C73.646 40.5241 71.4221 43.4948 70.9266 44.049C70.4311 44.6032 69.8789 45.0902 69.4042 44.9626C69.0244 44.8606 69.2387 44.3297 69.3933 44.077C69.502 43.8366 69.6104 43.5749 69.4689 43.4283C69.2858 43.2387 68.5071 44.6384 68.1918 43.9627C67.8765 43.2871 68.6699 42.1835 69.4434 41.3505C69.8618 40.9 70.4341 40.4005 71.1561 39.9224Z" fill="url(#paint7_linear_8997_2582)"/>
</g>
</g>
</g>
</g>
<defs>
<filter id="filter0_d_8997_2582" x="-0.000675201" y="8.23883" width="98.183" height="50.4506" filterUnits="userSpaceOnUse" color-interpolation-filters="sRGB">
<feFlood flood-opacity="0" result="BackgroundImageFix"/>
<feColorMatrix in="SourceAlpha" type="matrix" values="0 0 0 0 0 0 0 0 0 0 0 0 0 0 0 0 0 0 127 0" result="hardAlpha"/>
<feOffset dy="2.44068"/>
<feGaussianBlur stdDeviation="2.95932"/>
<feComposite in2="hardAlpha" operator="out"/>
<feColorMatrix type="matrix" values="0 0 0 0 0 0 0 0 0 0 0 0 0 0 0 0 0 0 0.25 0"/>
<feBlend mode="normal" in2="BackgroundImageFix" result="effect1_dropShadow_8997_2582"/>
<feBlend mode="normal" in="SourceGraphic" in2="effect1_dropShadow_8997_2582" result="shape"/>
</filter>
<filter id="filter1_d_8997_2582" x="59.5164" y="11.7168" width="35.188" height="43.4946" filterUnits="userSpaceOnUse" color-interpolation-filters="sRGB">
<feFlood flood-opacity="0" result="BackgroundImageFix"/>
<feColorMatrix in="SourceAlpha" type="matrix" values="0 0 0 0 0 0 0 0 0 0 0 0 0 0 0 0 0 0 127 0" result="hardAlpha"/>
<feOffset dy="2.44067"/>
<feGaussianBlur stdDeviation="1.22034"/>
<feComposite in2="hardAlpha" operator="out"/>
<feColorMatrix type="matrix" values="0 0 0 0 0 0 0 0 0 0 0 0 0 0 0 0 0 0 0.25 0"/>
<feBlend mode="normal" in2="BackgroundImageFix" result="effect1_dropShadow_8997_2582"/>
<feBlend mode="normal" in="SourceGraphic" in2="effect1_dropShadow_8997_2582" result="shape"/>
</filter>
<filter id="filter2_d_8997_2582" x="59.0023" y="8.42026" width="38.0071" height="46.6556" filterUnits="userSpaceOnUse" color-interpolation-filters="sRGB">
<feFlood flood-opacity="0" result="BackgroundImageFix"/>
<feColorMatrix in="SourceAlpha" type="matrix" values="0 0 0 0 0 0 0 0 0 0 0 0 0 0 0 0 0 0 127 0" result="hardAlpha"/>
<feOffset/>
<feGaussianBlur stdDeviation="2.37288"/>
<feComposite in2="hardAlpha" operator="out"/>
<feColorMatrix type="matrix" values="0 0 0 0 1 0 0 0 0 1 0 0 0 0 1 0 0 0 1 0"/>
<feBlend mode="normal" in2="BackgroundImageFix" result="effect1_dropShadow_8997_2582"/>
<feBlend mode="normal" in="SourceGraphic" in2="effect1_dropShadow_8997_2582" result="shape"/>
</filter>
<filter id="filter3_d_8997_2582" x="59.5243" y="10.8406" width="36.9631" height="45.6115" filterUnits="userSpaceOnUse" color-interpolation-filters="sRGB">
<feFlood flood-opacity="0" result="BackgroundImageFix"/>
<feColorMatrix in="SourceAlpha" type="matrix" values="0 0 0 0 0 0 0 0 0 0 0 0 0 0 0 0 0 0 127 0" result="hardAlpha"/>
<feOffset dy="1.8983"/>
<feGaussianBlur stdDeviation="2.11186"/>
<feComposite in2="hardAlpha" operator="out"/>
<feColorMatrix type="matrix" values="0 0 0 0 0 0 0 0 0 0 0 0 0 0 0 0 0 0 0.5 0"/>
<feBlend mode="normal" in2="BackgroundImageFix" result="effect1_dropShadow_8997_2582"/>
<feBlend mode="normal" in="SourceGraphic" in2="effect1_dropShadow_8997_2582" result="shape"/>
</filter>
<filter id="filter4_d_8997_2582" x="56.7842" y="8.44223" width="30.1525" height="47.7091" filterUnits="userSpaceOnUse" color-interpolation-filters="sRGB">
<feFlood flood-opacity="0" result="BackgroundImageFix"/>
<feColorMatrix in="SourceAlpha" type="matrix" values="0 0 0 0 0 0 0 0 0 0 0 0 0 0 0 0 0 0 127 0" result="hardAlpha"/>
<feOffset dx="-0.474575" dy="1.42373"/>
<feGaussianBlur stdDeviation="2.34915"/>
<feComposite in2="hardAlpha" operator="out"/>
<feColorMatrix type="matrix" values="0 0 0 0 0 0 0 0 0 0 0 0 0 0 0 0 0 0 0.25 0"/>
<feBlend mode="normal" in2="BackgroundImageFix" result="effect1_dropShadow_8997_2582"/>
<feBlend mode="normal" in="SourceGraphic" in2="effect1_dropShadow_8997_2582" result="shape"/>
</filter>
<filter id="filter5_d_8997_2582" x="48.7164" y="-0.00046885" width="46.3829" height="63.9396" filterUnits="userSpaceOnUse" color-interpolation-filters="sRGB">
<feFlood flood-opacity="0" result="BackgroundImageFix"/>
<feColorMatrix in="SourceAlpha" type="matrix" values="0 0 0 0 0 0 0 0 0 0 0 0 0 0 0 0 0 0 127 0" result="hardAlpha"/>
<feOffset dx="-0.427118" dy="1.09627"/>
<feGaussianBlur stdDeviation="6.40677"/>
<feComposite in2="hardAlpha" operator="out"/>
<feColorMatrix type="matrix" values="0 0 0 0 1 0 0 0 0 1 0 0 0 0 1 0 0 0 0.6 0"/>
<feBlend mode="normal" in2="BackgroundImageFix" result="effect1_dropShadow_8997_2582"/>
<feBlend mode="normal" in="SourceGraphic" in2="effect1_dropShadow_8997_2582" result="shape"/>
</filter>
<filter id="filter6_d_8997_2582" x="61.9954" y="14.2373" width="21.9056" height="41.806" filterUnits="userSpaceOnUse" color-interpolation-filters="sRGB">
<feFlood flood-opacity="0" result="BackgroundImageFix"/>
<feColorMatrix in="SourceAlpha" type="matrix" values="0 0 0 0 0 0 0 0 0 0 0 0 0 0 0 0 0 0 127 0" result="hardAlpha"/>
<feOffset dy="3.92448"/>
<feGaussianBlur stdDeviation="1.96224"/>
<feComposite in2="hardAlpha" operator="out"/>
<feColorMatrix type="matrix" values="0 0 0 0 0 0 0 0 0 0 0 0 0 0 0 0 0 0 0.25 0"/>
<feBlend mode="normal" in2="BackgroundImageFix" result="effect1_dropShadow_8997_2582"/>
<feBlend mode="normal" in="SourceGraphic" in2="effect1_dropShadow_8997_2582" result="shape"/>
</filter>
<filter id="filter7_d_8997_2582" x="64.1966" y="37.958" width="14.4603" height="14.8744" filterUnits="userSpaceOnUse" color-interpolation-filters="sRGB">
<feFlood flood-opacity="0" result="BackgroundImageFix"/>
<feColorMatrix in="SourceAlpha" type="matrix" values="0 0 0 0 0 0 0 0 0 0 0 0 0 0 0 0 0 0 127 0" result="hardAlpha"/>
<feOffset dy="3.92448"/>
<feGaussianBlur stdDeviation="1.96224"/>
<feComposite in2="hardAlpha" operator="out"/>
<feColorMatrix type="matrix" values="0 0 0 0 0 0 0 0 0 0 0 0 0 0 0 0 0 0 0.25 0"/>
<feBlend mode="normal" in2="BackgroundImageFix" result="effect1_dropShadow_8997_2582"/>
<feBlend mode="normal" in="SourceGraphic" in2="effect1_dropShadow_8997_2582" result="shape"/>
</filter>
<linearGradient id="paint0_linear_8997_2582" x1="68.8633" y1="32.8" x2="93.3689" y2="32.2176" gradientUnits="userSpaceOnUse">
<stop stop-color="white"/>
</linearGradient>
<linearGradient id="paint1_linear_8997_2582" x1="68.8633" y1="32.8" x2="93.3689" y2="32.2176" gradientUnits="userSpaceOnUse">
<stop stop-color="white"/>
</linearGradient>
<linearGradient id="paint2_linear_8997_2582" x1="68.8633" y1="32.8" x2="93.3689" y2="32.2176" gradientUnits="userSpaceOnUse">
<stop stop-color="white"/>
</linearGradient>
<linearGradient id="paint3_linear_8997_2582" x1="68.4944" y1="32.1678" x2="85.1375" y2="31.568" gradientUnits="userSpaceOnUse">
<stop stop-color="#EB65B6"/>
<stop offset="1" stop-color="#86C7FD"/>
</linearGradient>
<linearGradient id="paint4_linear_8997_2582" x1="57.6052" y1="55.9682" x2="80.6148" y2="37.6165" gradientUnits="userSpaceOnUse">
<stop offset="0.908664" stop-color="#C766EB" stop-opacity="0.38"/>
<stop offset="1" stop-color="#86C7FD" stop-opacity="0"/>
</linearGradient>
<linearGradient id="paint5_linear_8997_2582" x1="70.0016" y1="34.531" x2="79.8958" y2="27.1657" gradientUnits="userSpaceOnUse">
<stop stop-color="white"/>
<stop offset="0.5" stop-color="#A5D5FE"/>
<stop offset="1" stop-color="#86C7FD"/>
</linearGradient>
<linearGradient id="paint6_linear_8997_2582" x1="71.1483" y1="32.4018" x2="83.7295" y2="31.73" gradientUnits="userSpaceOnUse">
<stop stop-color="#C3E3FE"/>
<stop offset="0.279701" stop-color="white"/>
<stop offset="1" stop-color="#86C7FD"/>
</linearGradient>
<linearGradient id="paint7_linear_8997_2582" x1="74.2962" y1="38.2951" x2="67.9547" y2="42.3547" gradientUnits="userSpaceOnUse">
<stop stop-color="#86C7FD"/>
<stop offset="1" stop-color="#C766EB"/>
</linearGradient>
</defs>
</svg>
